<svg id="_015-key" data-name="015-key" xmlns="http://www.w3.org/2000/svg" width="21.852" height="21.854" viewBox="0 0 21.852 21.854">
  <path id="Path_3349" data-name="Path 3349" d="M2.242,11.234a6.228,6.228,0,0,1,6.007-1.61c.067.018.133.04.2.06L10.8,7.333a.362.362,0,0,1,.3-.1l1.858.217L12.744,5.58a.366.366,0,0,1,.1-.3.37.37,0,0,1,.3-.105l1.873.21-.206-1.873a.366.366,0,0,1,.4-.4l1.872.206-.209-1.873a.366.366,0,0,1,.105-.3L18.022.107A.366.366,0,0,1,18.309,0l3.363.26A.366.366,0,0,1,22.008.6l.26,3.362a.366.366,0,0,1-.106.287l-9.578,9.573c.02.067.043.132.06.2a6.22,6.22,0,1,1-10.4-2.787ZM21.3.967,18.421.744l-.792.792.24,2.152a.366.366,0,0,1-.4.4l-1.873-.206L15.8,5.76a.366.366,0,0,1-.4.4l-1.871-.21.211,1.868a.365.365,0,0,1-.1.3.361.361,0,0,1-.3.1l-2.14-.25L9.206,9.962l.018.009c.028.013.053.028.081.04q.207.1.406.211c.052.029.1.06.153.091q.167.1.325.213c.046.033.093.064.139.1.146.11.288.221.424.342a5.528,5.528,0,0,1,.545.545c.123.138.237.281.347.428.034.045.065.092.1.139q.113.161.215.329c.031.05.061.1.091.151q.117.2.218.419c.011.023.023.044.033.067l.01.019,9.218-9.215ZM2.759,19.509a5.486,5.486,0,0,0,9.179-5.3c-.035-.128-.073-.253-.114-.376a5.34,5.34,0,0,0-1.083-1.844,4.542,4.542,0,0,0-.472-.471,5.385,5.385,0,0,0-.673-.505,5.3,5.3,0,0,0-1.163-.57c-.124-.041-.248-.079-.375-.113a5.486,5.486,0,0,0-5.3,9.178Zm0,0" transform="translate(-0.418 0)"/>
  <path id="Path_3350" data-name="Path 3350" d="M329.574,326.984a2.2,2.2,0,1,1-2.2,2.2A2.2,2.2,0,0,1,329.574,326.984Zm0,3.659a1.463,1.463,0,1,0-1.464-1.463A1.464,1.464,0,0,0,329.574,330.643Zm0,0" transform="translate(-324.871 -312.03)"/>
</svg>
