<svg id="pin_1_" data-name="pin (1)" xmlns="http://www.w3.org/2000/svg" width="17.731" height="24" viewBox="0 0 17.731 24">
  <g id="Group_2582" data-name="Group 2582">
    <g id="Group_2581" data-name="Group 2581">
      <path id="Path_1944" data-name="Path 1944" d="M56.946,0a8.876,8.876,0,0,1,8.866,8.866,10.229,10.229,0,0,1-.752,3.413A14.3,14.3,0,0,1,64.035,14.2l-6.079,9.21a1.156,1.156,0,0,1-2.02,0L49.856,14.2a14.238,14.238,0,0,1-1.025-1.917,10.226,10.226,0,0,1-.751-3.413A8.876,8.876,0,0,1,56.946,0ZM49.793,11.874a13.1,13.1,0,0,0,.934,1.747l6.079,9.211c.12.182.158.182.278,0l6.079-9.211a13.106,13.106,0,0,0,.934-1.748,9.285,9.285,0,0,0,.671-3.008,7.823,7.823,0,0,0-15.645,0A9.293,9.293,0,0,0,49.793,11.874Z" transform="translate(-48.08)"/>
      <path id="Path_1945" data-name="Path 1945" d="M116.708,64.008a4.769,4.769,0,1,1-4.628,4.767A4.7,4.7,0,0,1,116.708,64.008Zm0,8.475a3.71,3.71,0,1,0-3.6-3.708A3.659,3.659,0,0,0,116.708,72.483Z" transform="translate(-107.842 -59.877)"/>
    </g>
  </g>
</svg>
