<svg id="gear" xmlns="http://www.w3.org/2000/svg" width="24" height="24.001" viewBox="0 0 24 24.001">
  <path id="Path_2204" data-name="Path 2204" d="M129.308-583.95a2.181,2.181,0,0,1,.994.581,2.162,2.162,0,0,1,.652,1.641v.408l.291.108c.164.056.506.2.764.309l.464.206.263-.253a2.27,2.27,0,0,1,2.227-.661c.478.127.75.323,1.528,1.1s.97,1.05,1.1,1.528a2.27,2.27,0,0,1-.661,2.227l-.253.263.206.464c.113.258.253.6.309.759l.108.3h.408a2.186,2.186,0,0,1,1.645.652c.544.548.652.923.652,2.3s-.108,1.753-.652,2.3a2.186,2.186,0,0,1-1.645.652H137.3l-.108.291c-.056.164-.2.506-.309.764l-.206.464.253.263a2.27,2.27,0,0,1,.661,2.227c-.127.478-.323.75-1.1,1.528s-1.05.97-1.528,1.1a2.27,2.27,0,0,1-2.227-.661l-.263-.253-.464.206c-.258.112-.6.253-.764.309l-.291.108v.408a2.162,2.162,0,0,1-.652,1.641c-.562.553-.919.656-2.3.656s-1.753-.108-2.3-.652a2.186,2.186,0,0,1-.652-1.645v-.408l-.3-.108c-.159-.056-.5-.2-.759-.309l-.464-.206-.262.253a2.27,2.27,0,0,1-2.227.661c-.488-.131-.713-.291-1.5-1.078s-.994-1.064-1.12-1.547a2.28,2.28,0,0,1,.661-2.231l.258-.258-.159-.352c-.089-.192-.23-.53-.314-.759l-.155-.408h-.4a2.141,2.141,0,0,1-1.645-.652c-.553-.562-.656-.919-.656-2.3s.1-1.739.656-2.3a2.142,2.142,0,0,1,1.645-.652h.4l.108-.3c.056-.159.2-.5.309-.759l.206-.464-.253-.263a2.269,2.269,0,0,1-.661-2.227c.127-.483.319-.75,1.12-1.547s1.017-.947,1.5-1.078a2.24,2.24,0,0,1,2.17.609l.323.3.464-.2c.253-.112.6-.253.755-.309l.3-.108v-.408a2.186,2.186,0,0,1,.652-1.645,2.149,2.149,0,0,1,1.022-.581A11.371,11.371,0,0,1,129.308-583.95Zm-2.419,1.43a.72.72,0,0,0-.319.3c-.108.188-.117.244-.117.863,0,.741-.056.98-.277,1.125a5.3,5.3,0,0,1-.731.286,9.964,9.964,0,0,0-1.256.525,4.257,4.257,0,0,1-.764.323c-.234,0-.469-.155-.928-.609-.488-.478-.623-.562-.9-.562s-.408.089-1.064.736c-.67.666-.787.83-.787,1.106s.084.412.563.9c.459.464.609.694.609.933a3.4,3.4,0,0,1-.277.67,9.25,9.25,0,0,0-.661,1.6c-.2.675-.333.75-1.322.75-.619,0-.675.009-.863.117-.352.206-.394.366-.394,1.43s.042,1.223.394,1.43c.188.108.244.117.863.117,1.008,0,1.116.066,1.345.82a10.843,10.843,0,0,0,.722,1.711c.309.572.258.741-.417,1.425-.478.487-.562.623-.562.9s.089.408.736,1.064c.666.67.83.787,1.106.787s.413-.084.9-.563c.689-.68.853-.727,1.425-.417a10.7,10.7,0,0,0,1.716.727c.75.225.816.333.816,1.341,0,.619.009.675.117.863.206.352.366.394,1.43.394s1.223-.042,1.43-.394c.108-.187.117-.244.117-.863,0-.966.084-1.13.68-1.3a11.254,11.254,0,0,0,1.678-.68,3.452,3.452,0,0,1,.675-.281c.23,0,.464.155.923.609.488.478.623.563.9.563s.408-.089,1.073-.741.778-.82.778-1.106-.084-.413-.562-.9c-.459-.464-.609-.694-.609-.928a4.112,4.112,0,0,1,.323-.764,11.069,11.069,0,0,0,.525-1.256,4.538,4.538,0,0,1,.286-.731c.145-.22.384-.277,1.125-.277.619,0,.675-.009.863-.117.352-.206.394-.366.394-1.43s-.042-1.223-.394-1.43c-.187-.108-.244-.117-.863-.117-.741,0-.98-.056-1.125-.277a5.153,5.153,0,0,1-.286-.727,12.219,12.219,0,0,0-.52-1.261,4.184,4.184,0,0,1-.328-.769c0-.23.155-.464.609-.923.478-.488.563-.623.563-.9s-.117-.45-.778-1.106-.792-.741-1.073-.741-.408.084-.9.563c-.459.455-.694.609-.923.609a4.186,4.186,0,0,1-.769-.328,12.216,12.216,0,0,0-1.261-.52,5.158,5.158,0,0,1-.727-.286c-.22-.145-.277-.384-.277-1.125,0-.619-.009-.675-.117-.858a.745.745,0,0,0-.314-.3c-.183-.089-.281-.1-1.111-.1S127.072-582.609,126.889-582.52Z" transform="translate(-116 584.026)"/>
  <path id="Path_2205" data-name="Path 2205" d="M269.111-438.728a6.343,6.343,0,0,1,4.821,4.566,4.668,4.668,0,0,1,.147,1.594,4.668,4.668,0,0,1-.147,1.594,6.408,6.408,0,0,1-4.5,4.5,4.668,4.668,0,0,1-1.594.147,4.668,4.668,0,0,1-1.594-.147,6.408,6.408,0,0,1-4.5-4.5,4.668,4.668,0,0,1-.147-1.594,4.667,4.667,0,0,1,.147-1.594,6.371,6.371,0,0,1,4.481-4.487A7.517,7.517,0,0,1,269.111-438.728Zm-2.328,1.7a4.545,4.545,0,0,0-3.521,4.465,4.53,4.53,0,0,0,4.578,4.578,4.4,4.4,0,0,0,3.261-1.362,4.389,4.389,0,0,0,1.317-3.216,4.563,4.563,0,0,0-3.492-4.465A5.258,5.258,0,0,0,266.782-437.033Z" transform="translate(-255.839 444.573)"/>
</svg>
