<svg id="Customer_Service" data-name="Customer Service" xmlns="http://www.w3.org/2000/svg" width="24.038" height="24" viewBox="0 0 24.038 24">
  <path id="Path_1919" data-name="Path 1919" d="M47.846-593.846c.033.008.23.034.438.063s.518.075.689.113c.275.059.447.1,1.023.264.134.038.367.117.5.172.046.021.184.075.309.121a11.187,11.187,0,0,1,2.542,1.516,15.1,15.1,0,0,1,1.607,1.717,5.955,5.955,0,0,1,.363.515.646.646,0,0,0,.1.159c.05.075.117.172.142.218.088.147.538,1.081.618,1.277.129.331.146.356.346.482a3.092,3.092,0,0,1,1.185,1.487,2.936,2.936,0,0,1-.113,2.379,3.006,3.006,0,0,1-2.462,1.692l-.334.013v-6.073l.092-.013c.159-.025.146-.054-.263-.787a9.8,9.8,0,0,0-1.331-1.713,10.044,10.044,0,0,0-1.494-1.2c-.488-.289-.647-.377-.947-.523a8.414,8.414,0,0,0-3.255-.85,9.122,9.122,0,0,0-2.529.172.918.918,0,0,1-.2.038,1.086,1.086,0,0,0-.246.059c-.1.029-.309.1-.472.147a9.178,9.178,0,0,0-2.692,1.445,9.848,9.848,0,0,0-1.736,1.809,1.267,1.267,0,0,1-.1.142,1.68,1.68,0,0,0-.125.188,1.939,1.939,0,0,1-.121.188,3.529,3.529,0,0,0-.3.532l-.163.31.1.038.1.042-.008,3.024-.013,3.028-.313-.013a2.875,2.875,0,0,1-1.836-.842,2.9,2.9,0,0,1-.906-2.014,2.677,2.677,0,0,1,.326-1.533,2.327,2.327,0,0,1,.534-.725,3.484,3.484,0,0,1,.534-.461c.163-.1.2-.147.346-.528.075-.184.467-.976.584-1.173.067-.117.138-.234.15-.268a11.247,11.247,0,0,1,1.394-1.763A11.263,11.263,0,0,1,41.9-592.51a11.092,11.092,0,0,1,2.609-1.06,6.438,6.438,0,0,1,.843-.176c.159-.021.422-.054.584-.08C46.206-593.858,47.687-593.875,47.846-593.846Z" transform="translate(-34.909 593.861)"/>
  <path id="Path_1920" data-name="Path 1920" d="M143.719-520.67a6.586,6.586,0,0,1,2.865,1.114,7.571,7.571,0,0,1,2.066,2.236,6.482,6.482,0,0,1,.837,3.179,6.615,6.615,0,0,1-2.374,5.088,7.122,7.122,0,0,1-1.791,1.072c-.125.05-.267.109-.312.126a8.207,8.207,0,0,1-1.416.331,8.311,8.311,0,0,1-1.708,0,6.932,6.932,0,0,1-1.4-.335.352.352,0,0,0-.121-.038,3.376,3.376,0,0,1-.683-.3,6.856,6.856,0,0,1-2.645-2.383,6.385,6.385,0,0,1-.583-1.139.206.206,0,0,0-.033-.1,6.939,6.939,0,0,1-.342-1.21,7.864,7.864,0,0,1-.029-1.952c.037-.193.075-.41.087-.477a4.3,4.3,0,0,1,.146-.586c.021-.046.1-.243.167-.44a6.675,6.675,0,0,1,1.9-2.659,2.668,2.668,0,0,0,.25-.218,9.606,9.606,0,0,1,1.583-.892l.25-.092A6.848,6.848,0,0,1,143.719-520.67Zm-2.124,1.118a9.26,9.26,0,0,0-1.1.343c-.037.021-.192.1-.341.172a5.743,5.743,0,0,0-2.595,2.764,6.477,6.477,0,0,0-.367,1.173,9.147,9.147,0,0,0,0,1.968,7.6,7.6,0,0,0,.242.859,7.79,7.79,0,0,0,.491,1.005.874.874,0,0,1,.108.176,5.582,5.582,0,0,0,.845.988,4.078,4.078,0,0,0,.816.616.041.041,0,0,1,.042.033,5.137,5.137,0,0,0,1.166.561,4.816,4.816,0,0,0,1.832.285,5.327,5.327,0,0,0,2.532-.561,5.579,5.579,0,0,0,2.524-2.517,4.707,4.707,0,0,0,.566-2.458,4.181,4.181,0,0,0-.267-1.684,5.832,5.832,0,0,0-3.586-3.535,5,5,0,0,0-1.124-.264A8.289,8.289,0,0,0,141.595-519.552Z" transform="translate(-130.68 523.806)"/>
  <path id="Path_1921" data-name="Path 1921" d="M30.26-216.828c.171.1.422.247.559.335a1.924,1.924,0,0,0,.263.163c.021,0,.647.461.681.5.013.013.113.1.23.193a9.1,9.1,0,0,1,1.745,1.968,12.385,12.385,0,0,1,.822,1.6.714.714,0,0,0,.058.184,6.2,6.2,0,0,1,.234.766,7.11,7.11,0,0,1,.25,2.345c-.046.054-1.4.063-11.986.063H11.185l-.05-.088a7.5,7.5,0,0,1,.28-2.4,7.508,7.508,0,0,1,.4-1.131,8.867,8.867,0,0,1,.86-1.571c.025-.033.134-.176.238-.318a10.246,10.246,0,0,1,3.215-2.651,2.064,2.064,0,0,1,.28-.13,2.9,2.9,0,0,1,.372.293,3.6,3.6,0,0,0,.367.293.782.782,0,0,1,.175.126,11.113,11.113,0,0,0,2.025,1.131c.046.017.159.063.25.1.175.071.685.23,1.065.331a9.794,9.794,0,0,0,3.1.285,8.1,8.1,0,0,0,1.386-.163c.092-.025.271-.067.4-.092a9.866,9.866,0,0,0,1.44-.465c.142-.054,1.123-.54,1.211-.595a10.783,10.783,0,0,0,1.532-1.1.725.725,0,0,1,.188-.142A3.139,3.139,0,0,1,30.26-216.828Zm-14.291,1.072a8.976,8.976,0,0,0-2.213,2.069,4.9,4.9,0,0,0-.363.523.208.208,0,0,1-.058.1,8.814,8.814,0,0,0-.605,1.185,5.938,5.938,0,0,0-.455,1.96l.013.23,10.771.008c6.258.008,10.8,0,10.83-.025.05-.033.05-.088,0-.369a10.158,10.158,0,0,0-.25-1.081,7.457,7.457,0,0,0-.413-1.026,11.877,11.877,0,0,0-.831-1.336,10.8,10.8,0,0,0-1.574-1.579c-.184-.134-.342-.255-.355-.268a2.726,2.726,0,0,0-.53-.3c-.067-.017-.146.017-.271.113-.184.138-.614.423-.764.507l-.334.184a8.609,8.609,0,0,1-1.023.494c-.2.092-1.131.4-1.4.465a11.844,11.844,0,0,1-2.421.339,9.466,9.466,0,0,1-1.294,0,12.337,12.337,0,0,1-1.8-.268l-.438-.109a12.738,12.738,0,0,1-2.672-1.1c-.355-.214-.989-.641-1.085-.729C16.307-215.9,16.186-215.894,15.969-215.756Z" transform="translate(-11.103 232.708)"/>
</svg>
