<svg xmlns="http://www.w3.org/2000/svg" width="24" height="24" viewBox="0 0 24 24">
  <path id="language" d="M12,0A12,12,0,1,1,0,12,12,12,0,0,1,12,0ZM1.622,16.2l3.413.589A17.907,17.907,0,0,1,4.406,12.4H.81A11.126,11.126,0,0,0,1.622,16.2ZM23.19,12.4h-3.6a17.908,17.908,0,0,1-.628,4.393l3.413-.589A11.126,11.126,0,0,0,23.19,12.4Zm-.812-4.6-3.413-.589a17.908,17.908,0,0,1,.628,4.393h3.6A11.126,11.126,0,0,0,22.378,7.8ZM11.6,6.422a27.517,27.517,0,0,0-4.288.392L5.9,7.058A17.17,17.17,0,0,0,5.206,11.6H11.6Zm-4.424-.4a28.353,28.353,0,0,1,4.424-.4V.822c-2.293.22-4.285,2.32-5.414,5.376Zm5.224-.4a28.348,28.348,0,0,1,4.424.4l.99.171C16.685,3.14,14.693,1.04,12.4.821Zm4.288,1.192A27.51,27.51,0,0,0,12.4,6.422V11.6h6.394A17.17,17.17,0,0,0,18.1,7.058ZM18.794,12.4H12.4v5.178a27.517,27.517,0,0,0,4.288-.392l1.412-.244A17.17,17.17,0,0,0,18.794,12.4Zm-1.97,5.574a28.448,28.448,0,0,1-4.424.405v4.8c2.293-.221,4.285-2.32,5.414-5.376ZM11.6,18.38a28.446,28.446,0,0,1-4.424-.405l-.99-.171C7.315,20.86,9.307,22.96,11.6,23.179ZM7.312,17.186a27.51,27.51,0,0,0,4.288.392V12.4H5.206A17.17,17.17,0,0,0,5.9,16.942ZM4.406,11.6a17.907,17.907,0,0,1,.628-4.393L1.622,7.8A11.126,11.126,0,0,0,.81,11.6ZM2.026,6.914,5.3,6.35A11.03,11.03,0,0,1,8.48,1.37,11.253,11.253,0,0,0,2.026,6.914ZM15.52,1.37A11.03,11.03,0,0,1,18.7,6.35l3.271.564A11.253,11.253,0,0,0,15.52,1.37Zm6.454,15.716L18.7,17.65a11.03,11.03,0,0,1-3.182,4.98A11.253,11.253,0,0,0,21.974,17.086ZM8.48,22.63A11.03,11.03,0,0,1,5.3,17.65l-3.271-.564A11.253,11.253,0,0,0,8.48,22.63Zm0,0"/>
</svg>
