<svg id="_09-rating" data-name="09-rating" xmlns="http://www.w3.org/2000/svg" width="14.981" height="24" viewBox="0 0 14.981 24">
  <g id="linear_color" data-name="linear color">
    <path id="Path_1918" data-name="Path 1918" d="M115.366,18.477a1.706,1.706,0,0,1,.758.177,1.714,1.714,0,0,1,2.287-.762,1.714,1.714,0,0,1,2.1-.841V15.331l-2.239,1.176a.572.572,0,0,1-.83-.6l.683-3.975-2.891-2.816a.571.571,0,0,1,.317-.974l4.01-.583L121.345,4.3a.572.572,0,0,1,1,0l1.783,3.258,4.01.583a.571.571,0,0,1,.317.975l-2.891,2.816.683,3.975a.576.576,0,0,1-.83.6l-1.476-.776V22.07c.145-.19.278-.36.4-.51a2.74,2.74,0,0,1,2.647-1.074,3.664,3.664,0,0,1,1.343.477.575.575,0,0,1,.145.833l-4.652,5.984a.572.572,0,0,1-.9-.7l4.2-5.4a2.326,2.326,0,0,0-.325-.066,1.609,1.609,0,0,0-1.557.659c-.349.439-.821,1.066-1.4,1.863A.574.574,0,0,1,122.8,23.8V14.477a.572.572,0,0,0-1.144,0s0,6.134,0,6.154a.572.572,0,0,1-1.138,0c0-.019,0-1.963,0-1.963a.572.572,0,0,0-1.144,0v2.286a.572.572,0,0,1-1.144,0V19.429a.572.572,0,0,0-1.144,0v1.9a.572.572,0,0,1-1.144,0V20.191a.572.572,0,0,0-1.144,0v7.238a.572.572,0,0,1-1.144,0V20.191a1.717,1.717,0,0,1,1.716-1.714Zm6.862-5.714a1.717,1.717,0,0,1,1.715,1.677l.984.517-.537-3.13a.571.571,0,0,1,.164-.506L126.83,9.1l-3.146-.457a.572.572,0,0,1-.419-.291l-1.418-2.591-1.418,2.591a.572.572,0,0,1-.419.291l-3.146.457,2.276,2.217a.571.571,0,0,1,.164.506l-.537,3.13L120.579,14A1.718,1.718,0,0,1,122.228,12.763Z" transform="translate(-113.65 -4.001)"/>
  </g>
</svg>
