<svg id="logout" xmlns="http://www.w3.org/2000/svg" width="20.575" height="20.574" viewBox="0 0 20.575 20.574">
  <path id="Path_1069" data-name="Path 1069" d="M286.119,209.294h-8.144a.643.643,0,0,1,0-1.286h8.144a.643.643,0,0,1,0,1.286Zm0,0" transform="translate(-266.188 -199.649)"/>
  <path id="Path_1070" data-name="Path 1070" d="M400.647,135.687a.643.643,0,0,1-.454-1.1l2.76-2.76-2.76-2.76a.643.643,0,0,1,.91-.909l3.215,3.215a.643.643,0,0,1,0,.909L401.1,135.5A.639.639,0,0,1,400.647,135.687Zm0,0" transform="translate(-383.93 -122.828)"/>
  <path id="Path_1071" data-name="Path 1071" d="M6.858,20.582a1.767,1.767,0,0,1-.532-.08L1.168,18.784A1.73,1.73,0,0,1,0,17.153V1.722A1.716,1.716,0,0,1,1.715.008a1.768,1.768,0,0,1,.532.08L7.405,1.806a1.73,1.73,0,0,1,1.168,1.63V18.868A1.716,1.716,0,0,1,6.858,20.582ZM1.715,1.294a.43.43,0,0,0-.429.429V17.153a.446.446,0,0,0,.3.413l5.135,1.711a.466.466,0,0,0,.14.019.43.43,0,0,0,.429-.429V3.437a.446.446,0,0,0-.3-.413L1.854,1.313A.465.465,0,0,0,1.715,1.294Zm0,0" transform="translate(0 -0.008)"/>
  <path id="Path_1072" data-name="Path 1072" d="M38.67,6.866a.643.643,0,0,1-.643-.643V2.365a1.073,1.073,0,0,0-1.071-1.072H27.311a.643.643,0,1,1,0-1.286h9.644a2.359,2.359,0,0,1,2.357,2.358V6.223A.643.643,0,0,1,38.67,6.866Zm0,0" transform="translate(-25.596 -0.008)"/>
  <path id="Path_1073" data-name="Path 1073" d="M185.4,284.2h-3.429a.643.643,0,0,1,0-1.286H185.4a1.073,1.073,0,0,0,1.072-1.072v-3.858a.643.643,0,1,1,1.286,0v3.858A2.359,2.359,0,0,1,185.4,284.2Zm0,0" transform="translate(-174.045 -266.195)"/>
</svg>
