<svg xmlns="http://www.w3.org/2000/svg" width="19.936" height="24" viewBox="0 0 19.936 24">
  <path id="Path_1115" data-name="Path 1115" d="M40.951,14.082l-.061-.028c-.147-.067-.294-.13-.445-.188s-.331-.127-.5-.184c-.133-.044-.268-.085-.4-.125-.207-.06-.416-.114-.631-.162-.073-.015-.147-.03-.222-.043l-.051-.01c-.127-.025-.255-.047-.384-.066l-.037-.006h0l-.037,0c-.107-.016-.214-.031-.325-.044l-.378-.031a10.211,10.211,0,0,0-1.4,0l-.134.011-.062,0-.156.014c-.144.015-.286.035-.429.058l-.042.006c-.1.016-.195.034-.291.052s-.212.04-.317.063c-.2.046-.406.1-.6.155-.156.045-.31.094-.454.144l-.1.036c-.307.109-.611.233-.907.37l-.079.037v0a10.008,10.008,0,0,0-5.675,8.988c0,.088.006.174.011.26l.026.606H46.722l.027-.6c.006-.089.011-.177.011-.267A9.994,9.994,0,0,0,40.951,14.082ZM27.8,23.028a9.023,9.023,0,0,1,5.158-8.021l.1-.039.012-.011c.242-.111.492-.211.745-.3l.08-.029c.138-.048.275-.092.418-.132.178-.052.359-.1.54-.14.094-.02.188-.039.285-.057.077-.014.153-.029.231-.041l.038-.007c.139-.022.279-.042.418-.057l.318-.028a8.546,8.546,0,0,1,1.3,0l.31.026c.076.009.153.019.246.032l.112.016c.116.017.233.037.35.059l.055.01.193.038c.192.042.38.092.567.146.124.036.246.073.366.113q.228.076.45.165t.423.18l.024.011a9.24,9.24,0,0,1,3.027,2.212,10.255,10.255,0,0,1,1.518,2.376,11.016,11.016,0,0,1,.7,4.452H27.8ZM34.386,11.94c.073.031.148.057.224.084l.158.057c.061.023.122.046.185.066a6.171,6.171,0,0,0,1.8.281h.049a6.181,6.181,0,0,0,.628-.032c.07-.007.138-.018.207-.03l.152-.023c.086-.011.171-.024.261-.041.061-.013.121-.029.18-.045l.167-.042c.082-.02.165-.04.246-.065.051-.016.1-.035.149-.053l.134-.048c.1-.033.192-.067.288-.108.037-.016.074-.034.11-.051l.043-.021c.132-.059.263-.119.394-.189l.085-.051c.146-.083.292-.168.439-.269.076-.052.149-.11.222-.167L40.76,11a6.167,6.167,0,0,0,2.257-4.733l0-.052a6.21,6.21,0,0,0-12.409-.391l-.005.081c-.008.1-.014.205-.014.311A6.2,6.2,0,0,0,34.386,11.94ZM31.576,5.973l.006-.088a5.238,5.238,0,0,1,10.466.286l0,.051a5.24,5.24,0,0,1-1.912,4.035l-.231.176c-.052.042-.1.084-.168.129-.117.079-.241.151-.366.222l-.07.042c-.105.057-.216.107-.331.158l-.129.062c-.074.031-.152.057-.229.084l-.161.058c-.031.012-.063.024-.093.034-.06.018-.121.033-.182.048l-.194.05c-.042.011-.083.023-.12.031-.065.013-.131.021-.2.031l-.185.028c-.045.008-.09.016-.14.02-.162.017-.325.026-.491.028H36.8a5.216,5.216,0,0,1-1.557-.237c-.043-.014-.086-.031-.128-.047l-.183-.067c-.057-.02-.113-.039-.168-.062a5.233,5.233,0,0,1-3.2-4.828C31.564,6.134,31.571,6.053,31.576,5.973Z" transform="translate(-26.824 -0.002)"/>
</svg>
