<svg xmlns="http://www.w3.org/2000/svg" width="16.775" height="16.775" viewBox="0 0 16.775 16.775">
  <path id="Path_2534" data-name="Path 2534" d="M141.725,256.007c-1.013,0-1.525-.763-1.525-2.288a3.858,3.858,0,1,0-.929,2.466,2.719,2.719,0,0,0,2.454,1.347c3.05,0,3.05-2.87,3.05-3.813a8.388,8.388,0,1,0-2.556,6.029.765.765,0,0,0-1.068-1.1h0a6.863,6.863,0,1,1,2.1-4.932C143.25,255.429,142.866,256.007,141.725,256.007Zm-5.338,0a2.288,2.288,0,1,1,2.288-2.288A2.288,2.288,0,0,1,136.388,256.007Z" transform="translate(-128 -245.332)"/>
</svg>
