<svg id="surface1" xmlns="http://www.w3.org/2000/svg" width="19.2" height="24" viewBox="0 0 19.2 24">
  <path id="Path_1922" data-name="Path 1922" d="M591.393,363.484l.543.593-2.468,2.262a2.824,2.824,0,0,0-.912,2.077v9.851h-.8v-9.851a3.631,3.631,0,0,1,1.174-2.67Zm0,0" transform="translate(-587.75 -354.268)"/>
  <path id="Path_1923" data-name="Path 1923" d="M4.929,0H15.321a2,2,0,0,1,2,2V22a2,2,0,0,1-2,2H5.329v-.716A9.1,9.1,0,0,0,3.8,18.222a.4.4,0,0,1,.05-.5l2.8-2.8A1.3,1.3,0,0,0,6.55,13a1.346,1.346,0,0,0-1.789.138L.815,17.084.25,16.518l2.681-2.684V2A2,2,0,0,1,4.929,0ZM3.73,13.034l.465-.466a2.15,2.15,0,0,1,2.863-.189,2.1,2.1,0,0,1,.151,3.1L4.64,18.055A9.9,9.9,0,0,1,6.126,23.2h9.2a1.2,1.2,0,0,0,1.2-1.2V20.8H6.528V20h9.992V3.2H3.73ZM3.73,2.4h12.79V2a1.2,1.2,0,0,0-1.2-1.2H4.929A1.2,1.2,0,0,0,3.73,2Zm0,0" transform="translate(1.88)"/>
  <path id="Path_1924" data-name="Path 1924" d="M65.165,159.469h-1.61a.8.8,0,0,1-.8-.8v-1.61a.8.8,0,0,1,.8-.8h1.61a.8.8,0,0,1,.8.8v1.61A.8.8,0,0,1,65.165,159.469Zm0-2.415h-1.61v1.61h1.61Zm0,0" transform="translate(-48.379 -152.254)"/>
  <path id="Path_1925" data-name="Path 1925" d="M221.415,159.469H219.8a.8.8,0,0,1-.8-.8v-1.61a.8.8,0,0,1,.8-.8h1.61a.8.8,0,0,1,.8.8v1.61A.8.8,0,0,1,221.415,159.469Zm0-2.415H219.8v1.61h1.61Zm0,0" transform="translate(-208.613 -152.254)"/>
  <path id="Path_1926" data-name="Path 1926" d="M377.665,159.469h-1.61a.8.8,0,0,1-.8-.8v-1.61a.8.8,0,0,1,.8-.8h1.61a.8.8,0,0,1,.8.8v1.61A.8.8,0,0,1,377.665,159.469Zm0-2.415h-1.61v1.61h1.61Zm0,0" transform="translate(-368.858 -152.254)"/>
  <path id="Path_1927" data-name="Path 1927" d="M65.165,315.719h-1.61a.8.8,0,0,1-.8-.8V313.3a.8.8,0,0,1,.8-.8h1.61a.8.8,0,0,1,.8.8v1.61A.8.8,0,0,1,65.165,315.719Zm0-2.415h-1.61v1.61h1.61Zm0,0" transform="translate(-48.379 -304.507)"/>
  <path id="Path_1928" data-name="Path 1928" d="M65.165,471.969h-1.61a.8.8,0,0,1-.8-.8v-1.61a.8.8,0,0,1,.8-.8h1.61a.8.8,0,0,1,.8.8v1.61A.8.8,0,0,1,65.165,471.969Zm0-2.415h-1.61v1.61h1.61Zm0,0" transform="translate(-48.379 -456.761)"/>
  <path id="Path_1929" data-name="Path 1929" d="M221.415,315.719H219.8a.8.8,0,0,1-.8-.8V313.3a.8.8,0,0,1,.8-.8h1.61a.8.8,0,0,1,.8.8v1.61A.8.8,0,0,1,221.415,315.719Zm0-2.415H219.8v1.61h1.61Zm0,0" transform="translate(-208.613 -304.507)"/>
  <path id="Path_1930" data-name="Path 1930" d="M377.665,315.719h-1.61a.8.8,0,0,1-.8-.8V313.3a.8.8,0,0,1,.8-.8h1.61a.8.8,0,0,1,.8.8v1.61A.8.8,0,0,1,377.665,315.719Zm0-2.415h-1.61v1.61h1.61Zm0,0" transform="translate(-368.858 -304.507)"/>
  <path id="Path_1931" data-name="Path 1931" d="M221.415,471.969H219.8a.8.8,0,0,1-.8-.8v-1.61a.8.8,0,0,1,.8-.8h1.61a.8.8,0,0,1,.8.8v1.61A.8.8,0,0,1,221.415,471.969Zm0-2.415H219.8v1.61h1.61Zm0,0" transform="translate(-208.613 -456.761)"/>
  <path id="Path_1932" data-name="Path 1932" d="M65.165,628.219h-1.61a.8.8,0,0,1-.8-.8V625.8a.8.8,0,0,1,.8-.8h1.61a.8.8,0,0,1,.8.8v1.61A.8.8,0,0,1,65.165,628.219Zm0-2.415h-1.61v1.61h1.61Zm0,0" transform="translate(-48.379 -609.015)"/>
  <path id="Path_1933" data-name="Path 1933" d="M221.415,628.219H219.8a.8.8,0,0,1-.8-.8V625.8a.8.8,0,0,1,.8-.8h1.61a.8.8,0,0,1,.8.8v1.61A.8.8,0,0,1,221.415,628.219Zm0-2.415H219.8v1.61h1.61Zm0,0" transform="translate(-208.613 -609.015)"/>
  <path id="Path_1934" data-name="Path 1934" d="M266.68,843.75h-.8v.8h.8Zm0,0" transform="translate(-254.278 -822.165)"/>
</svg>
