<svg id="layer1" xmlns="http://www.w3.org/2000/svg" width="23.517" height="22.341" viewBox="0 0 23.517 22.341">
  <path id="Path_4549" data-name="Path 4549" d="M11.758,0l-.512.023L10.739.09l-.5.11L9.747.356l-.473.2L8.819.788l-.432.278-.406.312L7.6,1.722,7.255,2.1l-.312.406-.276.432L6.43,3.4l-.2.473-.156.489-.11.5-.067.51-.023.512.021.8.067.8.108.795.152.785.193.774.237.767.28.751.315.733.358.717.214.363.248.342.078.131.041.147,0,.149-.037.149-.073.133-.1.11-.129.08-.147.044L6.7,14.638l-1,.232-.99.273-.978.315-.962.351-.372.172-.349.211-.322.253-.292.287-.257.317L.958,17.4l-.177.37L.547,18.4l-.2.655L.2,19.725l-.11.671-.064.68L0,21.757l.023.165.071.154L.2,22.2l.142.09.158.048h.17l.158-.048.142-.09.108-.126.071-.154.023-.165.021-.606.057-.6.1-.6.135-.588.175-.583.209-.567.14-.287.177-.264.211-.237.241-.207.266-.175.287-.133.919-.34.93-.3.942-.26.955-.22.96-.181.271-.067.262-.11.237-.149.211-.188.177-.216.142-.246.1-.262.055-.276.016-.28-.032-.28-.076-.271-.117-.255-.154-.232-.186-.26-.161-.269-.328-.659-.292-.677-.255-.689-.218-.705L7.377,8.8l-.14-.723-.1-.728-.062-.733-.018-.737.023-.462.069-.457.11-.448.156-.434.2-.418.237-.4L8.123,2.9l.308-.342.344-.31.37-.276.4-.234.418-.2.434-.154.446-.113L11.3,1.2l.462-.023.462.023.457.069.446.113.434.154.42.2.4.234.37.276.344.31.308.342.276.372.237.4.2.418.156.434.113.448.069.457.021.462-.018.737-.062.733-.1.728-.138.723-.179.714-.218.705-.255.689-.292.677-.328.659-.161.269-.186.26-.154.232-.117.255-.076.271-.032.28.016.28.057.276.1.262.142.246.179.216.209.188.237.149.262.11.271.067.96.181.955.22.942.26.932.3.916.34.287.133.266.175.241.207.211.237.177.264.14.287.209.567.175.583.135.588.1.6.057.6.021.606.023.165.071.154.108.126.142.09.158.048h.17l.161-.048.14-.09.108-.126.071-.154.023-.165-.023-.682-.064-.68-.11-.673-.152-.664-.2-.655-.234-.638-.177-.37-.216-.347-.257-.317-.292-.287-.319-.253-.349-.211-.374-.172-.962-.351-.978-.315-.99-.273-1-.232-1.01-.191-.147-.044-.129-.08-.1-.11-.073-.133-.034-.149,0-.149.041-.147.078-.131.248-.342.214-.363.358-.717.317-.733.278-.751.237-.767.193-.774.152-.785.108-.795.067-.8.021-.8-.021-.512-.069-.51-.11-.5-.156-.489-.2-.473L16.85,2.94l-.273-.432L16.262,2.1l-.344-.379-.381-.344-.4-.312L14.7.788,14.243.551l-.473-.2L13.281.2l-.5-.11L12.27.023Z" fill="#919191"/>
</svg>
