<svg xmlns="http://www.w3.org/2000/svg" width="24" height="24.001" viewBox="0 0 24 24.001">
  <g id="smartphone" transform="translate(0)">
    <path id="Path_2536" data-name="Path 2536" d="M14.753,0H24.776a1.76,1.76,0,0,1,1.753,1.762V22.238A1.76,1.76,0,0,1,24.776,24H14.753A1.76,1.76,0,0,1,13,22.239V1.762A1.76,1.76,0,0,1,14.753,0Zm10.98,3.2H13.8V18.4H25.733ZM24.776.8H14.753a.961.961,0,0,0-.957.962V2.4H25.733V1.762A.961.961,0,0,0,24.776.8ZM14.753,23.2H24.776a.961.961,0,0,0,.957-.962V19.2H13.8v3.038A.961.961,0,0,0,14.753,23.2Z" transform="translate(-7.764)"/>
    <path id="Path_2537" data-name="Path 2537" d="M27.611,49A1.611,1.611,0,1,1,26,50.611,1.613,1.613,0,0,1,27.611,49Zm0,2.417a.806.806,0,1,0-.806-.806A.806.806,0,0,0,27.611,51.417Z" transform="translate(-15.611 -29.43)"/>
    <path id="Path_2538" data-name="Path 2538" d="M27.014,3.806H25.4A.4.4,0,0,1,25.4,3h1.611a.4.4,0,0,1,0,.806Z" transform="translate(-13.409 -1.792)"/>
    <path id="Path_2539" data-name="Path 2539" d="M32.806,3.806h-.4A.4.4,0,0,1,32.4,3h.4a.4.4,0,0,1,0,.806Z" transform="translate(-22.004 -1.792)"/>
    <path id="Path_2540" data-name="Path 2540" d="M56.269,4.394a.4.4,0,1,1,.57.57,3.864,3.864,0,0,0,0,5.458.4.4,0,1,1-.57.57A4.67,4.67,0,0,1,56.269,4.394Z" transform="translate(-54.905 -2.554)"/>
    <path id="Path_2541" data-name="Path 2541" d="M51.7,6.67a.4.4,0,0,1,.57.57,2.645,2.645,0,0,0,0,3.737.4.4,0,1,1-.57.57,3.451,3.451,0,0,1,0-4.876Z" transform="translate(-48.642 -3.913)"/>
    <path id="Path_2542" data-name="Path 2542" d="M.119,4.963a.4.4,0,0,1,.57-.57,4.67,4.67,0,0,1,0,6.6.4.4,0,0,1-.57-.57A3.864,3.864,0,0,0,.119,4.963Z" transform="translate(21.947 -2.554)"/>
    <path id="Path_2543" data-name="Path 2543" d="M5.213,6.394a.4.4,0,0,1,.57,0,3.451,3.451,0,0,1,0,4.876.4.4,0,0,1-.57-.57,2.645,2.645,0,0,0,0-3.737A.4.4,0,0,1,5.213,6.394Z" transform="translate(15.157 -3.748)"/>
  </g>
</svg>
