<svg xmlns="http://www.w3.org/2000/svg" width="23.38" height="23.862" viewBox="0 0 23.38 23.862">
  <g id="_024-person" data-name="024-person" transform="translate(-0.158 0.011)">
    <path id="Path_3346" data-name="Path 3346" d="M132.165,181.016a2.731,2.731,0,1,0,3.345,1.931A2.731,2.731,0,0,0,132.165,181.016Zm2.591,2.133a1.951,1.951,0,1,1-1.884-1.446A1.951,1.951,0,0,1,134.756,183.149Zm0,0" transform="translate(-123.644 -172.111)"/>
    <path id="Path_3347" data-name="Path 3347" d="M99.8,77.682a.39.39,0,0,0-.478-.276L94.8,78.619a.39.39,0,0,0,.1.767.4.4,0,0,0,.1-.013l4.524-1.212A.39.39,0,0,0,99.8,77.682Zm0,0" transform="translate(-89.755 -73.63)"/>
    <path id="Path_3348" data-name="Path 3348" d="M23.187,3.754a1.932,1.932,0,0,0-1.259-.8L15.01,1.73a1.957,1.957,0,0,0-1.1.132l-.117-.429A1.959,1.959,0,0,0,11.4.054L1.6,2.681A1.948,1.948,0,0,0,.225,5.071L4.868,22.4a1.95,1.95,0,0,0,1.881,1.448,1.973,1.973,0,0,0,.507-.067l4.572-1.225,6.44,1.139a1.948,1.948,0,0,0,2.258-1.584l2.98-16.9A1.928,1.928,0,0,0,23.187,3.754ZM6.165,22.913a1.16,1.16,0,0,1-.544-.711L.978,4.867A1.168,1.168,0,0,1,1.8,3.435L11.6.809a1.178,1.178,0,0,1,1.434.829L17.68,18.97a1.169,1.169,0,0,1-.827,1.434l-.707-2.637a4.292,4.292,0,0,0-5.255-3.035l-1.507.4A4.3,4.3,0,0,0,6.35,20.393l.707,2.637A1.167,1.167,0,0,1,6.165,22.913Zm1.644-.085L7.1,20.191a3.516,3.516,0,0,1,2.483-4.3l1.507-.4a3.5,3.5,0,0,1,4.3,2.483l.706,2.636ZM22.74,5.072,19.761,21.978a1.17,1.17,0,0,1-1.355.951l-4.8-.848,3.442-.924a1.949,1.949,0,0,0,1.382-2.39L14.112,2.625a1.174,1.174,0,0,1,.764-.128l6.917,1.221A1.168,1.168,0,0,1,22.74,5.072Zm0,0" transform="translate(0 0)"/>
  </g>
</svg>
