<svg xmlns="http://www.w3.org/2000/svg" fill="#fff" width="20.275" height="23.578" viewBox="0 0 20.275 23.578">
  <g id="bell" transform="translate(-9.414 -2.133)">
    <path id="Path_2550" data-name="Path 2550" d="M48.737,119.19A2.832,2.832,0,0,0,51.481,117H46A2.832,2.832,0,0,0,48.737,119.19Z" transform="translate(-29.186 -93.48)" />
    <path id="Path_2551" data-name="Path 2551" d="M35.941,8.016l-.033-.558V7.3C35.674,4.44,33.067,2.937,30.4,2.6A1.357,1.357,0,0,0,31.153.887a2.254,2.254,0,0,0-3.834,0A1.357,1.357,0,0,0,28.073,2.6c-2.68.334-5.282,1.835-5.524,4.694a.719.719,0,0,1-.012.159l-.033.559c-.258,4.4-.441,7.68-2.565,9.347H38.508C36.391,15.7,36.2,12.419,35.941,8.016Zm-8.25-6.662A1.223,1.223,0,0,1,28.647.268a1.907,1.907,0,0,1,1.682.259.981.981,0,0,1,.327,1.284,1.611,1.611,0,0,1-1.432.72,1.4,1.4,0,0,1-1.533-1.178Z" transform="translate(-9.719 2.314)" />
    <path id="Path_2552" data-name="Path 2552" d="M28.222,100H10.882a1.523,1.523,0,0,0,0,3.044h17.34a1.523,1.523,0,0,0,0-3.044Z" transform="translate(0 -79.918)" />
  </g>
</svg>
