<svg id="shop" xmlns="http://www.w3.org/2000/svg" width="15" height="13.097" viewBox="0 0 15 13.097">
  <g id="Group_2712" data-name="Group 2712">
    <path id="Path_1955" data-name="Path 1955" d="M249.225,263.75h2.065a1.026,1.026,0,0,1,1.025,1.025v1.584a1.026,1.026,0,0,1-1.025,1.025h-2.065a1.026,1.026,0,0,1-1.025-1.025v-1.584A1.026,1.026,0,0,1,249.225,263.75Zm-.28,2.609a.28.28,0,0,0,.28.28h2.065a.28.28,0,0,0,.28-.28v-1.584a.28.28,0,0,0-.28-.28h-2.065a.28.28,0,0,0-.28.28Z" transform="translate(-244.885 -256.654)" fill="#c00"/>
    <path id="Path_1956" data-name="Path 1956" d="M0,35.341a.341.341,0,0,1,.049-.181L2.28,31.237A.37.37,0,0,1,2.6,31.05h9.8a.363.363,0,0,1,.319.187l2.228,3.923a.372.372,0,0,1,.049.181,2.152,2.152,0,0,1-1.287,1.968v6.47a.369.369,0,0,1-.368.368H1.658a.369.369,0,0,1-.368-.368V37.355a.162.162,0,0,1,0-.04A2.158,2.158,0,0,1,0,35.341Zm12.189-3.552H2.814L1.07,34.857H13.93Zm-7.865,3.8a1.414,1.414,0,0,0,2.783,0Zm3.565,0a1.415,1.415,0,0,0,2.786,0Zm6.351,0H11.454a1.415,1.415,0,0,0,2.786,0ZM8.821,43.411h2.115V39.442a.524.524,0,0,0-.524-.524H9.342a.524.524,0,0,0-.524.524v3.969Zm-6.8,0H8.085V39.442a1.262,1.262,0,0,1,1.26-1.26h1.07a1.262,1.262,0,0,1,1.26,1.26v3.972h1.3V37.49c-.043,0-.086,0-.129,0a2.149,2.149,0,0,1-1.784-.95,2.15,2.15,0,0,1-3.568,0,2.144,2.144,0,0,1-3.562,0,2.149,2.149,0,0,1-1.784.95c-.043,0-.083,0-.126,0v5.922Zm.126-6.654a1.413,1.413,0,0,0,1.392-1.165H.757A1.421,1.421,0,0,0,2.152,36.757Z" transform="translate(0 -31.05)" fill="#c00"/>
  </g>
</svg>
