<svg xmlns="http://www.w3.org/2000/svg" width="20.747" height="20.747" viewBox="0 0 20.747 20.747">
  <g id="telephone" transform="translate(0)">
    <g id="Group_3046" data-name="Group 3046" transform="translate(13.796)">
      <path id="Path_2164" data-name="Path 2164" d="M319.056,6.955a.3.3,0,0,1-.3-.3A6.051,6.051,0,0,0,312.709.608a.3.3,0,0,1,0-.6,6.656,6.656,0,0,1,6.649,6.649A.3.3,0,0,1,319.056,6.955Z" transform="translate(-312.407 -0.004)"/>
      <path id="Path_2165" data-name="Path 2165" d="M317.243,57.209a.3.3,0,0,1-.3-.3,4.236,4.236,0,0,0-4.231-4.231.3.3,0,1,1,0-.6,4.841,4.841,0,0,1,4.836,4.836A.3.3,0,0,1,317.243,57.209Z" transform="translate(-312.407 -50.258)"/>
      <path id="Path_2166" data-name="Path 2166" d="M315.429,107.463a.3.3,0,0,1-.3-.3,2.421,2.421,0,0,0-2.418-2.418.3.3,0,1,1,0-.6,3.026,3.026,0,0,1,3.022,3.022A.3.3,0,0,1,315.429,107.463Z" transform="translate(-312.407 -100.512)"/>
    </g>
    <path id="Path_2167" data-name="Path 2167" d="M20.445,23.987v3.078a2.054,2.054,0,0,1-2.048,2.06q-.1,0-.194-.008a20.367,20.367,0,0,1-8.871-3.15A20.027,20.027,0,0,1,3.164,19.81,20.273,20.273,0,0,1,.009,10.916,2.053,2.053,0,0,1,1.871,8.688q.091-.008.183-.008H5.138a2.054,2.054,0,0,1,2.056,1.765,13.149,13.149,0,0,0,.719,2.883,2.049,2.049,0,0,1-.462,2.165l-1.306,1.3a16.433,16.433,0,0,0,6.168,6.156l1.306-1.3a2.059,2.059,0,0,1,2.169-.462,13.216,13.216,0,0,0,2.889.718A2.053,2.053,0,0,1,20.445,23.987Z" transform="translate(0 -8.377)" fill="#23a24d"/>
    <g id="Group_3047" data-name="Group 3047" transform="translate(0.906 1.209)">
      <path id="Path_2168" data-name="Path 2168" d="M26.912,38.948a.3.3,0,0,1-.29-.216,17.265,17.265,0,0,1-.615-3.1.854.854,0,0,1,.777-.911q.038,0,.075,0h2.47a.3.3,0,1,1,0,.6H26.86a.266.266,0,0,0-.193.09.24.24,0,0,0-.058.162,16.632,16.632,0,0,0,.593,2.986.3.3,0,0,1-.29.389Z" transform="translate(-26.004 -34.717)" fill="#177734"/>
      <path id="Path_2169" data-name="Path 2169" d="M359.18,385.461c-.007,0-.058,0-.082,0a17.237,17.237,0,0,1-3.08-.614.3.3,0,1,1,.173-.579,16.621,16.621,0,0,0,2.966.591h.028a.246.246,0,0,0,.17-.074.252.252,0,0,0,.073-.18v-2.466a.3.3,0,0,1,.3-.3h0a.3.3,0,0,1,.3.3V384.6a.856.856,0,0,1-.853.86Z" transform="translate(-341.4 -366.829)" fill="#177734"/>
    </g>
  </g>
</svg>
