<?xml version="1.0" encoding="UTF-8"?>
<svg xmlns="http://www.w3.org/2000/svg" xmlns:xlink="http://www.w3.org/1999/xlink" width="32px" height="26px" viewBox="0 0 31 26" version="1.1">
<g id="surface1">
<path style=" stroke:none;fill-rule:nonzero;fill:rgb(80.000001%,0%,0%);fill-opacity:1;" d="M 9.621094 0.152344 C 9.519531 0.210938 9.445312 0.308594 9.417969 0.425781 C 9.398438 0.578125 9.351562 0.726562 9.289062 0.867188 C 9.214844 1.035156 9.019531 1.617188 8.855469 2.167969 C 8.75 2.542969 8.621094 2.910156 8.464844 3.265625 C 8.402344 3.359375 7.664062 3.390625 5.355469 3.390625 C 2.445312 3.390625 2.300781 3.398438 1.78125 3.597656 C 1.058594 3.890625 0.488281 4.472656 0.203125 5.207031 L 0 5.761719 L 0 12.984375 C 0 20.121094 0 20.214844 0.191406 20.734375 C 0.425781 21.398438 0.90625 21.941406 1.53125 22.246094 L 2.078125 22.53125 L 19.34375 22.53125 L 19.371094 21.984375 L 19.398438 21.449219 L 10.894531 21.449219 C 2.871094 21.449219 2.382812 21.441406 2.085938 21.28125 C 1.730469 21.105469 1.445312 20.8125 1.273438 20.453125 C 1.117188 20.152344 1.109375 19.699219 1.109375 12.984375 C 1.109375 6.574219 1.125 5.800781 1.253906 5.527344 C 1.414062 5.164062 1.695312 4.871094 2.050781 4.699219 C 2.363281 4.53125 2.640625 4.523438 5.707031 4.523438 C 9.5 4.523438 9.28125 4.570312 9.554688 3.675781 C 9.648438 3.394531 9.769531 3.007812 9.832031 2.828125 C 9.898438 2.652344 10.027344 2.246094 10.121094 1.9375 C 10.183594 1.699219 10.265625 1.472656 10.367188 1.25 C 10.433594 1.164062 11.238281 1.136719 13.851562 1.136719 C 16.460938 1.136719 17.265625 1.164062 17.332031 1.25 C 17.433594 1.46875 17.515625 1.699219 17.578125 1.9375 C 17.671875 2.246094 17.800781 2.652344 17.867188 2.828125 C 17.929688 3.007812 18.058594 3.402344 18.152344 3.703125 C 18.21875 3.957031 18.335938 4.191406 18.503906 4.390625 C 18.660156 4.496094 19.289062 4.523438 22.003906 4.523438 C 25.503906 4.523438 25.566406 4.53125 26.074219 4.984375 C 26.546875 5.398438 26.546875 5.417969 26.59375 9.882812 L 26.640625 14.066406 L 27.65625 14.066406 L 27.65625 5.5 L 27.425781 5.03125 C 27.117188 4.378906 26.578125 3.867188 25.917969 3.59375 C 25.402344 3.398438 25.253906 3.386719 22.34375 3.386719 C 19.125 3.386719 19.183594 3.398438 19.085938 2.917969 C 19.058594 2.785156 18.984375 2.53125 18.929688 2.355469 C 18.660156 1.59375 18.578125 1.335938 18.421875 0.847656 C 18.144531 -0.0546875 18.457031 0.00390625 13.863281 0.00390625 C 10.359375 0 9.804688 0.0195312 9.621094 0.152344 Z M 9.621094 0.152344 "/>
<path style=" stroke:none;fill-rule:nonzero;fill:rgb(80.000001%,0%,0%);fill-opacity:1;" d="M 12.558594 6.359375 C 12.371094 6.417969 12.179688 6.460938 11.984375 6.488281 C 11.363281 6.699219 10.769531 6.972656 10.203125 7.308594 C 9.824219 7.597656 9.46875 7.917969 9.140625 8.265625 C 8.257812 9.140625 7.652344 10.261719 7.394531 11.484375 C 6.980469 13.253906 7.21875 14.683594 8.28125 16.6875 C 8.570312 17.074219 8.886719 17.441406 9.234375 17.777344 C 9.703125 18.304688 10.277344 18.730469 10.914062 19.027344 C 11.242188 19.203125 11.585938 19.351562 11.9375 19.46875 C 12.167969 19.5 12.398438 19.546875 12.621094 19.609375 C 14.070312 19.898438 15.570312 19.675781 16.875 18.980469 C 18.09375 18.324219 19.085938 17.3125 19.730469 16.074219 C 20.746094 14.144531 20.746094 11.828125 19.738281 9.894531 C 19.441406 9.261719 19.023438 8.695312 18.511719 8.226562 C 18.054688 7.695312 17.496094 7.269531 16.871094 6.972656 C 16.378906 6.734375 15.871094 6.539062 15.347656 6.390625 C 14.429688 6.179688 13.480469 6.167969 12.558594 6.359375 Z M 14.921875 9.207031 C 15.550781 9.367188 16.117188 9.714844 16.554688 10.203125 C 17.550781 11.171875 17.945312 12.621094 17.582031 13.972656 C 17.40625 14.640625 17.050781 15.246094 16.554688 15.722656 C 16.089844 16.230469 15.492188 16.597656 14.828125 16.773438 C 13.5 17.144531 12.078125 16.746094 11.125 15.730469 C 10.109375 14.742188 9.730469 13.25 10.148438 11.882812 C 10.308594 11.238281 10.652344 10.65625 11.136719 10.210938 C 12.109375 9.175781 13.574219 8.785156 14.921875 9.207031 Z M 14.921875 9.207031 "/>
<path style=" stroke:none;fill-rule:nonzero;fill:rgb(80.000001%,0%,0%);fill-opacity:1;" d="M 12.835938 10.375 C 11.804688 10.824219 11.121094 11.835938 11.082031 12.976562 C 11.117188 13.660156 11.363281 14.316406 11.792969 14.847656 C 12.3125 15.410156 13.027344 15.75 13.785156 15.796875 C 14.957031 15.796875 16.007812 15.058594 16.425781 13.945312 C 16.792969 12.910156 16.535156 11.75 15.761719 10.980469 C 14.984375 10.210938 13.84375 9.976562 12.835938 10.375 Z M 12.835938 10.375 "/>
<path style=" stroke:none;fill-rule:nonzero;fill:rgb(80.000001%,0%,0%);fill-opacity:1;" d="M 24.144531 14.847656 C 23.175781 15.097656 22.296875 15.625 21.605469 16.363281 C 20.546875 17.394531 19.945312 18.824219 19.945312 20.316406 C 19.945312 21.8125 20.546875 23.238281 21.605469 24.269531 C 22.9375 25.683594 24.914062 26.257812 26.777344 25.773438 C 27.769531 25.546875 28.671875 25.023438 29.371094 24.269531 C 30.765625 22.894531 31.328125 20.863281 30.847656 18.945312 C 30.621094 17.957031 30.109375 17.058594 29.382812 16.363281 C 28.664062 15.625 27.769531 15.089844 26.785156 14.820312 C 25.914062 14.628906 25.011719 14.636719 24.144531 14.847656 Z M 26.039062 18.335938 L 26.085938 19.699219 L 28.757812 19.792969 L 28.757812 20.828125 L 26.085938 20.921875 L 26.039062 22.285156 L 25.992188 23.644531 L 24.976562 23.644531 L 24.929688 22.285156 L 24.882812 20.921875 L 22.210938 20.828125 L 22.210938 19.792969 L 24.882812 19.699219 L 24.910156 18.429688 C 24.90625 17.964844 24.929688 17.5 24.976562 17.039062 C 25.003906 16.953125 25.171875 16.925781 25.503906 16.945312 L 25.992188 16.972656 Z M 26.039062 18.335938 "/>
</g>
</svg>
