<svg xmlns="http://www.w3.org/2000/svg" width="26.865" height="21.805" viewBox="0 0 26.865 21.805">
  <g id="Camera_1" transform="translate(-1.848)">
    <g id="photo-camera" transform="translate(1.848 0)">
      <g id="Group_5646" data-name="Group 5646">
        <path id="Path_3257" data-name="Path 3257" d="M0,52.822V64.676a3.281,3.281,0,0,0,3.279,3.279H23.587a3.281,3.281,0,0,0,3.279-3.279V52.822a3.121,3.121,0,0,0-3.12-3.12H19.381l-.1-.455a3.985,3.985,0,0,0-3.9-3.1H11.486a3.994,3.994,0,0,0-3.9,3.1l-.1.455H3.12A3.125,3.125,0,0,0,0,52.822Zm8.016-1.776a.668.668,0,0,0,.652-.521l.225-.976a2.652,2.652,0,0,1,2.593-2.056h3.887a2.652,2.652,0,0,1,2.593,2.056l.225.976a.674.674,0,0,0,.652.521h4.9a1.776,1.776,0,0,1,1.776,1.776V64.676a1.935,1.935,0,0,1-1.935,1.935H3.279a1.935,1.935,0,0,1-1.935-1.935V52.822A1.776,1.776,0,0,1,3.12,51.046h4.9Z" transform="translate(0 -46.15)" fill="#c00"/>
        <circle id="Ellipse_606" data-name="Ellipse 606" cx="0.899" cy="0.899" r="0.899" transform="translate(3.646 6.864)" fill="#c00"/>
        <path id="Path_3258" data-name="Path 3258" d="M133.841-263.734a3.563,3.563,0,0,0,.564.127,9.469,9.469,0,0,1,1.757.792,8.633,8.633,0,0,1,1.047.929,6.11,6.11,0,0,1,1.721,3.114,6.468,6.468,0,0,1-.874,5.035,8.71,8.71,0,0,1-.938,1.056,5.09,5.09,0,0,1-1.657,1.211,6.193,6.193,0,0,1-1.011.428,4.987,4.987,0,0,0-.674.137,6.39,6.39,0,0,1-4.2-.61,6.758,6.758,0,0,1-2.813-2.813,6.355,6.355,0,0,1-.009-5.981,5.2,5.2,0,0,1,1.211-1.621,4.874,4.874,0,0,1,1.621-1.211,8.855,8.855,0,0,1,1.5-.565A6.523,6.523,0,0,1,133.841-263.734Zm-2.331,2.759a3.285,3.285,0,0,0-1.611.965,3.694,3.694,0,0,0-1.011,3.651,3.571,3.571,0,0,0,1.011,1.693,3.554,3.554,0,0,0,1.7,1.02,3.694,3.694,0,0,0,3.651-1.011,3.653,3.653,0,0,0,.965-3.724,3.235,3.235,0,0,0-.974-1.621A3.669,3.669,0,0,0,131.51-260.976Z" transform="translate(-118.793 269.889)" fill="#c00"/>
        <path id="Path_3259" data-name="Path 3259" d="M171.715-221.633a2.849,2.849,0,0,1,1.73,2.522,3.122,3.122,0,0,1-.7,1.812,2.937,2.937,0,0,1-1.966.919,2.783,2.783,0,0,1-2.6-1.793A2.716,2.716,0,0,1,171.715-221.633Z" transform="translate(-156.901 231.675)" fill="#c00"/>
      </g>
    </g>
  </g>
</svg>
