<svg xmlns="http://www.w3.org/2000/svg" width="66.498" height="69.209" viewBox="0 0 66.498 69.209">
  <g id="Group_4166" data-name="Group 4166" transform="translate(-154 -131.622)">
    <g id="Group_3014" data-name="Group 3014" transform="translate(166.844 133.049)">
      <path id="Path_2145" data-name="Path 2145" d="M105.344,58.519h17.124c0-8.99,12.843-8.705,12.843-27.113a21.4,21.4,0,0,0-42.81,0C92.5,49.813,105.344,49.528,105.344,58.519Z" transform="translate(-92.501 -10.001)" fill="#ffc144" fill-rule="evenodd"/>
      <path id="Path_2146" data-name="Path 2146" d="M180.336,350H163.212a3.211,3.211,0,1,0,0,6.421h17.124a3.211,3.211,0,1,0,0-6.421Z" transform="translate(-150.369 -301.484)" fill="#6d91ac" fill-rule="evenodd"/>
      <path id="Path_2147" data-name="Path 2147" d="M182.5,395h17.124v5.708H182.5Z" transform="translate(-169.658 -340.063)" fill="#a7bdcd" fill-rule="evenodd"/>
      <path id="Path_2148" data-name="Path 2148" d="M199.625,435H182.5v2.854a2.862,2.862,0,0,0,2.854,2.854h11.416a2.862,2.862,0,0,0,2.854-2.854Z" transform="translate(-169.658 -374.356)" fill="#a7bdcd" fill-rule="evenodd"/>
      <g id="Group_3013" data-name="Group 3013" transform="translate(12.129 9.5)">
        <path id="Path_2149" data-name="Path 2149" d="M186.776,100.383a2.854,2.854,0,0,0,2.854-2.854,3.044,3.044,0,0,1,.629-1.659,25.435,25.435,0,0,1,3.048-3.435,9.421,9.421,0,0,0,2.028-3.031A9.272,9.272,0,1,0,177.5,85.85a2.854,2.854,0,1,0,5.708,0,3.567,3.567,0,1,1,6.865,1.37,3.69,3.69,0,0,1-.8,1.18,29.656,29.656,0,0,0-3.762,4.326,8.367,8.367,0,0,0-1.588,4.8A2.854,2.854,0,0,0,186.776,100.383Z" transform="translate(-177.501 -76.575)" fill="#fff" fill-rule="evenodd"/>
        <path id="Path_2150" data-name="Path 2150" d="M228.209,246.273a2.854,2.854,0,1,0-5.708,0h0a2.854,2.854,0,1,0,5.708,0Z" transform="translate(-216.08 -219.611)" fill="#fff" fill-rule="evenodd"/>
      </g>
    </g>
    <g id="Group_3015" data-name="Group 3015" transform="translate(154 131.622)">
      <path id="Path_2151" data-name="Path 2151" d="M105.333,0a22.881,22.881,0,0,0-6.021.8,1.427,1.427,0,1,0,.751,2.753,19.99,19.99,0,0,1,25.248,19.274c0,10.236-4.082,14.233-7.682,17.76-2.345,2.3-4.574,4.482-5.061,7.925H98.1c-.487-3.443-2.716-5.629-5.061-7.925-3.6-3.527-7.682-7.525-7.682-17.76a19.984,19.984,0,0,1,4.72-12.894A1.427,1.427,0,0,0,87.9,8.094a22.842,22.842,0,0,0-5.4,14.738c0,11.435,4.735,16.073,8.54,19.8,2.166,2.122,3.81,3.733,4.209,6.144a4.637,4.637,0,0,0,.094,8.792v3.08h-.357a1.427,1.427,0,0,0,0,2.854h.357v1.427a4.286,4.286,0,0,0,4.281,4.281h11.416a4.286,4.286,0,0,0,4.281-4.281V63.5h.357a1.427,1.427,0,1,0,0-2.854h-.357v-3.08a4.637,4.637,0,0,0,.094-8.792c.4-2.411,2.043-4.022,4.209-6.144,3.8-3.726,8.54-8.364,8.54-19.8A22.858,22.858,0,0,0,105.333,0Zm7.135,64.928a1.429,1.429,0,0,1-1.427,1.427H99.625A1.429,1.429,0,0,1,98.2,64.928V63.5h14.27ZM98.2,60.647V57.793h14.27v2.854Zm15.7-5.708H96.771a1.784,1.784,0,1,1,0-3.567h17.124a1.784,1.784,0,0,1,0,3.567Z" transform="translate(-72.084)"/>
      <path id="Path_2152" data-name="Path 2152" d="M14.209,152.854a1.427,1.427,0,0,0,0-2.854H10.927a1.427,1.427,0,0,0,0,2.854Z" transform="translate(-9.5 -128.595)"/>
      <path id="Path_2153" data-name="Path 2153" d="M25.855,250.191l-5.685,3.282a1.427,1.427,0,1,0,1.427,2.472l5.685-3.282a1.427,1.427,0,0,0-1.427-2.472Z" transform="translate(-18.036 -214.325)"/>
      <path id="Path_2154" data-name="Path 2154" d="M413.532,253.472l-5.685-3.282a1.427,1.427,0,0,0-1.427,2.472l5.685,3.282a1.427,1.427,0,1,0,1.427-2.472Z" transform="translate(-349.168 -214.324)"/>
      <path id="Path_2155" data-name="Path 2155" d="M437.212,150H433.93a1.427,1.427,0,0,0,0,2.854h3.282a1.427,1.427,0,0,0,0-2.854Z" transform="translate(-372.141 -128.595)"/>
      <path id="Path_2156" data-name="Path 2156" d="M407.135,33.134a1.42,1.42,0,0,0,.712-.192l5.685-3.282a1.427,1.427,0,1,0-1.427-2.472l-5.685,3.282a1.427,1.427,0,0,0,.715,2.663Z" transform="translate(-349.168 -23.145)"/>
      <path id="Path_2157" data-name="Path 2157" d="M27.282,30.47,21.6,27.188A1.427,1.427,0,1,0,20.17,29.66l5.685,3.282a1.427,1.427,0,0,0,1.427-2.472Z" transform="translate(-18.036 -23.144)"/>
      <path id="Path_2158" data-name="Path 2158" d="M182.874,88.087a25.561,25.561,0,0,1,2.869-3.216,10.792,10.792,0,0,0,2.336-3.49A10.7,10.7,0,1,0,167.5,77.276a4.281,4.281,0,0,0,8.562,0,2.14,2.14,0,1,1,4.121.82,2.255,2.255,0,0,1-.494.721,30.208,30.208,0,0,0-3.94,4.545,9.777,9.777,0,0,0-1.827,5.593,4.264,4.264,0,0,0,1.094,2.854,4.28,4.28,0,1,0,7.468,2.855h0a4.264,4.264,0,0,0-1.094-2.854,4.264,4.264,0,0,0,1.094-2.854A1.814,1.814,0,0,1,182.874,88.087Zm-4.749-3.144a27.761,27.761,0,0,1,3.583-4.108,5.088,5.088,0,0,0,1.11-1.639,5,5,0,1,0-9.609-1.92,1.427,1.427,0,1,1-2.854,0,7.848,7.848,0,1,1,15.091,3,7.956,7.956,0,0,1-1.721,2.572,25.767,25.767,0,0,0-3.227,3.653,4.381,4.381,0,0,0-.868,2.449,1.427,1.427,0,0,1-2.854,0A6.969,6.969,0,0,1,178.125,84.943Zm1.5,9.721a1.427,1.427,0,1,1-1.427-1.428,1.429,1.429,0,0,1,1.427,1.428Z" transform="translate(-144.954 -57.074)"/>
      <path id="Path_2159" data-name="Path 2159" d="M153.225,26.391a1.427,1.427,0,1,0,0-2.854h0a1.427,1.427,0,1,0,0,2.854Z" transform="translate(-131.491 -20.178)"/>
    </g>
  </g>
</svg>
