<svg id="cancel" xmlns="http://www.w3.org/2000/svg" width="46.335" height="46.335" viewBox="0 0 46.335 46.335">
  <circle id="Ellipse_510" data-name="Ellipse 510" cx="23.056" cy="23.056" r="23.056" transform="translate(0 0)" fill="#f15249"/>
  <path id="Path_2185" data-name="Path 2185" d="M147.2,168.194l12.557,12.557a23.158,23.158,0,0,0,20.267-20.12L167.394,148Z" transform="translate(-133.689 -134.415)" fill="#ad0e0e"/>
  <path id="Path_2186" data-name="Path 2186" d="M148,141.4a2.749,2.749,0,0,1,0,3.818l-2.056,2.056a2.749,2.749,0,0,1-3.818,0l-16.155-16.155a2.749,2.749,0,0,1,0-3.818l2.13-2.13a2.749,2.749,0,0,1,3.818,0Z" transform="translate(-113.708 -112.981)" fill="#fff"/>
  <path id="Path_2187" data-name="Path 2187" d="M221.948,216,216,221.948l8.592,8.518a2.749,2.749,0,0,0,3.818,0l2.13-2.13a2.749,2.749,0,0,0,0-3.818Z" transform="translate(-196.173 -196.173)" fill="#d6d6d6"/>
  <path id="Path_2188" data-name="Path 2188" d="M142.126,125.971a2.749,2.749,0,0,1,3.818,0l2.13,2.13a2.749,2.749,0,0,1,0,3.818L131.846,148a2.749,2.749,0,0,1-3.818,0l-2.056-2.056a2.749,2.749,0,0,1,0-3.818Z" transform="translate(-113.708 -113.708)" fill="#fff"/>
</svg>
