<svg xmlns="http://www.w3.org/2000/svg" width="340.5" height="63.727" viewBox="0 0 340.5 63.727">
  <path id="Path_2082" data-name="Path 2082" d="M102.483-400.064l9.626,5.175H241.141c82.164.019,129.674.077,130.775.192,4.355.481,8.32,3.309,9.626,6.887.435,1.193.458,1.808.458,19.448,0,11.85-.092,18.506-.252,19.064-.871,3.174-4.171,6.137-7.953,7.118-1.467.385-2.521.385-161.738.385-158.644,0-160.294,0-161.715-.385a11.21,11.21,0,0,1-7.838-6.637l-.5-1.347v-36.165l.5-1.347a11.621,11.621,0,0,1,7.861-6.752c1.169-.327,2.75-.365,22.965-.423,17.327-.038,21.727-.1,21.727-.289,0-.135-.527-2.4-1.146-5.04-.642-2.635-1.123-4.848-1.1-4.925C92.857-405.162,97.211-402.892,102.483-400.064Z" transform="translate(-41.75 405.273)" fill="#e4e4e4" stroke="#707070" stroke-width="0.5"/>
</svg>
