<svg xmlns="http://www.w3.org/2000/svg" width="12.369" height="12.359" viewBox="0 0 12.369 12.359" fill="#c00">
  <g id="Close_X" transform="translate(-139 757.5)">
    <path id="Path_4076" data-name="Path 4076" d="M139.721-756.768l-.721.723,2.364,2.364,2.366,2.366-2.359,2.359L139.01-746.6l.728.728.728.728,2.359-2.359,2.359-2.359,2.359,2.359,2.359,2.359.728-.728.728-.728L149-748.956l-2.359-2.359,2.366-2.366,2.364-2.364-.728-.728-.728-.728-2.355,2.355c-1.293,1.293-2.364,2.353-2.374,2.353s-1.079-1.058-2.37-2.349-2.353-2.349-2.359-2.349S140.12-757.165,139.721-756.768Z" />
  </g>
</svg>
