<svg xmlns="http://www.w3.org/2000/svg" width="49.083" height="49.083" viewBox="0 0 49.083 49.083">
  <g id="trash_bin" data-name="trash bin" transform="translate(-50 440)">
    <path id="Path_2100" data-name="Path 2100" d="M71.474-439.885c0,.064-.332.153-.729.2a24.141,24.141,0,0,0-5.215,1.393c-.2.089-.588.256-.831.358A28.382,28.382,0,0,0,59.714-435a1.991,1.991,0,0,1-.511.371,37.018,37.018,0,0,0-4.193,4.308,37.816,37.816,0,0,0-2.48,4,24.5,24.5,0,0,0-2.211,7.056c-.051.409-.141.741-.2.741A19.324,19.324,0,0,0,50-415.459a19.327,19.327,0,0,0,.115,3.068c.064,0,.153.332.2.728a23.972,23.972,0,0,0,2.838,8.219,25.316,25.316,0,0,0,3.975,5.228,23.409,23.409,0,0,0,3.656,3.029,23.1,23.1,0,0,0,7.017,3.3c.4.115,1.035.281,1.406.384a11.161,11.161,0,0,0,1.534.269c.473.051.856.14.856.2a37.956,37.956,0,0,0,5.905,0,3.075,3.075,0,0,1,1.061-.256,16.969,16.969,0,0,0,3.553-.856,23.973,23.973,0,0,0,8-4.359,32.036,32.036,0,0,0,3.426-3.464c.2-.256.435-.55.524-.652a24.9,24.9,0,0,0,2.927-5c.115-.243.256-.55.307-.665a24.323,24.323,0,0,0,.805-2.467,14.13,14.13,0,0,0,.652-2.914,1.824,1.824,0,0,1,.2-.856,37.945,37.945,0,0,0,0-5.905,3.075,3.075,0,0,1-.256-1.061c-.077-.562-.2-1.278-.281-1.6-.23-.882-.984-3.285-1.112-3.541-.064-.128-.2-.435-.32-.677a22.85,22.85,0,0,0-3.4-5.56,29.928,29.928,0,0,0-3.758-3.771c-.754-.588-2.927-2.045-3.438-2.314a24.609,24.609,0,0,0-8.053-2.735c-.409-.051-.741-.141-.741-.2A19.311,19.311,0,0,0,74.541-440,19.312,19.312,0,0,0,71.474-439.885Zm9.318,8.653c1.035.09,1.457.345,1.611.984a1.287,1.287,0,0,1-.729,1.355c-.562.192-12.948.192-13.511,0a1.207,1.207,0,0,1,.371-2.314C69.429-431.283,79.872-431.308,80.792-431.232Zm5.1,4.512a3.242,3.242,0,0,1,1.38,1.317l.332.524-.064,2.377c-.026,1.3-.128,3.234-.2,4.295s-.23,3.272-.332,4.921-.256,3.86-.332,4.921-.179,2.838-.243,3.962c-.141,2.8-.46,3.592-1.751,4.359l-.614.371H65.019l-.6-.371a3.234,3.234,0,0,1-1.5-1.841,21.93,21.93,0,0,1-.268-2.812c-.077-1.24-.153-2.467-.192-2.723s-.128-1.5-.192-2.748c-.1-2.275-.217-4.065-.588-8.935-.1-1.406-.179-3.311-.179-4.231v-1.675l.409-.562a3.277,3.277,0,0,1,1.3-1.163c.371-.2,1.265-.217,11.3-.23C85.01-426.962,85.432-426.95,85.892-426.719Z" transform="translate(0 0)" fill="#c00"/>
    <path id="Path_2101" data-name="Path 2101" d="M159.689-318.841a.982.982,0,0,0-.371.256,13.772,13.772,0,0,0,.051,2.211c.077,1.138.23,3.387.332,5.011s.281,4.116.383,5.56.192,2.94.192,3.323.089,1.815.217,3.17c.2,2.416.217,2.48.524,2.595.435.166,17.741.089,17.895-.077.128-.128.358-2.889.729-8.82.1-1.687.256-3.873.332-4.857s.192-2.8.243-4.026.153-2.646.2-3.144c.141-1.457,1.138-1.329-10.494-1.316C164.444-318.956,159.83-318.9,159.689-318.841Zm5,3.144a1.051,1.051,0,0,1,.562.588c.153.435.2,13.817.064,14.546a1.31,1.31,0,0,1-1.227.895,1.468,1.468,0,0,1-.729-.332l-.4-.332.026-7.49.038-7.49.435-.294A.935.935,0,0,1,164.687-315.7Zm5.829.09a1.375,1.375,0,0,1,.511.6c.141.511.128,13.932-.013,14.444a1.3,1.3,0,0,1-1.2.895,1.44,1.44,0,0,1-.741-.371l-.422-.371v-7.35c0-7.171,0-7.35.256-7.631A1.085,1.085,0,0,1,170.516-315.607Zm5.752,0,.435.294.038,7.49.026,7.49-.4.332a1.468,1.468,0,0,1-.729.332,1.31,1.31,0,0,1-1.227-.895c-.141-.729-.089-14.111.064-14.546a1.446,1.446,0,0,1,1.15-.793A1.645,1.645,0,0,1,176.267-315.607Z" transform="translate(-95.322 -105.565)" fill="#d00"/>
  </g>
</svg>
