<svg xmlns="http://www.w3.org/2000/svg" width="20.231" height="24.355" viewBox="0 0 20.231 24.355">
  <g id="file" transform="translate(0)">
    <g id="Group_2982" data-name="Group 2982" transform="translate(0.392 0.395)">
      <path id="Path_2083" data-name="Path 2083" d="M57.151,15.077V28.962a2.1,2.1,0,0,1-2.1,2.1H40.581a2.1,2.1,0,0,1-2.1-2.1V9.6a2.1,2.1,0,0,1,2.1-2.1h9.006a1.578,1.578,0,0,1,1.117.463l5.986,6A1.578,1.578,0,0,1,57.151,15.077Z" transform="translate(-38.477 -7.5)" fill="#f9f8f9"/>
      <path id="Path_2084" data-name="Path 2084" d="M240.605,15.078V16h-5.488a3.006,3.006,0,0,1-3-3V7.5h.924a1.578,1.578,0,0,1,1.117.463l5.987,6A1.577,1.577,0,0,1,240.605,15.078Z" transform="translate(-221.931 -7.5)" fill="#e3e0e4"/>
      <path id="Path_2085" data-name="Path 2085" d="M42.159,31.066H40.581a2.1,2.1,0,0,1-2.1-2.1V9.6a2.1,2.1,0,0,1,2.1-2.1h1.578a2.1,2.1,0,0,0-2.1,2.1V28.962A2.1,2.1,0,0,0,42.159,31.066Z" transform="translate(-38.477 -7.5)" fill="#e3e0e4"/>
      <g id="Group_2980" data-name="Group 2980" transform="translate(2.52 0.143)">
        <path id="Path_2086" data-name="Path 2086" d="M95.287,143.289H88.78a.395.395,0,0,1,0-.789h6.507a.395.395,0,1,1,0,.789Z" transform="translate(-88.28 -135.542)" fill="#a29aa5"/>
        <path id="Path_2087" data-name="Path 2087" d="M95.287,323.289H88.78a.395.395,0,1,1,0-.789h6.507a.395.395,0,1,1,0,.789Z" transform="translate(-88.28 -306.073)" fill="#a29aa5"/>
        <path id="Path_2088" data-name="Path 2088" d="M98.563,203.289H86.78a.395.395,0,1,1,0-.789H98.563a.395.395,0,1,1,0,.789Z" transform="translate(-86.385 -192.385)" fill="#a29aa5"/>
        <path id="Path_2089" data-name="Path 2089" d="M98.563,263.289H86.78a.395.395,0,0,1,0-.789H98.563a.395.395,0,0,1,0,.789Z" transform="translate(-86.385 -249.229)" fill="#a29aa5"/>
        <path id="Path_2090" data-name="Path 2090" d="M268.885,17h-5.346a1.424,1.424,0,0,1-1.422-1.426V10.22a1.556,1.556,0,0,1,.462.32l5.987,6A1.569,1.569,0,0,1,268.885,17Z" transform="translate(-252.873 -10.22)" fill="#c00"/>
      </g>
      <g id="Group_2981" data-name="Group 2981" transform="translate(15.248 18.509)">
        <path id="Path_2092" data-name="Path 2092" d="M332.7,363.724a.789.789,0,0,1-1.116,0l-.949-.948-.949.948a.789.789,0,1,1-1.116-1.116l.948-.948-.948-.948a.789.789,0,1,1,1.116-1.116l.949.948.949-.948a.789.789,0,1,1,1.116,1.116l-.948.948.948.948A.789.789,0,0,1,332.7,363.724Z" transform="translate(-328.342 -359.365)" fill="#f9f8f9"/>
      </g>
    </g>
    <g id="Group_2983" data-name="Group 2983" transform="translate(0)">
      <path id="Path_2093" data-name="Path 2093" d="M31.529,7.891c.28,0,.267-.226.267-.519V3.351A2.707,2.707,0,0,1,34.23.787h5.7c.28,0,.506.036.506-.257A.519.519,0,0,0,39.933,0h-5.7a3.291,3.291,0,0,0-3.207,3.361v4A.519.519,0,0,0,31.529,7.891Z" transform="translate(-31.023)"/>
      <path id="Path_2094" data-name="Path 2094" d="M37.391,148.149h-3.87a1.712,1.712,0,0,1-1.71-1.71V131.895a.395.395,0,1,0-.789,0v14.545a2.5,2.5,0,0,0,2.5,2.5h3.87c.218,0-.385-.092-.385-.31S37.609,148.149,37.391,148.149Z" transform="translate(-31.023 -124.583)"/>
      <path id="Path_2095" data-name="Path 2095" d="M95.333,142.5H88.826a.395.395,0,0,0,0,.789h6.507a.395.395,0,0,0,0-.789Z" transform="translate(-85.411 -135.004)"/>
      <path id="Path_2096" data-name="Path 2096" d="M88.826,322.5a.395.395,0,1,0,0,.789h6.507a.395.395,0,1,0,0-.789Z" transform="translate(-85.411 -305.535)"/>
      <path id="Path_2097" data-name="Path 2097" d="M98.609,202.5H86.826a.395.395,0,1,0,0,.789H98.609a.395.395,0,0,0,0-.789Z" transform="translate(-83.516 -191.848)"/>
      <path id="Path_2098" data-name="Path 2098" d="M99,262.895a.394.394,0,0,0-.395-.395H86.826a.395.395,0,0,0,0,.789H98.609A.4.4,0,0,0,99,262.895Z" transform="translate(-83.516 -248.692)"/>
      <path id="Path_2099" data-name="Path 2099" d="M153.235,7.972a1.96,1.96,0,0,0-.576-1.393l-5.986-6a1.959,1.959,0,0,0-1.4-.579h-2.722a.395.395,0,1,0,0,.789h2.722a1.191,1.191,0,0,1,.26.03V5.894a1.821,1.821,0,0,0,1.817,1.82h5.064a1.189,1.189,0,0,1,.029.258c-.242,14.382.015,15.611,0,15.594H139.872a.395.395,0,0,0,0,.789h13.364Zm-6.91-2.078V1.348l5.564,5.576h-4.536A1.031,1.031,0,0,1,146.325,5.894Z" transform="translate(-133.772 0)"/>
    </g>
  </g>
</svg>
