<svg xmlns="http://www.w3.org/2000/svg" width="78.745" height="75.321" viewBox="0 0 78.745 75.321">
  <g id="email_1_" data-name="email (1)" transform="translate(0 -10.668)">
    <path id="Path_2531" data-name="Path 2531" d="M85.519,14.194,56.726,35.01,52,38.434a7.087,7.087,0,0,1-8.422,0L38.855,35.01,10.027,14.228a8.511,8.511,0,0,1,6.95-3.561H78.6A8.559,8.559,0,0,1,85.519,14.194Z" transform="translate(-8.418)" fill="#ffd54f"/>
    <g id="Group_3522" data-name="Group 3522" transform="translate(0 14.194)">
      <path id="Path_2532" data-name="Path 2532" d="M1.609,32.855,30.436,53.637,2.5,81.574A8.559,8.559,0,0,1,0,75.514V37.854A8.457,8.457,0,0,1,1.609,32.855Z" transform="translate(0 -32.821)" fill="#ffc107"/>
      <path id="Path_2533" data-name="Path 2533" d="M331.451,37.675V75.335a8.559,8.559,0,0,1-2.5,6.06L301.014,53.458l28.793-20.816A8.51,8.51,0,0,1,331.451,37.675Z" transform="translate(-252.706 -32.642)" fill="#ffc107"/>
    </g>
    <path id="Path_2534" data-name="Path 2534" d="M158.813,269.3c-2.273,0-3.424-1.712-3.424-5.136A8.662,8.662,0,1,0,153.3,269.7a6.1,6.1,0,0,0,5.509,3.023c6.847,0,6.847-6.443,6.847-8.559a18.83,18.83,0,1,0-5.738,13.534,1.718,1.718,0,0,0-2.4-2.462h0a15.406,15.406,0,1,1,4.711-11.072C162.237,268,161.374,269.3,158.813,269.3Zm-11.983,0a5.136,5.136,0,1,1,5.136-5.136A5.136,5.136,0,0,1,146.83,269.3Z" transform="translate(-107.458 -197.004)" fill="#d00"/>
    <path id="Path_2535" data-name="Path 2535" d="M61.383,162.348l-4.725,3.424a7.087,7.087,0,0,1-8.422,0l-4.725-3.424L15.574,190.285a8.558,8.558,0,0,0,6.06,2.5h8.645a22.23,22.23,0,0,1,44.333,0H83.26a8.559,8.559,0,0,0,6.06-2.5Z" transform="translate(-13.075 -127.338)" fill="#ffa000"/>
  </g>
</svg>
