<svg xmlns="http://www.w3.org/2000/svg" width="26.15" height="26.15" viewBox="0 0 26.15 26.15">
  <g id="facebook" transform="translate(0)">
    <path id="Path_2409" data-name="Path 2409" d="M26.15,13.075A13.075,13.075,0,1,1,13.075,0,13.075,13.075,0,0,1,26.15,13.075Zm0,0" transform="translate(0)" fill="#4a7aff"/>
    <path id="Path_2410" data-name="Path 2410" d="M150.52,97.617a13.058,13.058,0,0,0,12.456-13.07c0-.051,0-.1,0-.153l-9.043-9.082-9.669,10.149,5.372,5.4-2.477,3.382Zm0,0" transform="translate(-136.825 -71.48)" fill="#0053bf"/>
    <path id="Path_2411" data-name="Path 2411" d="M153.927,71.346v2.965s-3.387-.494-3.387,1.7v2.2H153.6l-.382,3.349H150.54v8.729h-3.387V81.558l-2.9-.055V78.209H147.1V75.683a4.31,4.31,0,0,1,3.5-4.447A9.794,9.794,0,0,1,153.927,71.346Zm0,0" transform="translate(-136.874 -67.513)" fill="#fff"/>
    <path id="Path_2412" data-name="Path 2412" d="M259.645,74.311V71.346a9.794,9.794,0,0,0-3.332-.11,5.145,5.145,0,0,0-.669.171V90.287h.614V81.558h2.677l.382-3.349h-3.059v-2.2C256.258,73.817,259.645,74.311,259.645,74.311Zm0,0" transform="translate(-242.579 -67.513)" fill="#dce1eb"/>
  </g>
</svg>
