<svg xmlns="http://www.w3.org/2000/svg" width="26.152" height="26.152" viewBox="0 0 26.152 26.152">
  <g id="google" transform="translate(0 0)">
    <path id="Path_1935" data-name="Path 1935" d="M56.03,303.238a12.931,12.931,0,0,1-19.63-3.325L37.249,296l3.763-.7a6.944,6.944,0,0,0,6.6,4.888,6.8,6.8,0,0,0,4.045-1.318l3.616.552Z" transform="translate(-34.541 -280.216)" fill="#59c36a"/>
    <path id="Path_1936" data-name="Path 1936" d="M264.413,369.567l-.751-3.816-3.616-.552A6.8,6.8,0,0,1,256,366.518V372.7A13.056,13.056,0,0,0,264.413,369.567Z" transform="translate(-242.924 -346.546)" fill="#00a66c"/>
    <g id="Connected_Home_1_" transform="translate(0 6.456)">
      <g id="Group_2576" data-name="Group 2576">
        <g id="Group_2575" data-name="Group 2575">
          <g id="Group_2574" data-name="Group 2574">
            <path id="Path_1937" data-name="Path 1937" d="M6.181,133.02a7.141,7.141,0,0,0,.291,2.007L1.859,139.64a12.714,12.714,0,0,1,0-13.24l3.7.637.911,3.975A7.14,7.14,0,0,0,6.181,133.02Z" transform="translate(0 -126.4)" fill="#ffda2d"/>
          </g>
        </g>
      </g>
    </g>
    <path id="Path_1938" data-name="Path 1938" d="M254.842,199.065a13.056,13.056,0,0,1-4.663,9.945l-4.367-4.367a6.78,6.78,0,0,0,2.13-2.513h-6.175a.759.759,0,0,1-.766-.766v-4.6a.759.759,0,0,1,.766-.766h12.1a.757.757,0,0,1,.751.628A12.994,12.994,0,0,1,254.842,199.065Z" transform="translate(-228.69 -185.989)" fill="#4086f4"/>
    <path id="Path_1939" data-name="Path 1939" d="M262.176,202.129a6.781,6.781,0,0,1-2.13,2.513l4.367,4.367a12.951,12.951,0,0,0,4.434-12.382A.757.757,0,0,0,268.1,196H256v6.129Z" transform="translate(-242.924 -185.989)" fill="#4175df"/>
    <path id="Path_1940" data-name="Path 1940" d="M56.244,3.652a.773.773,0,0,1-.215.567L52.75,7.483a.75.75,0,0,1-1,.077,6.854,6.854,0,0,0-4.137-1.379,6.944,6.944,0,0,0-6.6,4.888L36.4,6.456A12.923,12.923,0,0,1,55.968,3.085a.806.806,0,0,1,.276.567Z" transform="translate(-34.541)" fill="#ff641a"/>
    <path id="Path_1941" data-name="Path 1941" d="M260.137,7.56a.75.75,0,0,0,1-.077l3.279-3.264a.773.773,0,0,0,.215-.567.806.806,0,0,0-.276-.567A13.037,13.037,0,0,0,256,0V6.181A6.854,6.854,0,0,1,260.137,7.56Z" transform="translate(-242.924 0)" fill="#f03800"/>
  </g>
</svg>
