<svg xmlns="http://www.w3.org/2000/svg" width="23.146" height="24.989" viewBox="0 0 23.146 24.989">
  <path id="Path_3329" data-name="Path 3329" d="M30.142-472.858a5.141,5.141,0,0,0-2.861,1.528,5.219,5.219,0,0,0-1.166,1.74,4.385,4.385,0,0,0-.363,2,4.385,4.385,0,0,0,.363,2,5.518,5.518,0,0,0,2.845,2.911,6.036,6.036,0,0,0,1.411.4c.095.006-.954.028-2.337.05-2.739.039-2.872.05-3.876.413a7.157,7.157,0,0,0-4.551,5.271,24.4,24.4,0,0,0-.106,4.25c0,3.726,0,3.776.117,3.927a1.52,1.52,0,0,0,.268.268c.145.112.234.117,2.1.134l1.947.017.011-3.737c.017-3.67.017-3.737.134-3.887a.869.869,0,0,1,.647-.4.838.838,0,0,1,.8.351l.162.206.017,3.731.011,3.726H36.428l.011-3.731c.017-3.67.017-3.737.134-3.887a.869.869,0,0,1,.647-.4.838.838,0,0,1,.8.351l.162.206.017,3.731.011,3.731,1.947-.017c1.868-.017,1.958-.022,2.1-.134a1.519,1.519,0,0,0,.268-.268c.117-.151.117-.2.117-3.927a24.4,24.4,0,0,0-.106-4.25,7.157,7.157,0,0,0-4.551-5.271c-1.015-.363-1.132-.374-3.876-.407-2.32-.022-2.476-.033-2.086-.1a5.456,5.456,0,0,0,4-3.263,4.385,4.385,0,0,0,.363-2,4.385,4.385,0,0,0-.363-2,5.683,5.683,0,0,0-2.164-2.56A5.437,5.437,0,0,0,30.142-472.858ZM31.581-459.5a2.755,2.755,0,0,1,1.406.775,2.67,2.67,0,0,1-.5,4.116c-.429.273-.48.379-.519,1.054-.028.457-.056.608-.145.731a.8.8,0,0,1-.742.379.683.683,0,0,1-.53-.162c-.29-.218-.368-.435-.368-1.026a2.7,2.7,0,0,1,1.255-2.426c.4-.268.5-.43.5-.82a.8.8,0,0,0-.865-.865c-.524,0-.809.279-.892.865s-.368.865-.892.865a.661.661,0,0,1-.541-.173c-.312-.251-.39-.519-.312-1.06A2.672,2.672,0,0,1,31.581-459.5Zm-.095,8.087a.714.714,0,0,1,.452.781.713.713,0,0,1-.452.781.768.768,0,0,1-.781-.006.875.875,0,0,1-.033-1.556A.845.845,0,0,1,31.486-451.413Z" transform="translate(-19.5 472.938)" fill="#ffb5b5"/>
</svg>
