<svg xmlns="http://www.w3.org/2000/svg" width="67.648" height="127.834" viewBox="0 0 67.648 127.834">
  <g id="Group_5431" data-name="Group 5431" transform="translate(-3.002 9.72)" opacity="0.996">
    <g id="rotated-right-arrow-with-broken-line" transform="translate(70.65 26.258) rotate(90)">
      <g id="Group_2875" data-name="Group 2875" transform="translate(0 0)">
        <path id="Path_2011" data-name="Path 2011" d="M.357,1.708c2.38.6,5.118-.357,7.5-.6a.537.537,0,0,0,0-1.071,26.28,26.28,0,0,0-7.5.6C-.119.875-.119,1.589.357,1.708Z" transform="translate(53.439 58.094)" fill="#fff"/>
        <path id="Path_3117" data-name="Path 3117" d="M.357,1.708c2.38.6,5.118-.357,7.5-.6a.537.537,0,0,0,0-1.071,26.28,26.28,0,0,0-7.5.6C-.119.875-.119,1.589.357,1.708Z" transform="translate(69.448 56.312)" fill="#fff"/>
        <path id="Path_3118" data-name="Path 3118" d="M.357,1.708c2.38.6,5.118-.357,7.5-.6a.537.537,0,0,0,0-1.071,26.28,26.28,0,0,0-7.5.6C-.119.875-.119,1.589.357,1.708Z" transform="translate(83.509 54.98)" fill="#fff"/>
        <path id="Path_2012" data-name="Path 2012" d="M.148.769c1.666,1.666,4.285,2.023,6.427,1.9a.357.357,0,1,0,0-.714,15.07,15.07,0,0,1-3.332-.714C2.29.888,1.457.412.5.055.148-.183-.209.412.148.769Z" transform="translate(39.366 55.82)" fill="#fff"/>
        <path id="Path_2013" data-name="Path 2013" d="M.048.887a7.5,7.5,0,0,0,2.38,2.737A16.277,16.277,0,0,0,5.284,5.767a.3.3,0,1,0,.357-.476,15.9,15.9,0,0,1-2.5-2.38C2.309,2.077,1.714,1.006.881.173.524-.3-.19.292.048.887Z" transform="translate(26.969 46.418)" fill="#fff"/>
        <path id="Path_2014" data-name="Path 2014" d="M1.47,5.028A.481.481,0,1,0,2.3,4.552c-.238-.6-.6-1.309-.833-1.9A14.04,14.04,0,0,0,.995.268a.458.458,0,0,0-.833,0C-.434,1.577.756,3.719,1.47,5.028Z" transform="translate(23.166 34.898)" fill="#fff"/>
        <path id="Path_2015" data-name="Path 2015" d="M.138,3.213A16.279,16.279,0,0,0,.376,6.665c.119.6.833.6.833,0A26.9,26.9,0,0,0,1.328,3.57,9.727,9.727,0,0,0,1.209.357a.58.58,0,0,0-1.071,0A7.676,7.676,0,0,0,.138,3.213Z" transform="translate(21.286 21.836)" fill="#fff"/>
        <path id="Path_2016" data-name="Path 2016" d="M.962,7.494a24.021,24.021,0,0,1,1.666-3.57A9.426,9.426,0,0,0,4.176.591C4.295,0,3.462-.123,3.1.115A8.893,8.893,0,0,0,1.2,3.567,13.987,13.987,0,0,0,.01,7.137C-.109,7.851.844,8.089.962,7.494Z" transform="translate(23.317 7.082)" fill="#fff"/>
        <path id="Path_2017" data-name="Path 2017" d="M.614,5.152c.714-.833,1.428-1.785,2.142-2.5A5.284,5.284,0,0,1,4.065,1.7c.476-.238.714-.238,1.071-.714A.658.658,0,0,0,4.78.034C3.708-.2,2.756.867,2.042,1.581A14.7,14.7,0,0,0,.019,4.794C-.1,5.152.376,5.509.614,5.152Z" transform="translate(29.021 0.26)" fill="#fff"/>
        <path id="Path_2018" data-name="Path 2018" d="M.553,2.436A3.376,3.376,0,0,1,2.577,1.6c.6,0,1.309.119,1.785-.357a.575.575,0,0,0,0-.833C3.172-.777.791.889.077,1.841-.161,2.2.2,2.674.553,2.436Z" transform="translate(38.246 0)" fill="#fff"/>
        <path id="Path_2019" data-name="Path 2019" d="M.268.925a13.513,13.513,0,0,1,2.975.714A4.93,4.93,0,0,1,5.386,3.9a.652.652,0,0,0,1.19-.357C6.695.33,2.648-.266.268.091-.089.21-.089.925.268.925Z" transform="translate(46.149 4.011)" fill="#fff"/>
        <path id="Path_2020" data-name="Path 2020" d="M.019.529C.971,2.314.733,4.1,1.09,6a.5.5,0,0,0,.952,0A7.866,7.866,0,0,0,.614.172C.376-.185-.1.053.019.529Z" transform="translate(52.349 12.262)" fill="#fff"/>
        <path id="Path_2021" data-name="Path 2021" d="M.871,8.093c2.142-2.023,2.618-5,2.5-7.736,0-.476-.833-.476-.833,0A12.453,12.453,0,0,1,.157,7.379.505.505,0,1,0,.871,8.093Z" transform="translate(51.02 25.168)" fill="#fff"/>
        <path id="Path_2022" data-name="Path 2022" d="M.673,5.791A14.067,14.067,0,0,0,5.791.673C6.148.2,5.315-.279,5.077.2A46.086,46.086,0,0,1,.2,4.958C-.279,5.434.2,6.029.673,5.791Z" transform="translate(44.315 36.04)" fill="#fff"/>
        <path id="Path_2023" data-name="Path 2023" d="M.5,3.489c1.666,0,3.57-1.428,4.642-2.618A.5.5,0,1,0,4.432.157,7.819,7.819,0,0,1,2.409,1.585,19.418,19.418,0,0,0,.148,2.656C-.209,2.894.148,3.489.5,3.489Z" transform="translate(37.462 45.244)" fill="#fff"/>
        <path id="Path_2024" data-name="Path 2024" d="M.583,2.273A23.832,23.832,0,0,0,3.439,1.8,16.252,16.252,0,0,0,6.891.964.491.491,0,0,0,6.653.012,32.081,32.081,0,0,1,3.32.488,6.453,6.453,0,0,0,.345,1.2.558.558,0,0,0,.583,2.273Z" transform="translate(21.435 51.459)" fill="#fff"/>
        <path id="Path_2025" data-name="Path 2025" d="M.446,1.226a18.543,18.543,0,0,0,5.118-.119.418.418,0,1,0,0-.833A18.442,18.442,0,0,0,.446.155.545.545,0,0,0,.446,1.226Z" transform="translate(10.979 53.697)" fill="#fff"/>
        <path id="Path_2026" data-name="Path 2026" d="M.357,1.1a8.823,8.823,0,0,0,2.5.119A19.285,19.285,0,0,0,5.475,1.1a.477.477,0,0,0,0-.952A19.282,19.282,0,0,1,2.857.03a8.824,8.824,0,0,0-2.5.119C-.119.149-.119.863.357,1.1Z" transform="translate(0 53.226)" fill="#fff"/>
      </g>
    </g>
    <g id="click-2383" transform="translate(-33.74 -9.72)">
      <path id="Path_3372" data-name="Path 3372" d="M58.443,11.83h-.226a3.087,3.087,0,0,0-1.571.427A3.11,3.11,0,0,0,53.56,9.5h-.226a3.089,3.089,0,0,0-1.7.507,3.111,3.111,0,0,0-2.958-2.159h-.226a3.087,3.087,0,0,0-1.552.416V3.106A3.109,3.109,0,0,0,43.794,0h-.226a3.109,3.109,0,0,0-3.105,3.106V15.484l-1.611,1.223a5.331,5.331,0,0,0-.921,7.6l4.792,5.924v2.412a2.328,2.328,0,0,0,2.325,2.325H56.879A2.327,2.327,0,0,0,59.2,32.642V30.35a10.53,10.53,0,0,0,2.345-6.612v-8.8A3.109,3.109,0,0,0,58.443,11.83Zm1.552,11.908a8.975,8.975,0,0,1-2.137,5.8.777.777,0,0,0-.209.53v2.575a.771.771,0,0,1-.77.77H45.047a.772.772,0,0,1-.771-.77V29.955a.777.777,0,0,0-.173-.489l-4.965-6.138a3.777,3.777,0,0,1,.653-5.384l.671-.51v3.248a.777.777,0,1,0,1.554,0V3.106a1.553,1.553,0,0,1,1.551-1.552h.226a1.553,1.553,0,0,1,1.551,1.552v7.849h0l.005,6.529a.777.777,0,0,0,.777.777h0a.777.777,0,0,0,.777-.777L46.9,10.956A1.554,1.554,0,0,1,48.451,9.4h.226a1.554,1.554,0,0,1,1.552,1.552v1.652h0l.005,4.876a.777.777,0,0,0,.777.776h0a.777.777,0,0,0,.776-.778l-.005-4.876a1.553,1.553,0,0,1,1.551-1.552h.226a1.554,1.554,0,0,1,1.552,1.552v2.065a.706.706,0,0,0-.01.1l.005,2.712a.777.777,0,0,0,.777.776h0a.777.777,0,0,0,.775-.778l0-2.453a.742.742,0,0,0,.009-.093,1.553,1.553,0,0,1,1.551-1.552h.226A1.554,1.554,0,0,1,60,14.937v8.8Z" transform="translate(0)" fill="#fff"/>
    </g>
  </g>
</svg>
