<svg id="photo" xmlns="http://www.w3.org/2000/svg" fill="#a8a8a8" width="23.71" height="14.37" viewBox="0 0 23.71 14.37">
  <path id="Path_2473" data-name="Path 2473" d="M11.855,115.094a12.668,12.668,0,0,0-7.213,2.54,10.833,10.833,0,0,0-3.159,3.208,10.837,10.837,0,0,0,3.159,3.208,12.668,12.668,0,0,0,7.213,2.54,12.668,12.668,0,0,0,7.213-2.54,10.837,10.837,0,0,0,3.16-3.208,10.838,10.838,0,0,0-3.159-3.208,12.67,12.67,0,0,0-7.213-2.54m0-1.437c6.547,0,11.855,5.748,11.855,7.185s-5.308,7.185-11.855,7.185S0,122.279,0,120.842s5.308-7.185,11.855-7.185Zm0,2.874a4.311,4.311,0,1,1-4.311,4.311A4.311,4.311,0,0,1,11.855,116.531Zm1.161,4.311a1.824,1.824,0,1,0-1.824-1.824A1.824,1.824,0,0,0,13.016,120.842Z" transform="translate(0 -113.657)" />
</svg>
