<svg xmlns="http://www.w3.org/2000/svg" width="22.533" height="22.455" viewBox="0 0 22.533 22.455">
  <path id="home-svgrepo-com" d="M20.593,10.044a1.174,1.174,0,0,1-.87.394,1.148,1.148,0,0,1-.766-.29l-.394-.339v8.748a2.327,2.327,0,0,1-2.32,2.32h-2.9a.58.58,0,0,1-.58-.58V13.918a1.16,1.16,0,0,0-1.16-1.16H9.284a1.16,1.16,0,0,0-1.16,1.16V20.3a.58.58,0,0,1-.58.58h-2.9a2.327,2.327,0,0,1-2.32-2.32v-3.48c-.012-1.635-.012-3.781,0-5.254l-.394.325A1.16,1.16,0,1,1,.4,8.409L9.679.29a1.16,1.16,0,0,1,1.531,0l2.876,2.517a1.357,1.357,0,0,1,1-.487h1.16a1.284,1.284,0,0,1,1.16,1.16V5.8l3.085,2.61A1.16,1.16,0,0,1,20.593,10.044Z" transform="translate(0.79 0.828)" fill="none" stroke="#989898" stroke-width="1.5"/>
</svg>
