<svg xmlns="http://www.w3.org/2000/svg" width="68.623" height="74.317" viewBox="0 0 68.623 74.317">
  <g id="Screen_Shot_2021-08-13_at_4.04.45_PM" data-name="Screen Shot 2021-08-13 at 4.04.45 PM" transform="translate(-85.338 574.923)">
    <rect id="Rectangle_2505" data-name="Rectangle 2505" width="14.448" height="24.956" transform="translate(87.965 -528.502)" fill="#d00"/>
    <path id="Path_2127" data-name="Path 2127" d="M121.337-354.459a4.839,4.839,0,0,0-3.161,2.346,7.78,7.78,0,0,0-.66,2.36c-.73,4.284-1.447,5.563-4.874,8.7-1.868,1.7-2.514,2.023-4.439,2.234-1.4.155-1.419.155-1.644-.169a3.171,3.171,0,0,0-1.672-1.4,59.658,59.658,0,0,0-6.813-.127l-6.223.042-.506.337a3.861,3.861,0,0,0-.829.829l-.337.506-.042,10.816c-.028,7.431,0,11,.112,11.35a2.889,2.889,0,0,0,1.32,1.615,11.7,11.7,0,0,0,4.832.127,1.068,1.068,0,0,0,.534-1.292c-.154-.576-.815-.759-2.781-.759H92.428v.014h-.135l-.076-2.332h0v-10.114h0v-2.529h0v-3.048c0-2.585.028-3.076.225-3.259s.927-.225,6.012-.225c4.734,0,5.844.042,5.97.2.112.126.14,3.048.126,10.7l-.042,10.521-2.037.084c-1.124.042-7.5.042-7.514.042a1.191,1.191,0,0,0,.333,2.141,61.2,61.2,0,0,0,9.948-.273,2.764,2.764,0,0,0,1.32-1.489l.155-.478.927.1c1.194.126,1.9.506,3.47,1.924a8.183,8.183,0,0,0,4.116,2.234c.646.1,4.074.14,11.055.112l10.114-.042.632-.337a4.049,4.049,0,0,0,1.7-5.8l-.407-.646.478-.464a3.6,3.6,0,0,0,1.1-2.8,2.855,2.855,0,0,0-.421-1.854l-.435-.8.45-.435a4,4,0,0,0,.562-5.183c-.478-.674-.478-.688-.2-.941a5.292,5.292,0,0,0,.7-1.124,2.689,2.689,0,0,0,.379-1.84,4.1,4.1,0,0,0-2.346-3.582c-.646-.323-.688-.323-7-.365-3.5-.028-6.363-.084-6.363-.141s.253-.927.576-1.924a17.744,17.744,0,0,0,.969-6.911c0-2.669-.028-3.062-.3-3.751A4.712,4.712,0,0,0,121.337-354.459Zm2.374,2.543a2.678,2.678,0,0,1,.688.857c.281.548.295.745.225,3.751a16.784,16.784,0,0,1-1.363,7.375c-.534,1.6-.548,2.051-.014,2.641l.407.464,6.939.07c6.377.07,6.967.084,7.319.323a1.9,1.9,0,0,1,.323,3.02l-.506.52-3.175.07c-3.118.07-3.175.07-3.442.407a1,1,0,0,0,.042,1.377c.3.323.365.323,3.048.323,2.444,0,2.8.028,3.315.281a1.91,1.91,0,0,1,.253,3.329c-.323.211-.829.267-3.385.323-2.95.07-3.006.07-3.273.407A.973.973,0,0,0,131.17-325c.281.281.506.309,2.767.351,2.163.042,2.514.07,2.95.323a1.874,1.874,0,0,1-.155,3.329c-.393.211-.871.253-2.838.253-2.318,0-2.36,0-2.7.351a.971.971,0,0,0-.042,1.433c.3.309.393.323,2.346.323,2.346,0,3.048.211,3.442.969a2.365,2.365,0,0,1-.042,2.065c-.562.927-.211.9-11,.9-10.606,0-10.69,0-12.038-.8a12.194,12.194,0,0,1-1.587-1.25c-1.854-1.714-2.683-2.121-4.5-2.262l-1.1-.084v-17.475l1.391-.084c2.781-.183,4.06-.871,6.841-3.666a14.907,14.907,0,0,0,3.442-4.355,20.517,20.517,0,0,0,1.25-4.79,3.382,3.382,0,0,1,1.138-2.472A2.677,2.677,0,0,1,123.711-351.916Z" transform="translate(-3.13 -187.988)"/>
    <g id="Polygon_14" data-name="Polygon 14" transform="translate(103.187 -574.923)" fill="#ffbb4e">
      <path d="M 25.37173271179199 30.29152870178223 C 25.29585266113281 30.29153823852539 25.22058296203613 30.27318000793457 25.14801216125488 30.23695945739746 L 17.13241195678711 26.2366886138916 C 16.92548179626465 26.13341903686523 16.69386291503906 26.07883834838867 16.46260261535645 26.07883834838867 C 16.23134231567383 26.07883834838867 15.99972248077393 26.13341903686523 15.79280281066895 26.23667907714844 L 7.77719259262085 30.23695945739746 C 7.704632759094238 30.27316856384277 7.629352569580078 30.29152870178223 7.553442478179932 30.29152870178223 C 7.411122798919678 30.29152870178223 7.268632411956787 30.22500991821289 7.172282695770264 30.11357879638672 C 7.105562686920166 30.03642845153809 7.031782627105713 29.90506935119629 7.059152603149414 29.71739959716797 L 8.36240291595459 20.78338813781738 C 8.429192543029785 20.32551002502441 8.276632308959961 19.85396957397461 7.954322814941406 19.52199935913086 L 1.681132674217224 13.06056880950928 C 1.491422653198242 12.86516952514648 1.536392569541931 12.64345932006836 1.56453263759613 12.55719947814941 C 1.59267258644104 12.47094917297363 1.687102556228638 12.2653694152832 1.95554256439209 12.21943950653076 L 10.7894229888916 10.70789909362793 C 11.2491626739502 10.62922954559326 11.65210247039795 10.33520889282227 11.86728286743164 9.921379089355469 L 16.01898193359375 1.936949133872986 C 16.1066722869873 1.768309116363525 16.27251243591309 1.667619109153748 16.46260261535645 1.667619109153748 C 16.65268325805664 1.667619109153748 16.81852340698242 1.768299102783203 16.90621185302734 1.936949133872986 L 21.05793190002441 9.921388626098633 C 21.27311325073242 10.33520889282227 21.6760425567627 10.62922954559326 22.13578224182129 10.70789909362793 L 30.96966171264648 12.21943950653076 C 31.23810195922852 12.2653694152832 31.33253288269043 12.47093868255615 31.36067199707031 12.55719947814941 C 31.38881301879883 12.64344882965088 31.43378257751465 12.86516952514648 31.24407196044922 13.06056880950928 L 24.97087287902832 19.52199935913086 C 24.64855194091797 19.8539981842041 24.49601173400879 20.32554817199707 24.56281280517578 20.78339958190918 L 25.86605262756348 29.71739959716797 C 25.89342308044434 29.90501976013184 25.81964302062988 30.03636932373047 25.75293350219727 30.1135196685791 C 25.65656280517578 30.22497940063477 25.51405334472656 30.29151916503906 25.37173271179199 30.29152870178223 Z" stroke="none"/>
      <path d="M 16.46260261535645 2.167619705200195 L 12.31089210510254 10.15203857421875 C 12.02399253845215 10.70380973815918 11.48674201965332 11.09584999084473 10.87375259399414 11.20072937011719 L 2.039882659912109 12.71227836608887 C 2.039880752563477 12.7122802734375 2.039880752563477 12.71228218078613 2.039873123168945 12.71227836608887 L 8.313072204589844 19.17371940612793 C 8.742822647094727 19.61636924743652 8.946222305297852 20.24509811401367 8.857162475585938 20.85556793212891 L 7.553922653198242 29.78957939147949 L 15.56951332092285 25.78930854797363 C 15.84542274475098 25.65160942077637 16.15424346923828 25.57882881164551 16.46260261535645 25.57882881164551 C 16.77096176147461 25.57882881164551 17.07978248596191 25.65160942077637 17.35568237304688 25.78930854797363 L 25.37126922607422 29.7895679473877 C 25.37127304077148 29.78956604003906 25.37127685546875 29.7895622253418 25.37128257751465 29.78957939147949 L 24.06805229187012 20.8555793762207 C 23.97898292541504 20.24510955810547 24.182373046875 19.61637878417969 24.61213302612305 19.17370986938477 L 30.88532257080078 12.71228981018066 C 30.88532638549805 12.7122859954834 30.88531875610352 12.71227645874023 30.88533210754395 12.7122688293457 L 22.05146217346191 11.20073890686035 C 21.43847274780273 11.09584999084473 20.90122222900391 10.70381927490234 20.61431121826172 10.15205955505371 L 16.46260261535645 2.167619705200195 M 16.46260070800781 1.167613983154297 C 16.81285095214844 1.167613983154297 17.1630973815918 1.347169876098633 17.34982299804688 1.706279754638672 L 21.50154304504395 9.690719604492188 C 21.6458625793457 9.968269348144531 21.91176223754883 10.16229820251465 22.22011184692383 10.21505928039551 L 31.05399322509766 11.72659873962402 C 31.84712219238281 11.86230850219727 32.16332244873047 12.83151817321777 31.60281181335449 13.40885925292969 L 25.32961273193359 19.87028884887695 C 25.11326217651367 20.0931396484375 25.01273345947266 20.40386962890625 25.05757331848145 20.71121978759766 L 26.36081314086914 29.64522933959961 C 26.47740173339844 30.44443893432617 25.64741134643555 31.04498863220215 24.92474365234375 30.68433952331543 L 16.90914344787598 26.68406867980957 C 16.62798118591309 26.54374885559082 16.2972240447998 26.54374885559082 16.01606178283691 26.68406867980957 L 8.000463485717773 30.68433952331543 C 7.27778434753418 31.04499053955078 6.447803497314453 30.44443702697754 6.56439208984375 29.64522933959961 L 7.867631912231445 20.71121978759766 C 7.912471771240234 20.40386962890625 7.811943054199219 20.0931396484375 7.595592498779297 19.87030029296875 L 1.322393417358398 13.40885925292969 C 0.7618827819824219 12.83152961730957 1.078083038330078 11.86230850219727 1.871212005615234 11.72659873962402 L 10.70509338378906 10.21505928039551 C 11.01344299316406 10.16229820251465 11.27934265136719 9.968278884887695 11.42366218566895 9.690719604492188 L 15.57537269592285 1.706279754638672 C 15.7621021270752 1.347169876098633 16.11235237121582 1.167613983154297 16.46260070800781 1.167613983154297 Z" stroke="none" fill="#000"/>
    </g>
    <g id="Polygon_15" data-name="Polygon 15" transform="translate(132.126 -564.872)" fill="#ffbb4e">
      <path d="M 16.39832305908203 19.55194664001465 C 16.32285308837891 19.55195617675781 16.24792289733887 19.53377723693848 16.17562294006348 19.4979076385498 L 11.58402347564697 17.21961784362793 C 11.37793350219727 17.11734771728516 11.14738273620605 17.06329727172852 10.91730308532715 17.06329727172852 C 10.68722343444824 17.06329727172852 10.45667266845703 17.11734771728516 10.25058269500732 17.21961784362793 L 5.658993244171143 19.4979076385498 C 5.586713314056396 19.53376770019531 5.511763095855713 19.55194664001465 5.436223030090332 19.55194664001465 C 5.293863296508789 19.55194664001465 5.151352882385254 19.48536682128906 5.05500316619873 19.37384605407715 C 4.988273143768311 19.29661750793457 4.91450309753418 19.16514778137207 4.942043304443359 18.97742652893066 L 5.687492847442627 13.89661693572998 C 5.754982948303223 13.43667697906494 5.601373195648193 12.96351718902588 5.276593208312988 12.63090705871582 L 1.690253138542175 8.958216667175293 C 1.557963132858276 8.822736740112305 1.513943076133728 8.634346961975098 1.572493076324463 8.454266548156738 C 1.63105309009552 8.274196624755859 1.777453064918518 8.147727012634277 1.964123129844666 8.11597728729248 L 7.018933296203613 7.256036758422852 C 7.477932929992676 7.177957057952881 7.880783081054688 6.885016918182373 8.096563339233398 6.472426891326904 L 10.4742431640625 1.926086902618408 C 10.56209278106689 1.758096933364868 10.72772312164307 1.657806992530823 10.91730308532715 1.657806992530823 C 11.10688304901123 1.657806992530823 11.2725133895874 1.758096933364868 11.3603630065918 1.926077008247375 L 13.7380428314209 6.472436904907227 C 13.95383262634277 6.885026931762695 14.35668277740479 7.177957057952881 14.81568336486816 7.256036758422852 L 19.87047386169434 8.11597728729248 C 20.1395435333252 8.161746978759766 20.23399353027344 8.367807388305664 20.26211357116699 8.454266548156738 C 20.3206729888916 8.634346961975098 20.27665328979492 8.822736740112305 20.14435386657715 8.958216667175293 L 16.55802345275879 12.63090705871582 C 16.23324394226074 12.96349716186523 16.07963371276855 13.4366569519043 16.14710235595703 13.89660739898682 L 16.89256286621094 18.97742652893066 C 16.92009353637695 19.16507720947266 16.84634399414062 19.29652786254883 16.77962303161621 19.37375640869141 C 16.68325233459473 19.48531723022461 16.54071235656738 19.55193710327148 16.39832305908203 19.55194664001465 Z" stroke="none"/>
      <path d="M 10.9173002243042 2.157802581787109 L 10.91730308532715 2.157796859741211 L 8.539623260498047 6.704147338867188 C 8.251923561096191 7.254266738891602 7.71478271484375 7.64484691619873 7.102783203125 7.748956680297852 L 2.047990798950195 8.608895301818848 C 2.047992706298828 8.608896255493164 2.047992706298828 8.608896255493164 2.047992706298828 8.60889720916748 L 5.634323120117188 12.28158664703369 C 6.067373275756836 12.72506713867188 6.272183418273926 13.35594749450684 6.18220329284668 13.96919631958008 L 5.436752319335938 19.05000686645508 L 10.0283031463623 16.77173614501953 C 10.30309295654297 16.6353759765625 10.61050319671631 16.56329727172852 10.91730308532715 16.56329727172852 C 11.22408294677734 16.56329727172852 11.53149318695068 16.63536643981934 11.8062629699707 16.7717170715332 L 16.39783096313477 19.04998970031738 C 16.39783668518066 19.04998588562012 16.39784240722656 19.04998016357422 16.39785385131836 19.05000686645508 L 15.65240287780762 13.96917724609375 C 15.56244277954102 13.35591697692871 15.76725292205811 12.72504711151123 16.20028305053711 12.28157711029053 L 19.78661918640137 8.608901977539062 C 19.78661727905273 8.60890007019043 19.78661727905273 8.608898162841797 19.78662300109863 8.60889720916748 L 14.73183250427246 7.748956680297852 C 14.11983299255371 7.64484691619873 13.58269309997559 7.254266738891602 13.29498291015625 6.704147338867188 L 10.91730308532715 2.157806396484375 C 10.91730213165283 2.157804489135742 10.91730117797852 2.157804489135742 10.9173002243042 2.157802581787109 M 10.91730308532715 1.157802581787109 C 11.26683044433594 1.157802581787109 11.61635780334473 1.33665657043457 11.80343341827393 1.694366455078125 L 14.18111324310303 6.240716934204102 C 14.32586288452148 6.517486572265625 14.59161376953125 6.710737228393555 14.89953327178955 6.763116836547852 L 19.95433235168457 7.62305736541748 C 20.74932289123535 7.758296966552734 21.06548309326172 8.730576515197754 20.5020923614502 9.307537078857422 L 16.91575241088867 12.98022651672363 C 16.69784355163574 13.20338726043701 16.59654235839844 13.51543712615967 16.64181327819824 13.82403755187988 L 17.38726425170898 18.90484619140625 C 17.50441360473633 19.70328712463379 16.67626953125 20.30448722839355 15.95338249206543 19.94579696655273 L 11.36178302764893 17.66750717163086 C 11.08175373077393 17.52855682373047 10.75285243988037 17.52855682373047 10.47282314300537 17.66750717163086 L 5.881233215332031 19.94579696655273 C 5.158340454101562 20.30448341369629 4.330194473266602 19.70328903198242 4.447343826293945 18.90484619140625 L 5.192792892456055 13.82403755187988 C 5.238073348999023 13.51543712615967 5.136762619018555 13.20338726043701 4.918853759765625 12.98022651672363 L 1.332523345947266 9.307537078857422 C 0.7691230773925781 8.730576515197754 1.085283279418945 7.758296966552734 1.880273818969727 7.62305736541748 L 6.935072898864746 6.763116836547852 C 7.242993354797363 6.710737228393555 7.508743286132812 6.517497062683105 7.65349292755127 6.240716934204102 L 10.03117275238037 1.694366455078125 C 10.21824836730957 1.33665657043457 10.56777572631836 1.157802581787109 10.91730308532715 1.157802581787109 Z" stroke="none" fill="#000"/>
    </g>
    <g id="Polygon_16" data-name="Polygon 16" transform="translate(85.338 -564.872)" fill="#ffbb4e">
      <path d="M 16.39832305908203 19.55194664001465 C 16.32285308837891 19.55195617675781 16.24792289733887 19.53377723693848 16.17562294006348 19.4979076385498 L 11.58402347564697 17.21961784362793 C 11.37793350219727 17.11734771728516 11.14738273620605 17.06329727172852 10.91730308532715 17.06329727172852 C 10.68722343444824 17.06329727172852 10.45667266845703 17.11734771728516 10.25058269500732 17.21961784362793 L 5.658993244171143 19.4979076385498 C 5.586713314056396 19.53376770019531 5.511763095855713 19.55194664001465 5.436223030090332 19.55194664001465 C 5.293863296508789 19.55194664001465 5.151352882385254 19.48536682128906 5.05500316619873 19.37384605407715 C 4.988273143768311 19.29661750793457 4.91450309753418 19.16514778137207 4.942043304443359 18.97742652893066 L 5.687492847442627 13.89661693572998 C 5.754982948303223 13.43667697906494 5.601373195648193 12.96351718902588 5.276593208312988 12.63090705871582 L 1.690253138542175 8.958216667175293 C 1.557963132858276 8.822736740112305 1.513943076133728 8.634346961975098 1.572493076324463 8.454266548156738 C 1.63105309009552 8.274196624755859 1.777453064918518 8.147727012634277 1.964123129844666 8.11597728729248 L 7.018933296203613 7.256036758422852 C 7.477932929992676 7.177957057952881 7.880783081054688 6.885016918182373 8.096563339233398 6.472426891326904 L 10.4742431640625 1.926086902618408 C 10.56209278106689 1.758096933364868 10.72772312164307 1.657806992530823 10.91730308532715 1.657806992530823 C 11.10688304901123 1.657806992530823 11.2725133895874 1.758096933364868 11.3603630065918 1.926077008247375 L 13.7380428314209 6.472436904907227 C 13.95383262634277 6.885026931762695 14.35668277740479 7.177957057952881 14.81568336486816 7.256036758422852 L 19.87047386169434 8.11597728729248 C 20.1395435333252 8.161746978759766 20.23399353027344 8.367807388305664 20.26211357116699 8.454266548156738 C 20.3206729888916 8.634346961975098 20.27665328979492 8.822736740112305 20.14435386657715 8.958216667175293 L 16.55802345275879 12.63090705871582 C 16.23324394226074 12.96349716186523 16.07963371276855 13.4366569519043 16.14710235595703 13.89660739898682 L 16.89256286621094 18.97742652893066 C 16.92009353637695 19.16507720947266 16.84634399414062 19.29652786254883 16.77962303161621 19.37375640869141 C 16.68325233459473 19.48531723022461 16.54071235656738 19.55193710327148 16.39832305908203 19.55194664001465 Z" stroke="none"/>
      <path d="M 10.9173002243042 2.157802581787109 L 10.91730308532715 2.157796859741211 L 8.539623260498047 6.704147338867188 C 8.251923561096191 7.254266738891602 7.71478271484375 7.64484691619873 7.102783203125 7.748956680297852 L 2.047990798950195 8.608895301818848 C 2.047992706298828 8.608896255493164 2.047992706298828 8.608896255493164 2.047992706298828 8.60889720916748 L 5.634323120117188 12.28158664703369 C 6.067373275756836 12.72506713867188 6.272183418273926 13.35594749450684 6.18220329284668 13.96919631958008 L 5.436752319335938 19.05000686645508 L 10.0283031463623 16.77173614501953 C 10.30309295654297 16.6353759765625 10.61050319671631 16.56329727172852 10.91730308532715 16.56329727172852 C 11.22408294677734 16.56329727172852 11.53149318695068 16.63536643981934 11.8062629699707 16.7717170715332 L 16.39783096313477 19.04998970031738 C 16.39783668518066 19.04998588562012 16.39784240722656 19.04998016357422 16.39785385131836 19.05000686645508 L 15.65240287780762 13.96917724609375 C 15.56244277954102 13.35591697692871 15.76725292205811 12.72504711151123 16.20028305053711 12.28157711029053 L 19.78661918640137 8.608901977539062 C 19.78661727905273 8.60890007019043 19.78661727905273 8.608898162841797 19.78662300109863 8.60889720916748 L 14.73183250427246 7.748956680297852 C 14.11983299255371 7.64484691619873 13.58269309997559 7.254266738891602 13.29498291015625 6.704147338867188 L 10.91730308532715 2.157806396484375 C 10.91730213165283 2.157804489135742 10.91730117797852 2.157804489135742 10.9173002243042 2.157802581787109 M 10.91730308532715 1.157802581787109 C 11.26683044433594 1.157802581787109 11.61635780334473 1.33665657043457 11.80343341827393 1.694366455078125 L 14.18111324310303 6.240716934204102 C 14.32586288452148 6.517486572265625 14.59161376953125 6.710737228393555 14.89953327178955 6.763116836547852 L 19.95433235168457 7.62305736541748 C 20.74932289123535 7.758296966552734 21.06548309326172 8.730576515197754 20.5020923614502 9.307537078857422 L 16.91575241088867 12.98022651672363 C 16.69784355163574 13.20338726043701 16.59654235839844 13.51543712615967 16.64181327819824 13.82403755187988 L 17.38726425170898 18.90484619140625 C 17.50441360473633 19.70328712463379 16.67626953125 20.30448722839355 15.95338249206543 19.94579696655273 L 11.36178302764893 17.66750717163086 C 11.08175373077393 17.52855682373047 10.75285243988037 17.52855682373047 10.47282314300537 17.66750717163086 L 5.881233215332031 19.94579696655273 C 5.158340454101562 20.30448341369629 4.330194473266602 19.70328903198242 4.447343826293945 18.90484619140625 L 5.192792892456055 13.82403755187988 C 5.238073348999023 13.51543712615967 5.136762619018555 13.20338726043701 4.918853759765625 12.98022651672363 L 1.332523345947266 9.307537078857422 C 0.7691230773925781 8.730576515197754 1.085283279418945 7.758296966552734 1.880273818969727 7.62305736541748 L 6.935072898864746 6.763116836547852 C 7.242993354797363 6.710737228393555 7.508743286132812 6.517497062683105 7.65349292755127 6.240716934204102 L 10.03117275238037 1.694366455078125 C 10.21824836730957 1.33665657043457 10.56777572631836 1.157802581787109 10.91730308532715 1.157802581787109 Z" stroke="none" fill="#000"/>
    </g>
  </g>
</svg>
