<svg id="LinkedIN" xmlns="http://www.w3.org/2000/svg" width="20" height="19.994" viewBox="0 0 20 19.994">
  <g id="LinkedIN-2" data-name="LinkedIN">
    <path id="back" d="M0,10a10,10,0,1,1,10,10A10,10,0,0,1,0,10Z"/>
    <path id="Shape" d="M6.048,7.236H3.733c0-.039.03-4.427,0-4.882H6.048v.691a2.281,2.281,0,0,1,.7-.528,3.172,3.172,0,0,1,1.389-.278,3.127,3.127,0,0,1,1.9.536A1.97,1.97,0,0,1,10.8,4.437v2.8H8.485V4.624c0-.5-.2-1.1-1.173-1.1a1.535,1.535,0,0,0-.771.187,1.1,1.1,0,0,0-.417.406.784.784,0,0,0-.076.4V7.236Zm-3.6,0H.137V2.354H2.452V7.236ZM1.294,1.687H1.279C.538,1.687,0,1.332,0,.843S.539,0,1.31,0,2.588.339,2.6.843a.723.723,0,0,1-.352.6A1.719,1.719,0,0,1,1.294,1.687Z" transform="translate(5.2 6)" fill="#fff"/>
  </g>
</svg>
