<svg xmlns="http://www.w3.org/2000/svg" width="20.906" height="20.906" viewBox="0 0 20.906 20.906">
  <g id="Locations" transform="translate(-60.952 428.048)">
    <path id="Path_3132" data-name="Path 3132" d="M71.018-427.893a1.653,1.653,0,0,0-.19.229,8.554,8.554,0,0,0-.076,1.17l-.027,1.089-.408.071a9.425,9.425,0,0,0-1.524.392c-.163.065-.359.136-.435.163a3.7,3.7,0,0,0-.68.327c-.087.054-.261.152-.381.218a7.9,7.9,0,0,0-2.585,2.64c-.1.18-.207.365-.239.408a3.654,3.654,0,0,0-.337.773c-.049.131-.12.3-.158.4a9.937,9.937,0,0,0-.3,1.333c-.038.2-.076.37-.087.392a6.452,6.452,0,0,1-1.061.044c-1.11,0-1.214.022-1.448.294a.612.612,0,0,0,.229.92,5.589,5.589,0,0,0,1.2.092l1.089.027.071.408a9.42,9.42,0,0,0,.392,1.524c.065.163.136.359.163.435a3.7,3.7,0,0,0,.327.68c.054.087.152.261.218.381a8.257,8.257,0,0,0,2.531,2.531c.12.065.294.163.381.218a3.7,3.7,0,0,0,.68.327c.076.027.272.1.435.163a9.419,9.419,0,0,0,1.524.392l.408.071.027,1.089c.027,1.138.044,1.214.294,1.431a.617.617,0,0,0,.92-.234,5.579,5.579,0,0,0,.093-1.2l.027-1.089.408-.071a9.418,9.418,0,0,0,1.524-.392c.163-.065.359-.136.435-.163a3.7,3.7,0,0,0,.68-.327c.093-.054.261-.152.381-.218a8.257,8.257,0,0,0,2.531-2.531c.065-.12.163-.294.218-.381a3.7,3.7,0,0,0,.327-.68c.027-.076.1-.272.163-.435a9.421,9.421,0,0,0,.392-1.524l.071-.408,1.089-.027c1.138-.027,1.214-.044,1.431-.294a.617.617,0,0,0-.234-.92,5.582,5.582,0,0,0-1.2-.093l-1.089-.027-.071-.408a9.422,9.422,0,0,0-.392-1.524c-.065-.163-.136-.359-.163-.435a3.7,3.7,0,0,0-.327-.68c-.054-.093-.152-.261-.218-.381a8.257,8.257,0,0,0-2.531-2.531c-.12-.065-.288-.163-.381-.218a3.7,3.7,0,0,0-.68-.327c-.076-.027-.272-.1-.435-.163a9.425,9.425,0,0,0-1.524-.392l-.408-.071-.027-1.089a5.579,5.579,0,0,0-.093-1.2A.6.6,0,0,0,71.018-427.893Zm1.241,3.848a7.466,7.466,0,0,1,.833.169c.136.044.4.125.582.185a3.68,3.68,0,0,1,.517.212c.1.06.288.163.425.229A7.561,7.561,0,0,1,76-422.195a7.559,7.559,0,0,1,1.056,1.388c.065.136.169.327.229.425a3.676,3.676,0,0,1,.212.517c.06.185.141.446.185.582a9.121,9.121,0,0,1,.25,1.687,9.123,9.123,0,0,1-.25,1.687c-.044.136-.125.4-.185.582a3.67,3.67,0,0,1-.212.517c-.06.1-.163.289-.229.425A7.562,7.562,0,0,1,76-413a7.56,7.56,0,0,1-1.388,1.056c-.136.065-.327.169-.425.229a3.68,3.68,0,0,1-.517.212c-.185.06-.446.142-.582.185a9.123,9.123,0,0,1-1.687.25,9.122,9.122,0,0,1-1.687-.25c-.136-.044-.4-.125-.582-.185a3.68,3.68,0,0,1-.517-.212c-.1-.06-.288-.163-.425-.229A7.561,7.561,0,0,1,66.806-413a7.563,7.563,0,0,1-1.056-1.388c-.065-.136-.169-.327-.229-.425a3.668,3.668,0,0,1-.212-.517c-.06-.185-.142-.446-.185-.582a9.123,9.123,0,0,1-.25-1.687,9.121,9.121,0,0,1,.25-1.687c.044-.136.125-.4.185-.582a3.675,3.675,0,0,1,.212-.517c.06-.1.163-.288.229-.425a7.56,7.56,0,0,1,1.056-1.388,7.562,7.562,0,0,1,1.388-1.056c.136-.065.327-.169.43-.229a2.94,2.94,0,0,1,.544-.218c.2-.065.419-.141.5-.169a8.735,8.735,0,0,1,1.671-.256A7.548,7.548,0,0,1,72.259-424.045Z" transform="translate(0 0)"/>
    <path id="Path_3133" data-name="Path 3133" d="M184.9-307.632a4.5,4.5,0,0,0-1.333.441c-.12.065-.272.147-.332.174a7.213,7.213,0,0,0-1.116,1.116c-.027.06-.109.212-.174.332a3.621,3.621,0,0,0-.446,1.823,3.622,3.622,0,0,0,.446,1.823c.065.12.147.272.174.332a7.21,7.21,0,0,0,1.116,1.116c.06.027.212.109.332.174a3.621,3.621,0,0,0,1.823.446,3.62,3.62,0,0,0,1.823-.446c.12-.065.272-.147.332-.174a7.21,7.21,0,0,0,1.116-1.116c.027-.06.109-.212.174-.332a3.622,3.622,0,0,0,.446-1.823,3.621,3.621,0,0,0-.446-1.823c-.065-.12-.147-.272-.174-.332a7.214,7.214,0,0,0-1.116-1.116c-.06-.027-.218-.109-.337-.18a4.76,4.76,0,0,0-.947-.359A5.963,5.963,0,0,0,184.9-307.632Zm1.176,1.377a2.677,2.677,0,0,1,1.84,1.878,2.647,2.647,0,0,1-1.241,2.89,2.551,2.551,0,0,1-2.569,0,2.786,2.786,0,0,1-1.241-1.627,2.6,2.6,0,0,1,.267-1.916A2.632,2.632,0,0,1,186.077-306.255Z" transform="translate(-113.987 -113.85)"/>
  </g>
</svg>
