<svg id="egypt" xmlns="http://www.w3.org/2000/svg" width="15.753" height="20.284" viewBox="0 0 15.753 20.284">
  <path id="Path_1160" data-name="Path 1160" d="M256.787,4.384A7.971,7.971,0,0,1,263.857,0V4.014a3.941,3.941,0,0,0-3.985,3.928,4.066,4.066,0,0,0,3.985,4.043v8.3c-2.8-2.916-6.02-6.122-7.429-9.961A7.5,7.5,0,0,1,256.787,4.384Z" transform="translate(-255.98)" fill="#b90000"/>
  <path id="Path_1161" data-name="Path 1161" d="M64.61,10.323c-1.409,3.838-4.631,7.044-7.429,9.961v-8.3a4.066,4.066,0,0,0,3.985-4.043A3.941,3.941,0,0,0,57.18,4.014V0a7.971,7.971,0,0,1,7.07,4.384A7.5,7.5,0,0,1,64.61,10.323Z" transform="translate(-49.304)" fill="#d00"/>
</svg>
