<svg xmlns="http://www.w3.org/2000/svg" width="75.744" height="26.136" viewBox="0 0 75.744 26.136">
  <g id="Group_9926" data-name="Group 9926" transform="translate(-41.183 -46.356)">
    <path id="Path_10154" data-name="Path 10154" d="M-19.48,5.193a5.147,5.147,0,0,1-1.2-.142l.157-1.495a3.9,3.9,0,0,0,1.153.171,1.417,1.417,0,0,0,1.139-.448,2.4,2.4,0,0,0,.384-1.545V-5.114h1.879V.1h1.409V1.577h-1.409v.057a5.415,5.415,0,0,1-.149,1.338,3.461,3.461,0,0,1-.513,1.11,2.331,2.331,0,0,1-1.089.819A4.739,4.739,0,0,1-19.48,5.193Zm4.712-3.616V.1H-13V-8.46h1.879V.1h1.438V1.577Zm4.855,0V.1h1.694V1.577Zm1.538,0V.1h1.694V1.577Zm1.538,0V.1h1.694V1.577Zm1.538,0V.1h1.694V1.577Zm1.538,0V.1h1.694V1.577Zm1.538,0V.1H-.532V1.577Zm1.538,0V.1H1.006V1.577Zm1.538,0V.1H2.543V1.577Zm1.538,0V.1H4.38v-5.21H6.259V1.577ZM4.266,4.694a.972.972,0,0,1-.982-.982,1,1,0,0,1,.982-.982.972.972,0,0,1,.982.982,1,1,0,0,1-.982.982ZM8.523,1.577V-8.46H10.4V.1h1.424V1.577Zm3.089,0V.1h1.694V1.577Zm1.538,0V.1h1.694V1.577Zm1.538,0V.1h1.694V1.577Zm1.538,0V.1h1.694V1.577Zm1.538,0V.1h1.694V1.577Zm1.538,0V.1h1.993v-5.21h1.879V1.577Zm4.513-8.058a.886.886,0,0,1-.669.285.9.9,0,0,1-.669-.278.95.95,0,0,1-.27-.69.957.957,0,0,1,.27-.683.886.886,0,0,1,.669-.285.9.9,0,0,1,.669.278.95.95,0,0,1,.27.69A.957.957,0,0,1,23.813-6.481Zm-2.363,0a.886.886,0,0,1-.669.285.9.9,0,0,1-.669-.278.95.95,0,0,1-.27-.69.957.957,0,0,1,.27-.683.886.886,0,0,1,.669-.285.92.92,0,0,1,.676.278.937.937,0,0,1,.278.69A.932.932,0,0,1,21.449-6.481Z" transform="translate(61.859 62.057)"/>
    <g id="Group_9925" data-name="Group 9925" transform="translate(90.741 46.356)">
      <g id="_1cc7562a-5318-4a8f-9d10-416045b5913e" data-name="1cc7562a-5318-4a8f-9d10-416045b5913e">
        <path id="Path_9222" data-name="Path 9222" fill="#DF0000" d="M124.466,116.651c-.551.187-1.04.469-1.583.629a13.713,13.713,0,0,1-2.476.559c-.651.066-1.3.176-1.953.193-.055,0-.111,0-.166,0-.33-.021-.426-.2-.238-.479.166-.244.351-.475.532-.708a8.8,8.8,0,0,0,.693-1.186,5.762,5.762,0,0,0,.5-1.306,8.534,8.534,0,0,0,.343-2.925,8.7,8.7,0,0,0-.49-2.025,10.226,10.226,0,0,0-.627-1.489,7,7,0,0,0-.883-1.295c-.23-.268-.213-.377.018-.634.886-.986,1.863-1.881,2.8-2.812a5.346,5.346,0,0,1,.8-.748.345.345,0,0,1,.376-.007,2.366,2.366,0,0,0,2.129-.044,2.428,2.428,0,0,0,1.164-1.25,2.234,2.234,0,0,0-.062-1.927,2.56,2.56,0,0,0-1.341-1.257,2.222,2.222,0,0,0-2.208.235,2.417,2.417,0,0,0-1,2.816,1.056,1.056,0,0,1-.349,1.126q-1.377,1.393-2.763,2.777c-.11.111-.216.227-.323.341a.442.442,0,0,1-.658.049,8.635,8.635,0,0,0-2.447-1.308,8.038,8.038,0,0,0-3.563-.455,6.625,6.625,0,0,0-1.691.39,10.108,10.108,0,0,0-1.451.6A9.543,9.543,0,0,0,106,105.6c-.1.084-.169.237-.346.166s-.161-.231-.164-.377a12.2,12.2,0,0,1,.125-2.734,16.326,16.326,0,0,1,.661-2.412,13.063,13.063,0,0,1,2.4-3.952,10.921,10.921,0,0,1,1.835-1.73,14.2,14.2,0,0,1,2.547-1.53,16.128,16.128,0,0,1,2.378-.8,13.877,13.877,0,0,1,4.615-.268,11.4,11.4,0,0,1,3.187.781,13.239,13.239,0,0,1,3.014,1.592,12.371,12.371,0,0,1,4.295,5.219,19.184,19.184,0,0,1,.985,3.186,2.74,2.74,0,0,1,.071.6,15.989,15.989,0,0,1-.074,3.43,15.305,15.305,0,0,1-.777,2.994,14.673,14.673,0,0,1-.633,1.348,13.6,13.6,0,0,1-1.216,1.9,11.325,11.325,0,0,1-1.17,1.279,14.389,14.389,0,0,1-2.514,1.917A4.3,4.3,0,0,0,124.466,116.651Z" transform="translate(-105.471 -91.899)"/>
        <path id="Path_9223" data-name="Path 9223" fill="#DF0000" d="M271.9,451.906a1.763,1.763,0,0,1,1.765-1.672,1.677,1.677,0,0,1,1.651,1.027,2.155,2.155,0,0,1,.23.618,1.89,1.89,0,0,1-1.743,1.964,1.952,1.952,0,0,1-1.535-.676A1.569,1.569,0,0,1,271.9,451.906Z" transform="translate(-262.648 -430.353)"/>
        <path id="Path_9224" data-name="Path 9224" fill="#DF0000" d="M156.664,336.29a1.818,1.818,0,0,1-1.387-.343,1.76,1.76,0,0,1-.681-1.788,1.7,1.7,0,0,1,1.086-1.295,1.34,1.34,0,0,1,.568-.2,1.838,1.838,0,0,1,1.479.7,1.81,1.81,0,0,1,.326,1.632A1.74,1.74,0,0,1,156.664,336.29Z" transform="translate(-151.834 -319.306)"/>
      </g>
      <circle id="Ellipse_746" data-name="Ellipse 746" cx="3.103" cy="3.103" r="3.103" transform="translate(15.068 4.679)" fill="#DF0000"/>
      <rect id="Rectangle_3598" data-name="Rectangle 3598" width="6.771" height="1.128" rx="0.564" transform="translate(14.173 6.964) rotate(45)" fill="#fff"/>
    </g>
  </g>
</svg>
