<svg xmlns="http://www.w3.org/2000/svg" width="52.334" height="60.401" viewBox="0 0 52.334 60.401">
  <g id="Group_3097" data-name="Group 3097" transform="translate(0 0)">
    <g id="logout_1_" data-name="logout (1)" transform="translate(0 0)">
      <path id="Path_2238" data-name="Path 2238" d="M7.5,67.835l18.692-4.919V14.649L7.5,9.73Zm0,0" transform="translate(25.257 -8.583)" fill="#f8e868"/>
      <path id="Path_2239" data-name="Path 2239" d="M22.653,62.916V14.649L7.5,10.662V9.73l18.692,4.919V62.916L7.5,67.835V66.9Zm0,0" transform="translate(25.257 -8.583)" fill="#e39c2d"/>
      <path id="Path_2240" data-name="Path 2240" d="M95.371,239.179a2.25,2.25,0,1,0,2.25-2.25A2.25,2.25,0,0,0,95.371,239.179Zm0,0" transform="translate(-58.788 -208.979)" fill="#e5ebf5"/>
      <path id="Path_2241" data-name="Path 2241" d="M179.385,183.677h17.858v9.637H179.385v5.391L165.949,188.5l13.436-10.21Zm0,0" transform="translate(-164.487 -157.253)" fill="#df0000"/>
      <path id="Path_2242" data-name="Path 2242" d="M169.488,223.988h-3.539v9.637h3.539Zm0,0" transform="translate(-136.731 -197.564)" fill="#c21d44"/>
      <path id="Path_2243" data-name="Path 2243" d="M178.247,56.832h-12.3V76.551h12.3Zm0,0" transform="translate(-145.489 -50.128)" fill="#e5ebf5"/>
      <path id="Path_2244" data-name="Path 2244" d="M178.247,305.68h-12.3v17.635h12.3Zm0,0" transform="translate(-145.489 -269.619)" fill="#e5ebf5"/>
      <path id="Path_2245" data-name="Path 2245" d="M169.488,56.832h-3.539V76.551h3.539Zm0,0" transform="translate(-136.731 -50.128)" fill="#cad8ea"/>
      <path id="Path_2246" data-name="Path 2246" d="M169.488,305.68h-3.539v17.635h3.539Zm0,0" transform="translate(-136.731 -269.619)" fill="#cad8ea"/>
      <path id="Path_2247" data-name="Path 2247" d="M174.421,305.68h-8.472v13.809h8.472Zm0,0" transform="translate(-141.664 -269.619)" fill="#72869e"/>
      <path id="Path_2248" data-name="Path 2248" d="M174.421,89.262h-8.472v15.894h8.472Zm0,0" transform="translate(-141.664 -78.732)" fill="#72869e"/>
      <path id="Path_2249" data-name="Path 2249" d="M169.488,305.68h-3.539v13.809h3.539Zm0,0" transform="translate(-136.731 -269.619)" fill="#536275"/>
      <path id="Path_2250" data-name="Path 2250" d="M169.488,89.262h-3.539v15.894h3.539Zm0,0" transform="translate(-136.731 -78.732)" fill="#536275"/>
      <path id="Path_2251" data-name="Path 2251" d="M234.281,258.793h1.77v-1.77h-1.77Zm2.949,0H239v-1.77h-1.77Zm0,0" transform="translate(-214.304 -226.702)" fill="#fff"/>
      <path id="Path_2252" data-name="Path 2252" d="M20.462,55.016,0,60.4V0L20.462,5.385ZM18.692,6.749,1.77,2.3v55.81l16.923-4.453Zm0,0" transform="translate(31.872)"/>
      <path id="Path_2253" data-name="Path 2253" d="M91.006,229.426a3.135,3.135,0,1,1-3.134,3.135A3.139,3.139,0,0,1,91.006,229.426Zm0,4.5a1.365,1.365,0,1,0-1.365-1.365A1.366,1.366,0,0,0,91.006,233.926Zm0,0" transform="translate(-52.173 -202.36)"/>
      <path id="Path_2254" data-name="Path 2254" d="M195.219,66.633h-1.77v-17.3h9.938V51.1h-8.168Zm0,0" transform="translate(-173.874 -43.512)"/>
      <path id="Path_2255" data-name="Path 2255" d="M195.219,347.127h8.168v1.77h-9.938V333.68h1.77Zm0,0" transform="translate(-173.874 -294.315)"/>
      <path id="Path_2256" data-name="Path 2256" d="M193.449,175.161l15.783-11.993v6.29h13.73v1.77h-15.5v-4.493l-11.089,8.427,11.089,8.427V179.1h15.5v1.77h-13.73v6.29Zm0,0" transform="translate(-193.449 -143.919)"/>
      <path id="Path_2257" data-name="Path 2257" d="M195.219,95.237h-1.77V81.762h6.112v1.77h-4.342Zm0,0" transform="translate(-170.049 -72.116)"/>
      <path id="Path_2258" data-name="Path 2258" d="M193.449,333.68h1.77V343.3h4.342v1.77h-6.112Zm0,0" transform="translate(-170.049 -294.315)"/>
    </g>
  </g>
</svg>
