<svg xmlns="http://www.w3.org/2000/svg" width="100.808" height="26.136" viewBox="0 0 100.808 26.136">
  <g id="Group_9926" data-name="Group 9926" transform="translate(-15.741 -46.356)">
    <path id="Path_10155" data-name="Path 10155" d="M-27.918-8.4H-34.6a.17.17,0,0,0-.18.18v1.26a.17.17,0,0,0,.18.18h2.268a.17.17,0,0,1,.18.18V-.18a.17.17,0,0,0,.18.18h1.44a.17.17,0,0,0,.18-.18V-6.6a.17.17,0,0,1,.18-.18h2.256a.17.17,0,0,0,.18-.18V-8.22A.17.17,0,0,0-27.918-8.4Zm6.132.144L-24.606-.2c-.048.132.012.2.144.2h1.428a.192.192,0,0,0,.2-.144l.564-1.608a.192.192,0,0,1,.2-.144h2.616a.192.192,0,0,1,.2.144l.564,1.608a.192.192,0,0,0,.2.144h1.428c.132,0,.192-.072.144-.2l-2.82-8.052a.192.192,0,0,0-.2-.144h-1.656A.192.192,0,0,0-21.786-8.256Zm.216,4.536.7-2.016c.06-.168.18-.168.24,0l.7,2.016c.036.12-.012.2-.144.2h-1.344C-21.558-3.516-21.606-3.6-21.57-3.72Zm8.52-4.5V-.18a.17.17,0,0,0,.18.18h1.44a.17.17,0,0,0,.18-.18V-2.568a.17.17,0,0,1,.18-.18h1.4a2.808,2.808,0,0,0,3.072-2.82A2.836,2.836,0,0,0-9.666-8.4h-3.2A.17.17,0,0,0-13.05-8.22Zm1.8,3.672V-6.6a.17.17,0,0,1,.18-.18h1.4A1.129,1.129,0,0,1-8.394-5.568a1.11,1.11,0,0,1-1.272,1.2h-1.4A.17.17,0,0,1-11.25-4.548ZM-2.562-8.22V-.18a.17.17,0,0,0,.18.18h1.44a.17.17,0,0,0,.18-.18V-2.568a.17.17,0,0,1,.18-.18h1.4a2.808,2.808,0,0,0,3.072-2.82A2.836,2.836,0,0,0,.822-8.4h-3.2A.17.17,0,0,0-2.562-8.22Zm1.8,3.672V-6.6a.17.17,0,0,1,.18-.18h1.4A1.129,1.129,0,0,1,2.094-5.568a1.11,1.11,0,0,1-1.272,1.2h-1.4A.17.17,0,0,1-.762-4.548ZM7.926-8.22V-.18a.17.17,0,0,0,.18.18h5.628a.17.17,0,0,0,.18-.18V-1.44a.17.17,0,0,0-.18-.18H9.906a.17.17,0,0,1-.18-.18V-8.22a.17.17,0,0,0-.18-.18H8.106A.17.17,0,0,0,7.926-8.22Zm9.828,0V-.18a.17.17,0,0,0,.18.18h5.448a.17.17,0,0,0,.18-.18V-1.44a.17.17,0,0,0-.18-.18H19.734a.17.17,0,0,1-.18-.18V-3.288a.17.17,0,0,1,.18-.18h3.108a.17.17,0,0,0,.18-.18v-1.26a.17.17,0,0,0-.18-.18H19.734a.17.17,0,0,1-.18-.18V-6.6a.17.17,0,0,1,.18-.18h3.648a.17.17,0,0,0,.18-.18V-8.22a.17.17,0,0,0-.18-.18H17.934A.17.17,0,0,0,17.754-8.22Zm10.08,0V-.18a.17.17,0,0,0,.18.18h1.44a.17.17,0,0,0,.18-.18V-2.568a.17.17,0,0,1,.18-.18H30.87a.229.229,0,0,1,.216.12L32.622-.12a.229.229,0,0,0,.216.12h1.668c.144,0,.192-.1.12-.216l-1.68-2.748a.17.17,0,0,1,.06-.252A2.664,2.664,0,0,0,34.29-5.568,2.836,2.836,0,0,0,31.218-8.4h-3.2A.17.17,0,0,0,27.834-8.22Zm1.8,3.672V-6.6a.17.17,0,0,1,.18-.18h1.4A1.129,1.129,0,0,1,32.49-5.568a1.11,1.11,0,0,1-1.272,1.2h-1.4A.17.17,0,0,1,29.634-4.548Z" transform="translate(81.89 64.635)"/>
    <g id="Group_9925" data-name="Group 9925" transform="translate(15.741 46.356)">
      <g id="_1cc7562a-5318-4a8f-9d10-416045b5913e" data-name="1cc7562a-5318-4a8f-9d10-416045b5913e">
        <path id="Path_9222" data-name="Path 9222" fill="#DF0000" d="M124.466,116.651c-.551.187-1.04.469-1.583.629a13.713,13.713,0,0,1-2.476.559c-.651.066-1.3.176-1.953.193-.055,0-.111,0-.166,0-.33-.021-.426-.2-.238-.479.166-.244.351-.475.532-.708a8.8,8.8,0,0,0,.693-1.186,5.762,5.762,0,0,0,.5-1.306,8.534,8.534,0,0,0,.343-2.925,8.7,8.7,0,0,0-.49-2.025,10.226,10.226,0,0,0-.627-1.489,7,7,0,0,0-.883-1.295c-.23-.268-.213-.377.018-.634.886-.986,1.863-1.881,2.8-2.812a5.346,5.346,0,0,1,.8-.748.345.345,0,0,1,.376-.007,2.366,2.366,0,0,0,2.129-.044,2.428,2.428,0,0,0,1.164-1.25,2.234,2.234,0,0,0-.062-1.927,2.56,2.56,0,0,0-1.341-1.257,2.222,2.222,0,0,0-2.208.235,2.417,2.417,0,0,0-1,2.816,1.056,1.056,0,0,1-.349,1.126q-1.377,1.393-2.763,2.777c-.11.111-.216.227-.323.341a.442.442,0,0,1-.658.049,8.635,8.635,0,0,0-2.447-1.308,8.038,8.038,0,0,0-3.563-.455,6.625,6.625,0,0,0-1.691.39,10.108,10.108,0,0,0-1.451.6A9.543,9.543,0,0,0,106,105.6c-.1.084-.169.237-.346.166s-.161-.231-.164-.377a12.2,12.2,0,0,1,.125-2.734,16.326,16.326,0,0,1,.661-2.412,13.063,13.063,0,0,1,2.4-3.952,10.921,10.921,0,0,1,1.835-1.73,14.2,14.2,0,0,1,2.547-1.53,16.128,16.128,0,0,1,2.378-.8,13.877,13.877,0,0,1,4.615-.268,11.4,11.4,0,0,1,3.187.781,13.239,13.239,0,0,1,3.014,1.592,12.371,12.371,0,0,1,4.295,5.219,19.184,19.184,0,0,1,.985,3.186,2.74,2.74,0,0,1,.071.6,15.989,15.989,0,0,1-.074,3.43,15.305,15.305,0,0,1-.777,2.994,14.673,14.673,0,0,1-.633,1.348,13.6,13.6,0,0,1-1.216,1.9,11.325,11.325,0,0,1-1.17,1.279,14.389,14.389,0,0,1-2.514,1.917A4.3,4.3,0,0,0,124.466,116.651Z" transform="translate(-105.471 -91.899)"/>
        <path id="Path_9223" data-name="Path 9223" fill="#DF0000" d="M271.9,451.906a1.763,1.763,0,0,1,1.765-1.672,1.677,1.677,0,0,1,1.651,1.027,2.155,2.155,0,0,1,.23.618,1.89,1.89,0,0,1-1.743,1.964,1.952,1.952,0,0,1-1.535-.676A1.569,1.569,0,0,1,271.9,451.906Z" transform="translate(-262.648 -430.353)"/>
        <path id="Path_9224" data-name="Path 9224" fill="#DF0000" d="M156.664,336.29a1.818,1.818,0,0,1-1.387-.343,1.76,1.76,0,0,1-.681-1.788,1.7,1.7,0,0,1,1.086-1.295,1.34,1.34,0,0,1,.568-.2,1.838,1.838,0,0,1,1.479.7,1.81,1.81,0,0,1,.326,1.632A1.74,1.74,0,0,1,156.664,336.29Z" transform="translate(-151.834 -319.306)"/>
      </g>
      <circle id="Ellipse_746" data-name="Ellipse 746" cx="3.103" cy="3.103" r="3.103" transform="translate(15.068 4.679)" fill="#DF0000"/>
      <rect id="Rectangle_3598" data-name="Rectangle 3598" width="6.771" height="1.128" rx="0.564" transform="translate(14.173 6.964) rotate(45)" fill="#fff"/>
    </g>
  </g>
</svg>
