<svg xmlns="http://www.w3.org/2000/svg" width="21.533" height="16" viewBox="0 0 21.533 16">
  <g id="Screen_Shot_2022-10-29_at_6.40.10_PM" data-name="Screen Shot 2022-10-29 at 6.40.10 PM" transform="translate(-33.9 397.035)">
    <path id="Path_3263" data-name="Path 3263" d="M35.355-396.971a1.771,1.771,0,0,0-.887.538,1.93,1.93,0,0,0-.517.991c-.067.333-.067,12.48,0,12.813a1.976,1.976,0,0,0,1.459,1.542c.315.071,18.195.071,18.514,0a1.988,1.988,0,0,0,1.459-1.542c.067-.329.067-12.475,0-12.813a1.963,1.963,0,0,0-1.459-1.542C53.583-397.06,35.64-397.047,35.355-396.971Zm13.831,5.585c-2.245,2.368-4.128,4.341-4.191,4.376a.926.926,0,0,1-.656,0c-.063-.036-1.946-2.008-4.191-4.376L36.069-395.7H53.263Zm-11.3,5.225-2.72,2.879V-394.79l2.72,2.879,2.724,2.874Zm16.282-2.866v5.745l-2.72-2.874-2.724-2.879,2.712-2.866c1.492-1.577,2.716-2.866,2.72-2.866S54.167-392.182,54.167-389.027Zm-11.691,2c.9.946,1.022,1.053,1.324,1.213l.336.173h.525a1.278,1.278,0,0,0,.862-.169c.307-.156.4-.244,1.337-1.217l1-1.053,2.7,2.852,2.7,2.852H36.069l2.691-2.843c1.48-1.564,2.7-2.843,2.707-2.843S41.934-387.592,42.476-387.024Z" transform="translate(0 0)"/>
  </g>
</svg>
