<svg xmlns="http://www.w3.org/2000/svg" width="22.607" height="22.3" viewBox="0 0 22.607 22.3">
  <g id="Group_6199" data-name="Group 6199" transform="translate(15859 -10083)">
    <g id="Group_3610" data-name="Group 3610" transform="translate(-15875.001 10075)">
      <g id="Group_3613" data-name="Group 3613" transform="translate(16.001 8)">
        <g id="conversation" transform="translate(0 0)">
          <g id="Group_2283" data-name="Group 2283">
            <g id="Group_2282" data-name="Group 2282">
              <path id="Path_1851" data-name="Path 1851" d="M22.526,21.614l-1.313-3.829A9.573,9.573,0,0,0,19.44,6.879,9.544,9.544,0,0,0,3.085,13.455,6.983,6.983,0,0,0,.973,22.023l-.9,2.638a1.241,1.241,0,0,0,1.578,1.582l2.632-.906a6.976,6.976,0,0,0,2.975.673h.011a6.943,6.943,0,0,0,5.618-2.863,9.563,9.563,0,0,0,3.946-.968l3.821,1.316a1.485,1.485,0,0,0,.484.082,1.48,1.48,0,0,0,1.392-1.961ZM7.265,24.66H7.256a5.618,5.618,0,0,1-2.614-.65.672.672,0,0,0-.533-.042l-2.7.929.927-2.7a.676.676,0,0,0-.042-.534A5.632,5.632,0,0,1,3.21,15.14a9.6,9.6,0,0,0,7.991,7.9A5.59,5.59,0,0,1,7.265,24.66Zm13.957-2.473a.122.122,0,0,1-.135.031L17,20.81a.671.671,0,0,0-.533.042,8.206,8.206,0,0,1-3.817.95h-.013a8.224,8.224,0,0,1-5.8-14.034,8.134,8.134,0,0,1,5.934-2.407,8.226,8.226,0,0,1,7.123,12.058.676.676,0,0,0-.042.534l1.406,4.1A.123.123,0,0,1,21.222,22.187Z" transform="translate(0 -4.011)" fill="#989898"/>
            </g>
          </g>
          <g id="Group_2285" data-name="Group 2285" transform="translate(7.789 5.985)">
            <g id="Group_2284" data-name="Group 2284" transform="translate(0 0)">
              <path id="Path_1852" data-name="Path 1852" d="M189.036,139.512h-8.25a.692.692,0,0,0,0,1.385h8.25a.692.692,0,1,0,0-1.385Z" transform="translate(-180.094 -139.512)" fill="#989898"/>
            </g>
          </g>
          <g id="Group_2287" data-name="Group 2287" transform="translate(7.789 8.753)">
            <g id="Group_2286" data-name="Group 2286">
              <path id="Path_1853" data-name="Path 1853" d="M189.036,202.183h-8.25a.692.692,0,0,0,0,1.385h8.25a.692.692,0,1,0,0-1.385Z" transform="translate(-180.094 -202.183)" fill="#989898"/>
            </g>
          </g>
          <g id="Group_2289" data-name="Group 2289" transform="translate(7.863 11.522)">
            <g id="Group_2288" data-name="Group 2288">
              <path id="Path_1854" data-name="Path 1854" d="M185.859,264.852h-5.074a.692.692,0,1,0,0,1.385h5.074a.692.692,0,0,0,0-1.385Z" transform="translate(-180.093 -264.852)" fill="#989898"/>
            </g>
          </g>
        </g>
      </g>
    </g>
  </g>
</svg>
