<svg id="file" xmlns="http://www.w3.org/2000/svg" width="27.156" height="32.692" viewBox="0 0 27.156 32.692">
  <g id="Group_2982" data-name="Group 2982" transform="translate(0.526 0.53)">
    <path id="Path_2083" data-name="Path 2083" d="M63.544,17.671V36.309a2.824,2.824,0,0,1-2.824,2.824H41.3a2.824,2.824,0,0,1-2.824-2.824V10.324A2.824,2.824,0,0,1,41.3,7.5H53.39a2.119,2.119,0,0,1,1.5.622l8.036,8.053A2.119,2.119,0,0,1,63.544,17.671Z" transform="translate(-38.477 -7.5)" fill="#f9f8f9"/>
    <path id="Path_2084" data-name="Path 2084" d="M243.511,17.671v1.242h-7.366a4.035,4.035,0,0,1-4.028-4.032V7.5h1.24a2.119,2.119,0,0,1,1.5.622l8.036,8.053A2.117,2.117,0,0,1,243.511,17.671Z" transform="translate(-218.444 -7.5)" fill="#e3e0e4"/>
    <path id="Path_2085" data-name="Path 2085" d="M43.42,39.133H41.3a2.825,2.825,0,0,1-2.824-2.824V10.324A2.825,2.825,0,0,1,41.3,7.5H43.42A2.825,2.825,0,0,0,40.6,10.324V36.309A2.825,2.825,0,0,0,43.42,39.133Z" transform="translate(-38.477 -7.5)" fill="#e3e0e4"/>
    <g id="Group_2980" data-name="Group 2980" transform="translate(3.383 0.192)">
      <path id="Path_2086" data-name="Path 2086" d="M97.649,143.559H88.915a.53.53,0,0,1,0-1.059h8.734a.53.53,0,1,1,0,1.059Z" transform="translate(-88.244 -133.16)" fill="#a29aa5"/>
      <path id="Path_2087" data-name="Path 2087" d="M97.649,323.559H88.915a.53.53,0,1,1,0-1.059h8.734a.53.53,0,1,1,0,1.059Z" transform="translate(-88.244 -300.45)" fill="#a29aa5"/>
      <path id="Path_2088" data-name="Path 2088" d="M102.731,203.559H86.915a.53.53,0,1,1,0-1.059h15.817a.53.53,0,1,1,0,1.059Z" transform="translate(-86.385 -188.923)" fill="#a29aa5"/>
      <path id="Path_2089" data-name="Path 2089" d="M102.731,263.559H86.915a.53.53,0,1,1,0-1.059h15.817a.53.53,0,1,1,0,1.059Z" transform="translate(-86.385 -244.687)" fill="#a29aa5"/>
      <path id="Path_2090" data-name="Path 2090" d="M271.2,19.323h-7.176a1.912,1.912,0,0,1-1.909-1.914V10.22a2.088,2.088,0,0,1,.621.43l8.036,8.053A2.106,2.106,0,0,1,271.2,19.323Z" transform="translate(-249.709 -10.22)" fill="#a29aa5"/>
    </g>
    <g id="Group_2981" data-name="Group 2981" transform="translate(20.467 24.845)">
      <path id="Path_2092" data-name="Path 2092" d="M334.194,365.217a1.059,1.059,0,0,1-1.5,0l-1.273-1.273-1.273,1.273a1.059,1.059,0,0,1-1.5-1.5l1.273-1.273-1.273-1.273a1.059,1.059,0,0,1,1.5-1.5l1.273,1.273,1.273-1.273a1.059,1.059,0,0,1,1.5,1.5l-1.273,1.273,1.273,1.273A1.059,1.059,0,0,1,334.194,365.217Z" transform="translate(-328.342 -359.365)" fill="#f9f8f9"/>
    </g>
  </g>
  <g id="Group_2983" data-name="Group 2983" transform="translate(0)">
    <path id="Path_2093" data-name="Path 2093" d="M31.7,10.592c.376,0,.358-.3.358-.7V4.5a3.634,3.634,0,0,1,3.268-3.441h7.655c.376,0,.68.049.68-.345A.7.7,0,0,0,42.983,0H35.328a4.417,4.417,0,0,0-4.305,4.512V9.879A.7.7,0,0,0,31.7,10.592Z" transform="translate(-31.023)"/>
    <path id="Path_2094" data-name="Path 2094" d="M39.571,153.848H34.377a2.3,2.3,0,0,1-2.295-2.295V132.03a.53.53,0,1,0-1.059,0v19.524a3.358,3.358,0,0,0,3.354,3.354h5.194c.293,0-.516-.124-.516-.416S39.864,153.848,39.571,153.848Z" transform="translate(-31.023 -122.215)"/>
    <path id="Path_2095" data-name="Path 2095" d="M97.7,142.5H88.961a.53.53,0,0,0,0,1.059H97.7a.53.53,0,1,0,0-1.059Z" transform="translate(-84.377 -132.438)"/>
    <path id="Path_2096" data-name="Path 2096" d="M88.961,322.5a.53.53,0,1,0,0,1.059H97.7a.53.53,0,1,0,0-1.059Z" transform="translate(-84.377 -299.728)"/>
    <path id="Path_2097" data-name="Path 2097" d="M102.777,202.5H86.961a.53.53,0,1,0,0,1.059h15.817a.53.53,0,0,0,0-1.059Z" transform="translate(-82.519 -188.202)"/>
    <path id="Path_2098" data-name="Path 2098" d="M103.307,263.03a.53.53,0,0,0-.53-.53H86.961a.53.53,0,1,0,0,1.059h15.817A.53.53,0,0,0,103.307,263.03Z" transform="translate(-82.519 -243.965)"/>
    <path id="Path_2099" data-name="Path 2099" d="M157.945,10.7a2.631,2.631,0,0,0-.774-1.87L149.136.778A2.63,2.63,0,0,0,147.261,0h-3.654a.53.53,0,0,0,0,1.059h3.654a1.6,1.6,0,0,1,.349.04V7.911a2.444,2.444,0,0,0,2.439,2.443h6.8a1.6,1.6,0,0,1,.039.347c-.325,19.306.02,20.955,0,20.932H140.007a.53.53,0,0,0,0,1.059h17.938Zm-9.275-2.79V1.81L156.139,9.3H150.05A1.384,1.384,0,0,1,148.67,7.911Z" transform="translate(-131.819 0)"/>
  </g>
</svg>
