<svg id="Group_3038" data-name="Group 3038" xmlns="http://www.w3.org/2000/svg" width="38.528" height="22.591" viewBox="0 0 38.528 22.591">
  <g id="Screen_Shot_2021-08-13_at_4.04.45_PM" data-name="Screen Shot 2021-08-13 at 4.04.45 PM" transform="translate(0 0)">
    <path id="Path_2161" data-name="Path 2161" d="M92.958-551.272h2.854l1.857-1.6L99.2-554.8l1.214-2.061.361-1.946.558-1.165h.9l.7.359v4.812l-.7,1.932.407,1.6,2.539.554h6.244l-.359,1.366L110.058-538.5l-13.4-.715-2.53-2.534h-1.17Z" transform="translate(-83.098 561.092)" fill="none"/>
    <g id="Polygon_14" data-name="Polygon 14" transform="translate(9.854)" fill="#ffc144">
      <path d="M 13.96141719818115 16.78144836425781 C 13.88553714752197 16.78145980834961 13.81026649475098 16.76309967041016 13.73769664764404 16.72687911987305 L 10.08044719696045 14.90168857574463 C 9.873517036437988 14.79841899871826 9.641897201538086 14.74383926391602 9.410636901855469 14.74383926391602 C 9.179376602172852 14.74383926391602 8.947756767272949 14.79841899871826 8.740837097167969 14.90167903900146 L 5.083576679229736 16.72687911987305 C 5.011016845703125 16.76308822631836 4.935737133026123 16.78144836425781 4.859827041625977 16.78144836425781 C 4.717506885528564 16.78144836425781 4.575016975402832 16.71492958068848 4.47866678237915 16.6034984588623 C 4.411946773529053 16.52634811401367 4.3381667137146 16.39498901367188 4.365536689758301 16.20731925964355 L 4.961736679077148 12.12028884887695 C 5.028526782989502 11.662428855896 4.875977039337158 11.19088935852051 4.553667068481445 10.85890865325928 L 1.681136846542358 7.900168895721436 C 1.491426944732666 7.704769134521484 1.536396861076355 7.483048915863037 1.564536929130554 7.396799087524414 C 1.592666864395142 7.310548782348633 1.687096953392029 7.104979038238525 1.955546855926514 7.059049129486084 L 5.994086742401123 6.368029117584229 C 6.453826904296875 6.289359092712402 6.856756687164307 5.995338916778564 7.071937084197998 5.58151912689209 L 8.96701717376709 1.936948895454407 C 9.054706573486328 1.768308877944946 9.220546722412109 1.667618870735168 9.410636901855469 1.667618870735168 C 9.600727081298828 1.667618870735168 9.766567230224609 1.768308877944946 9.854256629943848 1.936948895454407 L 11.7493371963501 5.58151912689209 C 11.96450710296631 5.995328903198242 12.3674373626709 6.28934907913208 12.82717704772949 6.368029117584229 L 16.86572647094727 7.059049129486084 C 17.13417625427246 7.104979038238525 17.22860717773438 7.310548782348633 17.25674629211426 7.396799087524414 C 17.28488731384277 7.483048915863037 17.32985687255859 7.704769134521484 17.14014625549316 7.900168895721436 L 14.26760673522949 10.85890865325928 C 13.9453067779541 11.19086933135986 13.79274654388428 11.66240882873535 13.85953712463379 12.12028884887695 L 14.45573711395264 16.20731925964355 C 14.48309707641602 16.39493942260742 14.40931701660156 16.52628898620605 14.34260654449463 16.60344886779785 C 14.24623680114746 16.71489906311035 14.10373687744141 16.78143882751465 13.96141719818115 16.78144836425781 Z" stroke="none"/>
      <path d="M 9.410636901855469 2.167608261108398 L 7.515546798706055 5.812189102172852 C 7.228656768798828 6.36392879486084 6.69141674041748 6.755958557128906 6.07841682434082 6.860868453979492 L 2.039876937866211 7.551887512207031 C 2.039876937866211 7.551887512207031 2.039876937866211 7.551887512207031 2.039867401123047 7.551878929138184 L 4.912406921386719 10.51061916351318 C 5.342146873474121 10.95324897766113 5.545557022094727 11.5819787979126 5.456506729125977 12.19246864318848 L 4.860306739807129 16.27949905395508 L 8.517546653747559 14.45430946350098 C 8.793437004089355 14.31661891937256 9.102267265319824 14.24383926391602 9.410636901855469 14.24383926391602 C 9.719006538391113 14.24383926391602 10.02783679962158 14.31661891937256 10.3037166595459 14.45430946350098 L 13.96095085144043 16.27948570251465 C 13.96095561981201 16.27948379516602 13.96095943450928 16.27947998046875 13.96096706390381 16.27949905395508 L 13.36476707458496 12.19244956970215 C 13.27571678161621 11.58195877075195 13.47912693023682 10.95322895050049 13.90886688232422 10.51061916351318 L 16.78139686584473 7.551888465881348 C 16.78139877319336 7.551887512207031 16.78139495849609 7.551882743835449 16.78139686584473 7.551878929138184 L 12.74286651611328 6.860858917236328 C 12.1298770904541 6.755969047546387 11.59262657165527 6.36393928527832 11.30571746826172 5.812178611755371 L 9.410646438598633 2.167619705200195 C 9.410645484924316 2.167613983154297 9.410645484924316 2.167606353759766 9.410636901855469 2.167608261108398 M 9.410636901855469 1.167613983154297 C 9.760887145996094 1.167613983154297 10.1111364364624 1.34716796875 10.29786682128906 1.706279754638672 L 12.19294738769531 5.350849151611328 C 12.33726692199707 5.628398895263672 12.6031665802002 5.822419166564941 12.9115161895752 5.875179290771484 L 16.9500560760498 6.566208839416504 C 17.74319648742676 6.701918601989746 18.05938720703125 7.67112922668457 17.49888610839844 8.248458862304688 L 14.62634658813477 11.20719909667969 C 14.40998649597168 11.43003845214844 14.30946731567383 11.74076843261719 14.35429668426514 12.04811859130859 L 14.95049667358398 16.1351490020752 C 15.06707668304443 16.93435859680176 14.23709869384766 17.53490829467773 13.51442718505859 17.17425918579102 L 9.857176780700684 15.3490686416626 C 9.576016426086426 15.20875930786133 9.245257377624512 15.20875930786133 8.964097023010254 15.3490686416626 L 5.306846618652344 17.17425918579102 C 4.584178924560547 17.5349063873291 3.754196166992188 16.93436050415039 3.870777130126953 16.1351490020752 L 4.466977119445801 12.04811859130859 C 4.511806488037109 11.74077892303467 4.411287307739258 11.43004894256592 4.194927215576172 11.20719909667969 L 1.3223876953125 8.248458862304688 C 0.7618865966796875 7.67112922668457 1.07807731628418 6.701918601989746 1.871217727661133 6.566208839416504 L 5.909756660461426 5.875188827514648 C 6.218107223510742 5.822419166564941 6.484006881713867 5.628398895263672 6.628327369689941 5.350849151611328 L 8.523406982421875 1.706279754638672 C 8.710137367248535 1.34716796875 9.060386657714844 1.167613983154297 9.410636901855469 1.167613983154297 Z" stroke="none" fill="#000"/>
    </g>
    <g id="Polygon_15" data-name="Polygon 15" transform="translate(26.047 5.745)" fill="#ffc144">
      <path d="M 8.831486701965332 10.64420413970947 C 8.756007194519043 10.64421367645264 8.681077003479004 10.62602424621582 8.608786582946777 10.59015369415283 L 6.907456874847412 9.745984077453613 C 6.701366901397705 9.64371395111084 6.470817089080811 9.589663505554199 6.240736961364746 9.589663505554199 C 6.010656833648682 9.589663505554199 5.780107021331787 9.64371395111084 5.57401704788208 9.745984077453613 L 3.872696876525879 10.59015369415283 C 3.800416946411133 10.62601375579834 3.725466966629028 10.64420413970947 3.649926900863647 10.64420413970947 C 3.507576942443848 10.64420413970947 3.365067005157471 10.57762336730957 3.268717050552368 10.46610355377197 C 3.201987028121948 10.3888635635376 3.128216981887817 10.2573938369751 3.155756950378418 10.06967353820801 L 3.432317018508911 8.184683799743652 C 3.499806880950928 7.724733829498291 3.346196889877319 7.251564025878906 3.021406888961792 6.91896390914917 L 1.690246939659119 5.555763721466064 C 1.55795693397522 5.420283794403076 1.513936996459961 5.231894016265869 1.572497010231018 5.05181360244751 C 1.631056904792786 4.871743679046631 1.777456998825073 4.745273590087891 1.964136958122253 4.713513851165771 L 3.838866949081421 4.394583702087402 C 4.29785680770874 4.316504001617432 4.700706958770752 4.023573875427246 4.916486740112305 3.610983848571777 L 5.797677040100098 1.92608380317688 C 5.88552713394165 1.75809383392334 6.051156997680664 1.657803773880005 6.240736961364746 1.657803773880005 C 6.430316925048828 1.657803773880005 6.595946788787842 1.75809383392334 6.683796882629395 1.926073789596558 L 7.564977169036865 3.610983848571777 C 7.78076696395874 4.023573875427246 8.183616638183594 4.316504001617432 8.642617225646973 4.394583702087402 L 10.51733684539795 4.713513851165771 C 10.78640651702881 4.759284019470215 10.88085651397705 4.965343952178955 10.90897655487061 5.05181360244751 C 10.96753692626953 5.231884002685547 10.92351722717285 5.420283794403076 10.79121685028076 5.555763721466064 L 9.460066795349121 6.918973922729492 C 9.135276794433594 7.251564025878906 8.981666564941406 7.724733829498291 9.04915714263916 8.184693336486816 L 9.325716972351074 10.06967353820801 C 9.353246688842773 10.25733375549316 9.279497146606445 10.3887939453125 9.212777137756348 10.46602344512939 C 9.11640739440918 10.57757377624512 8.973867416381836 10.64418411254883 8.831486701965332 10.64420413970947 Z" stroke="none"/>
      <path d="M 6.240734577178955 2.157798767089844 L 6.240736961364746 2.157793998718262 L 5.359557151794434 3.842703819274902 C 5.071846961975098 4.392813682556152 4.534707069396973 4.783393859863281 3.922726631164551 4.887503623962402 L 2.04798698425293 5.206433773040771 L 3.37913703918457 6.569633960723877 C 3.812187194824219 7.01310396194458 4.017006874084473 7.644003868103027 3.927026748657227 8.25726318359375 L 3.650457382202148 10.14225387573242 L 5.351737022399902 9.298103332519531 C 5.626526832580566 9.161744117736816 5.933937072753906 9.089663505554199 6.240736961364746 9.089663505554199 C 6.547516822814941 9.089663505554199 6.854927062988281 9.161733627319336 7.129696846008301 9.298084259033203 L 8.830991744995117 10.14223670959473 C 8.830995559692383 10.14223289489746 8.830999374389648 10.14223098754883 8.83100700378418 10.14225387573242 L 8.554447174072266 8.25727367401123 C 8.46446704864502 7.644003868103027 8.669286727905273 7.01310396194458 9.102327346801758 6.569643974304199 L 10.4334774017334 5.206443786621094 C 10.43347930908203 5.206440448760986 10.43347072601318 5.206435203552246 10.43348693847656 5.206433773040771 L 8.558767318725586 4.887503623962402 C 7.94676685333252 4.783393859863281 7.409626960754395 4.392813682556152 7.121916770935059 3.842693328857422 L 6.240736961364746 2.157803535461426 C 6.24073600769043 2.157802581787109 6.240735054016113 2.157800674438477 6.240734577178955 2.157798767089844 M 6.240736961364746 1.157798767089844 C 6.590264320373535 1.157798767089844 6.939792156219482 1.336653709411621 7.126866817474365 1.694363594055176 L 8.008047103881836 3.379263877868652 C 8.152796745300293 3.656033515930176 8.418546676635742 3.849284172058105 8.726467132568359 3.901663780212402 L 10.60119724273682 4.220593452453613 C 11.39618682861328 4.355843544006348 11.71234703063965 5.328114032745361 11.14895725250244 5.905083656311035 L 9.81779670715332 7.268293857574463 C 9.599886894226074 7.491443634033203 9.498577117919922 7.80350399017334 9.543856620788574 8.112104415893555 L 9.820417404174805 9.99709415435791 C 9.937566757202148 10.79553413391113 9.109426498413086 11.39674282073975 8.386537551879883 11.03804397583008 L 6.685216903686523 10.19387435913086 C 6.405186653137207 10.05492401123047 6.076287269592285 10.05492401123047 5.796257019042969 10.19387435913086 L 4.094937324523926 11.03804397583008 C 3.372044563293457 11.39674282073975 2.543907165527344 10.79553413391113 2.661056518554688 9.99709415435791 L 2.937617301940918 8.112104415893555 C 2.98289680480957 7.80350399017334 2.881587028503418 7.491443634033203 2.663677215576172 7.268293857574463 L 1.332516670227051 5.905083656311035 C 0.7691268920898438 5.328114032745361 1.085287094116211 4.355843544006348 1.880276679992676 4.220603942871094 L 3.755006790161133 3.901663780212402 C 4.06292724609375 3.849284172058105 4.328677177429199 3.656033515930176 4.473426818847656 3.379263877868652 L 5.354607105255127 1.694363594055176 C 5.54168176651001 1.336653709411621 5.891209602355957 1.157798767089844 6.240736961364746 1.157798767089844 Z" stroke="none" fill="#000"/>
    </g>
    <g id="Polygon_16" data-name="Polygon 16" transform="translate(0 5.745)" fill="#ffc144">
      <path d="M 8.831486701965332 10.64420413970947 C 8.756007194519043 10.64421367645264 8.681077003479004 10.62602424621582 8.608786582946777 10.59015369415283 L 6.907456874847412 9.745984077453613 C 6.701366901397705 9.64371395111084 6.470817089080811 9.589663505554199 6.240736961364746 9.589663505554199 C 6.010656833648682 9.589663505554199 5.780107021331787 9.64371395111084 5.57401704788208 9.745984077453613 L 3.872696876525879 10.59015369415283 C 3.800416946411133 10.62601375579834 3.725466966629028 10.64420413970947 3.649926900863647 10.64420413970947 C 3.507576942443848 10.64420413970947 3.365067005157471 10.57762336730957 3.268717050552368 10.46610355377197 C 3.201987028121948 10.3888635635376 3.128216981887817 10.2573938369751 3.155756950378418 10.06967353820801 L 3.432317018508911 8.184683799743652 C 3.499806880950928 7.724733829498291 3.346196889877319 7.251564025878906 3.021406888961792 6.91896390914917 L 1.690246939659119 5.555763721466064 C 1.55795693397522 5.420283794403076 1.513936996459961 5.231894016265869 1.572497010231018 5.05181360244751 C 1.631056904792786 4.871743679046631 1.777456998825073 4.745273590087891 1.964136958122253 4.713513851165771 L 3.838866949081421 4.394583702087402 C 4.29785680770874 4.316504001617432 4.700706958770752 4.023573875427246 4.916486740112305 3.610983848571777 L 5.797677040100098 1.92608380317688 C 5.88552713394165 1.75809383392334 6.051156997680664 1.657803773880005 6.240736961364746 1.657803773880005 C 6.430316925048828 1.657803773880005 6.595946788787842 1.75809383392334 6.683796882629395 1.926073789596558 L 7.564977169036865 3.610983848571777 C 7.78076696395874 4.023573875427246 8.183616638183594 4.316504001617432 8.642617225646973 4.394583702087402 L 10.51733684539795 4.713513851165771 C 10.78640651702881 4.759284019470215 10.88085651397705 4.965343952178955 10.90897655487061 5.05181360244751 C 10.96753692626953 5.231884002685547 10.92351722717285 5.420283794403076 10.79121685028076 5.555763721466064 L 9.460066795349121 6.918973922729492 C 9.135276794433594 7.251564025878906 8.981666564941406 7.724733829498291 9.04915714263916 8.184693336486816 L 9.325716972351074 10.06967353820801 C 9.353246688842773 10.25733375549316 9.279497146606445 10.3887939453125 9.212777137756348 10.46602344512939 C 9.11640739440918 10.57757377624512 8.973867416381836 10.64418411254883 8.831486701965332 10.64420413970947 Z" stroke="none"/>
      <path d="M 6.240734577178955 2.157798767089844 L 6.240736961364746 2.157793998718262 L 5.359557151794434 3.842703819274902 C 5.071846961975098 4.392813682556152 4.534707069396973 4.783393859863281 3.922726631164551 4.887503623962402 L 2.04798698425293 5.206433773040771 L 3.37913703918457 6.569633960723877 C 3.812187194824219 7.01310396194458 4.017006874084473 7.644003868103027 3.927026748657227 8.25726318359375 L 3.650457382202148 10.14225387573242 L 5.351737022399902 9.298103332519531 C 5.626526832580566 9.161744117736816 5.933937072753906 9.089663505554199 6.240736961364746 9.089663505554199 C 6.547516822814941 9.089663505554199 6.854927062988281 9.161733627319336 7.129696846008301 9.298084259033203 L 8.830991744995117 10.14223670959473 C 8.830995559692383 10.14223289489746 8.830999374389648 10.14223098754883 8.83100700378418 10.14225387573242 L 8.554447174072266 8.25727367401123 C 8.46446704864502 7.644003868103027 8.669286727905273 7.01310396194458 9.102327346801758 6.569643974304199 L 10.4334774017334 5.206443786621094 C 10.43347930908203 5.206440448760986 10.43347072601318 5.206435203552246 10.43348693847656 5.206433773040771 L 8.558767318725586 4.887503623962402 C 7.94676685333252 4.783393859863281 7.409626960754395 4.392813682556152 7.121916770935059 3.842693328857422 L 6.240736961364746 2.157803535461426 C 6.24073600769043 2.157802581787109 6.240735054016113 2.157800674438477 6.240734577178955 2.157798767089844 M 6.240736961364746 1.157798767089844 C 6.590264320373535 1.157798767089844 6.939792156219482 1.336653709411621 7.126866817474365 1.694363594055176 L 8.008047103881836 3.379263877868652 C 8.152796745300293 3.656033515930176 8.418546676635742 3.849284172058105 8.726467132568359 3.901663780212402 L 10.60119724273682 4.220593452453613 C 11.39618682861328 4.355843544006348 11.71234703063965 5.328114032745361 11.14895725250244 5.905083656311035 L 9.81779670715332 7.268293857574463 C 9.599886894226074 7.491443634033203 9.498577117919922 7.80350399017334 9.543856620788574 8.112104415893555 L 9.820417404174805 9.99709415435791 C 9.937566757202148 10.79553413391113 9.109426498413086 11.39674282073975 8.386537551879883 11.03804397583008 L 6.685216903686523 10.19387435913086 C 6.405186653137207 10.05492401123047 6.076287269592285 10.05492401123047 5.796257019042969 10.19387435913086 L 4.094937324523926 11.03804397583008 C 3.372044563293457 11.39674282073975 2.543907165527344 10.79553413391113 2.661056518554688 9.99709415435791 L 2.937617301940918 8.112104415893555 C 2.98289680480957 7.80350399017334 2.881587028503418 7.491443634033203 2.663677215576172 7.268293857574463 L 1.332516670227051 5.905083656311035 C 0.7691268920898438 5.328114032745361 1.085287094116211 4.355843544006348 1.880276679992676 4.220603942871094 L 3.755006790161133 3.901663780212402 C 4.06292724609375 3.849284172058105 4.328677177429199 3.656033515930176 4.473426818847656 3.379263877868652 L 5.354607105255127 1.694363594055176 C 5.54168176651001 1.336653709411621 5.891209602355957 1.157798767089844 6.240736961364746 1.157798767089844 Z" stroke="none" fill="#000"/>
    </g>
  </g>
</svg>
