<svg xmlns="http://www.w3.org/2000/svg" width="52.034" height="51.326" viewBox="0 0 52.034 51.326">
  <g id="Group_8651" data-name="Group 8651" transform="translate(-161 -319.473)">
    <g id="Group_6199" data-name="Group 6199" transform="translate(16019.999 -9763.526)">
      <g id="Group_3610" data-name="Group 3610" transform="translate(-15858.999 10083)">
        <g id="Group_3613" data-name="Group 3613" transform="translate(0 0)">
          <g id="conversation" transform="translate(0 0)">
            <g id="Group_2283" data-name="Group 2283">
              <g id="Group_2282" data-name="Group 2282">
                <path id="Path_1851" data-name="Path 1851" d="M51.847,44.527l-3.022-8.814a22.034,22.034,0,0,0-4.081-25.1A21.966,21.966,0,0,0,7.1,25.749,16.072,16.072,0,0,0,2.239,45.468L.158,51.538a2.856,2.856,0,0,0,3.633,3.641l6.058-2.086A16.055,16.055,0,0,0,16.7,54.642h.025a15.981,15.981,0,0,0,12.931-6.589,22.01,22.01,0,0,0,9.082-2.228l8.8,3.029a3.418,3.418,0,0,0,1.114.188,3.407,3.407,0,0,0,3.2-4.514ZM16.721,51.539H16.7a12.931,12.931,0,0,1-6.016-1.5,1.546,1.546,0,0,0-1.227-.1L3.245,52.085,5.38,45.86a1.555,1.555,0,0,0-.1-1.23,12.962,12.962,0,0,1,2.1-15A22.085,22.085,0,0,0,25.78,47.814,12.866,12.866,0,0,1,16.721,51.539Zm32.125-5.692a.28.28,0,0,1-.31.072L39.12,42.676a1.545,1.545,0,0,0-1.227.1,18.886,18.886,0,0,1-8.786,2.186h-.029a18.93,18.93,0,0,1-13.352-32.3A18.721,18.721,0,0,1,29.384,7.117,18.934,18.934,0,0,1,45.778,34.87a1.555,1.555,0,0,0-.1,1.23l3.235,9.435A.282.282,0,0,1,48.846,45.846Z" transform="translate(0 -4.011)" fill="#c00"/>
              </g>
            </g>
          </g>
        </g>
      </g>
    </g>
    <g id="Group_8650" data-name="Group 8650">
      <g id="sad-circle-svgrepo-com" transform="translate(166.313 318.224)">
        <path id="Path_8986" data-name="Path 8986" d="M18.059,12.044c0,1.681-.909,3.044-2.03,3.044S14,13.726,14,12.044,14.909,9,16.03,9,18.059,10.363,18.059,12.044Z" transform="translate(13.127 7.979)"/>
        <path id="Path_8987" data-name="Path 8987" d="M12.059,12.044c0,1.681-.909,3.044-2.03,3.044S8,13.726,8,12.044,8.909,9,10.03,9,12.059,10.363,12.059,12.044Z" transform="translate(6.949 7.979)"/>
      </g>
      <path id="Path_8988" data-name="Path 8988" d="M15.965,31.422a10.349,10.349,0,0,1,11.542,0,1.087,1.087,0,0,1,.261,1.608,1.333,1.333,0,0,1-1.757.239,7.649,7.649,0,0,0-8.551,0A1.333,1.333,0,0,1,15.7,33.03,1.087,1.087,0,0,1,15.965,31.422Z" transform="translate(167.645 317.224)" fill-rule="evenodd"/>
    </g>
  </g>
</svg>
