<svg xmlns="http://www.w3.org/2000/svg" width="98.15" height="67" viewBox="-15.575 0 98.15 67">
  <g id="Group_9926" data-name="Group 9926" transform="translate(-159.615 -305.246)">
    <g id="password" transform="translate(159.615 305.246)">
      <g id="Group_3158" data-name="Group 3158">
        <g id="Group_3157" data-name="Group 3157">
          <g id="Group_3156" data-name="Group 3156">
            <g id="Group_3155" data-name="Group 3155">
              <g id="Group_3154" data-name="Group 3154">
                <g id="Group_3153" data-name="Group 3153">
                  <g id="Group_3152" data-name="Group 3152">
                    <g id="Group_3151" data-name="Group 3151">
                      <g id="Group_3150" data-name="Group 3150">
                        <g id="Group_3149" data-name="Group 3149">
                          <g id="Group_3148" data-name="Group 3148">
                            <circle id="Ellipse_516" data-name="Ellipse 516" cx="33.5" cy="33.5" r="33.5" fill="#adadad"/>
                          </g>
                        </g>
                      </g>
                    </g>
                  </g>
                </g>
              </g>
            </g>
          </g>
        </g>
      </g>
      <path id="Path_2259" data-name="Path 2259" d="M176.081,80.339,152.1,56.36a12.476,12.476,0,0,0-21.656,8.455v7.264h-4.362v21.2a8.9,8.9,0,0,0,2.986,6.661L141,111.874c.637.037,1.278.057,1.924.057A33.192,33.192,0,0,0,176.081,80.339Z" transform="translate(-109.737 -45.548)" fill="#727272"/>
      <g id="Group_3159" data-name="Group 3159" transform="translate(20.709 6.785)">
        <path id="Path_2260" data-name="Path 2260" d="M184.69,73.726H180.8v-8.91a8.593,8.593,0,1,0-17.186,0v8.91h-3.89v-8.91a12.482,12.482,0,1,1,24.965,0Z" transform="translate(-159.725 -52.333)" fill="#fff"/>
      </g>
      <g id="Group_3160" data-name="Group 3160" transform="translate(33.191 6.785)">
        <path id="Path_2261" data-name="Path 2261" d="M268.483,64.813v8.91h-3.89v-8.91A8.6,8.6,0,0,0,256,56.22V52.33A12.5,12.5,0,0,1,268.483,64.813Z" transform="translate(-256 -52.33)" fill="#fff5cb"/>
      </g>
      <g id="Group_3161" data-name="Group 3161" transform="translate(16.347 26.531)">
        <path id="Path_2262" data-name="Path 2262" d="M150.843,234.759H135.012a8.929,8.929,0,0,1-8.929-8.929v-21.2h33.689v21.2A8.929,8.929,0,0,1,150.843,234.759Z" transform="translate(-126.083 -204.632)" fill="#ffe670"/>
      </g>
      <g id="Group_3162" data-name="Group 3162" transform="translate(33.191 26.531)">
        <path id="Path_2263" data-name="Path 2263" d="M272.845,204.63v21.2a8.929,8.929,0,0,1-8.929,8.929H256V204.63Z" transform="translate(-256 -204.63)" fill="#ffcf00"/>
      </g>
      <g id="Group_3163" data-name="Group 3163" transform="translate(28.476 33.641)">
        <path id="Path_2264" data-name="Path 2264" d="M229.059,264.181a4.716,4.716,0,1,0-6.647,4.3l-1.329,6.891h6.52l-1.329-6.891A4.716,4.716,0,0,0,229.059,264.181Z" transform="translate(-219.627 -259.465)" fill="#9a4c00"/>
      </g>
      <g id="Group_3164" data-name="Group 3164" transform="translate(33.191 33.641)">
        <path id="Path_2265" data-name="Path 2265" d="M257.932,268.486l1.328,6.89H256V259.469a4.716,4.716,0,0,1,1.932,9.017Z" transform="translate(-256 -259.469)" fill="#703700"/>
      </g>
    </g>
    <g id="cancel" transform="translate(210.282 308.723)">
      <ellipse id="Ellipse_510" data-name="Ellipse 510" cx="15.877" cy="15.877" rx="15.877" ry="15.877" transform="translate(0 0)" fill="#f15249"/>
      <path id="Path_2185" data-name="Path 2185" d="M147.2,161.906l8.647,8.647A15.947,15.947,0,0,0,169.8,156.7l-8.7-8.7Z" transform="translate(-137.896 -138.645)" fill="#ad0e0e"/>
      <path id="Path_2186" data-name="Path 2186" d="M140.9,136.106a1.893,1.893,0,0,1,0,2.629l-1.416,1.416a1.893,1.893,0,0,1-2.63,0l-11.125-11.125a1.893,1.893,0,0,1,0-2.63l1.466-1.466a1.893,1.893,0,0,1,2.63,0Z" transform="translate(-117.286 -116.537)" fill="#fff"/>
      <path id="Path_2187" data-name="Path 2187" d="M220.1,216l-4.1,4.1,5.916,5.866a1.893,1.893,0,0,0,2.63,0l1.466-1.466a1.893,1.893,0,0,0,0-2.63Z" transform="translate(-202.347 -202.347)" fill="#d6d6d6"/>
      <path id="Path_2188" data-name="Path 2188" d="M136.856,125.731a1.893,1.893,0,0,1,2.63,0l1.466,1.466a1.893,1.893,0,0,1,0,2.63L129.776,140.9a1.893,1.893,0,0,1-2.63,0l-1.416-1.416a1.893,1.893,0,0,1,0-2.63Z" transform="translate(-117.286 -117.286)" fill="#fff"/>
    </g>
  </g>
</svg>
