<svg xmlns="http://www.w3.org/2000/svg" width="9.032" height="15.95" viewBox="0 0 9.032 15.95">
  <g id="cell-phone" transform="translate(-5.951)">
    <path id="Path_3231" data-name="Path 3231" d="M13.823,0H7.112A1.161,1.161,0,0,0,5.951,1.162V14.79A1.16,1.16,0,0,0,7.112,15.95h6.711a1.161,1.161,0,0,0,1.161-1.161V1.162A1.162,1.162,0,0,0,13.823,0ZM8.811.706h3.313c.084,0,.152.125.152.28s-.068.28-.152.28H8.811c-.084,0-.151-.126-.151-.28S8.727.706,8.811.706Zm1.657,14.1a.741.741,0,1,1,.74-.742A.742.742,0,0,1,10.468,14.8Zm3.646-2.539H6.821V1.961h7.293v10.3Z"/>
  </g>
</svg>
