<svg xmlns="http://www.w3.org/2000/svg" width="26.869" height="21.8" viewBox="0 0 26.869 21.8">
  <g id="Photo_Gallery" data-name="Photo Gallery" transform="translate(-54.141 495.922)">
    <path id="Path_3261" data-name="Path 3261" d="M56.312-495.832a3.143,3.143,0,0,0-1.281.7,2.708,2.708,0,0,0-.735,1.08l-.137.326-.016,6.931c-.011,4.953.005,7.024.047,7.261a2.712,2.712,0,0,0,.824,1.465,3.064,3.064,0,0,0,2.022.829l.457.03v.375a2.812,2.812,0,0,0,2.232,2.644c.273.064,1.46.074,9.53.074,10.229,0,9.483.025,10.2-.331a2.977,2.977,0,0,0,1.418-1.579l.116-.286.016-6.931c.011-4.953-.005-7.024-.047-7.261a2.926,2.926,0,0,0-.74-1.4,3.143,3.143,0,0,0-2.1-.9l-.462-.03v-.375a2.816,2.816,0,0,0-2.232-2.644c-.273-.064-1.444-.074-9.557-.069C57.278-495.921,56.606-495.911,56.312-495.832Zm19.066,1.657a1.115,1.115,0,0,1,.588.992l.021.365-8.05.01-8.055.015-.394.143a3.05,3.05,0,0,0-1.885,1.776c-.074.183-.084.784-.11,6.122l-.026,5.919-.357-.01a1.262,1.262,0,0,1-1.244-.844c-.079-.276-.074-13.575.011-13.832a1.519,1.519,0,0,1,.7-.735c.2-.089.572-.094,9.378-.079l9.168.01Zm3.035,3a1.257,1.257,0,0,1,.751.562l.147.232.016,4.622.011,4.627-3.807-3.044c-2.1-1.672-3.9-3.1-4-3.167a1.445,1.445,0,0,0-1.155-.064c-.289.143-.389.247-2.746,2.906-1.16,1.312-2.127,2.383-2.148,2.383s-.462-.34-.982-.755a13.2,13.2,0,0,0-1.1-.814,1.329,1.329,0,0,0-1.2.1c-.079.054-.788.819-1.575,1.7L59.2-480.269l-.016-5.027c-.01-4.933-.01-5.027.095-5.229a1.282,1.282,0,0,1,.746-.622c.268-.089.683-.089,9.21-.094C76.79-491.24,78.2-491.23,78.413-491.171Zm-1.78,9.955,2.678,2.136.016,1.184c.016,1.332-.01,1.46-.352,1.815-.368.385-.3.38-3.056.38H73.477L70.221-478.3c-1.785-1.426-3.292-2.634-3.345-2.679-.089-.084-.005-.187,1.985-2.437l2.085-2.348,1.5,1.2C73.277-483.895,75.163-482.395,76.633-481.216Zm-9.709,2.358,3.928,3.132-5.3.015c-3.539.01-5.361,0-5.487-.035a1.252,1.252,0,0,1-.751-.6c-.126-.237-.137-.311-.137-.844v-.582l1.88-2.121c1.029-1.164,1.89-2.111,1.911-2.106S64.771-480.58,66.924-478.858Z" transform="translate(0 0)" fill="#c00"/>
    <path id="Path_3262" data-name="Path 3262" d="M208.673-383.729a3.348,3.348,0,0,0-.61.217,2.662,2.662,0,0,0-.323,4.61,2.637,2.637,0,0,0,3.369-.368,2.635,2.635,0,0,0,.752-2.053A2.675,2.675,0,0,0,208.673-383.729Zm.847,1.609a1.124,1.124,0,0,1,.646.575,1.053,1.053,0,0,1-.691,1.438,1.046,1.046,0,0,1-1.3-1.009A1.032,1.032,0,0,1,209.521-382.12Z" transform="translate(-144.333 -106.651)" fill="#c00"/>
  </g>
</svg>
