<svg id="precision" xmlns="http://www.w3.org/2000/svg" width="24.219" height="24.219" viewBox="0 0 24.219 24.219">
  <g id="Group_3449" data-name="Group 3449" transform="translate(7.568 7.568)">
    <g id="Group_3448" data-name="Group 3448">
      <path id="Path_2476" data-name="Path 2476" d="M164.541,160A4.541,4.541,0,1,1,160,164.541,4.547,4.547,0,0,1,164.541,160Zm0,7.568a3.027,3.027,0,1,0-3.027-3.027A3.03,3.03,0,0,0,164.541,167.568Z" transform="translate(-160 -160)" fill="#fff" stroke="#fff" stroke-width="1"/>
    </g>
  </g>
  <g id="Group_3451" data-name="Group 3451">
    <g id="Group_3450" data-name="Group 3450">
      <path id="Path_2477" data-name="Path 2477" d="M.757,11.353H3.065a9.088,9.088,0,0,1,8.287-8.287V.757a.757.757,0,0,1,1.514,0V3.065a9.089,9.089,0,0,1,8.287,8.287h2.308a.757.757,0,0,1,0,1.514H21.154a9.088,9.088,0,0,1-8.287,8.287v2.308a.757.757,0,0,1-1.514,0V21.154a9.088,9.088,0,0,1-8.287-8.287H.757a.757.757,0,0,1,0-1.514Zm11.353,8.325a7.568,7.568,0,1,0-7.568-7.568A7.577,7.577,0,0,0,12.109,19.678Z" fill="#fff"/>
    </g>
  </g>
</svg>
