<svg width="24" height="24" viewBox="0 0 512 512" fill="none" xmlns="http://www.w3.org/2000/svg">
<path d="M310.481,157.606c0-5.767,0.547-11.404,1.539-16.885H13.246v43.978l196.797,165.457l138.819-116.712C325.59,216.306,310.481,188.725,310.481,157.606z" fill="#CFF09E"/>
<path d="M349.849,249.921c16.048,9.557,34.774,15.068,54.77,15.068c59.211,0,107.383-48.172,107.383-107.383S463.83,50.223,404.619,50.223c-48.75,0-89.99,32.667-103.05,77.251H13.246C5.93,127.475,0,133.405,0,140.721v3.629v40.347v260.203v0.128v3.502c0,7.316,5.93,13.246,13.246,13.246h393.595c7.316,0,13.246-5.93,13.246-13.246v-3.629V311.78c0-7.316-5.93-13.246-13.246-13.246c-7.316,0-13.246,5.93-13.246,13.246v104.679L272.68,314.8L349.849,249.921z M404.619,76.716c44.603,0,80.89,36.287,80.89,80.89s-36.287,80.89-80.89,80.89c-20.623,0-39.46-7.769-53.762-20.52c-0.25-0.224-0.507-0.441-0.755-0.668c-0.66-0.603-1.301-1.225-1.939-1.849c-0.432-0.423-0.861-0.845-1.282-1.276c-0.521-0.531-1.032-1.069-1.538-1.613c-0.6-0.649-1.186-1.307-1.763-1.974c-0.323-0.372-0.652-0.74-0.968-1.118c-8.988-10.777-15.088-23.759-17.595-37.589c-0.008-0.048-0.017-0.095-0.025-0.142c-0.249-1.388-0.453-2.787-0.629-4.191c-0.028-0.228-0.061-0.453-0.087-0.681c-0.146-1.253-0.253-2.513-0.339-3.775c-0.021-0.307-0.053-0.612-0.07-0.921c-0.087-1.519-0.138-3.043-0.138-4.573c0-1.268,0.038-2.525,0.095-3.778c0.042-0.865,0.109-1.734,0.179-2.603c0.027-0.338,0.046-0.678,0.077-1.016c0.102-1.085,0.227-2.171,0.371-3.259c0.013-0.105,0.025-0.209,0.04-0.314c0.155-1.13,0.335-2.26,0.538-3.39C331.827,105.474,364.917,76.716,404.619,76.716z M297.234,157.605c0,1.787,0.046,3.569,0.135,5.345c1.073,21.772,8.666,41.852,20.854,58.342c0.007,0.011,0.013,0.02,0.021,0.029c0.74,1.001,1.51,1.978,2.284,2.951c0.37,0.468,0.727,0.943,1.103,1.404c0.371,0.45,0.759,0.885,1.137,1.33c1.821,2.155,3.708,4.261,5.703,6.275L210.042,332.85L26.493,178.529v-24.561h270.805C297.256,155.183,297.234,156.397,297.234,157.605z M26.493,213.141L147.407,314.8L26.493,416.458V213.141z M374.82,435.285H45.268l122.722-103.18l33.529,28.19c2.464,2.072,5.493,3.108,8.524,3.108c3.031,0,6.06-1.036,8.524-3.108l33.529-28.19L374.82,435.285z" fill="#507C5C"/>
<path d="M383.015,208.391c-3.921,0-7.802-1.733-10.416-5.052c-4.526-5.748-3.535-14.076,2.212-18.602l34.455-27.132l-34.455-27.132c-5.748-4.526-6.738-12.854-2.212-18.602c4.526-5.748,12.856-6.738,18.602-2.212l47.671,37.539c3.19,2.512,5.051,6.348,5.051,10.406c0,4.059-1.861,7.895-5.051,10.406l-47.671,37.539C388.773,207.464,385.883,208.391,383.015,208.391z" fill="#507C5C"/>
</svg>
