<svg xmlns="http://www.w3.org/2000/svg" width="19.442" height="10.334" viewBox="0 0 19.442 10.334">
  <g id="sent" transform="translate(-19.598 87)">
    <path id="Path_3339" data-name="Path 3339" d="M28.285-82.624l-4.408,4.392-1.744-1.647a10.845,10.845,0,0,0-2.018-1.631.656.656,0,0,0-.468.355c-.161.307-.016.517,1.905,2.422a18.12,18.12,0,0,0,2.309,2.067c.323,0,9.689-9.382,9.689-9.689A.678.678,0,0,0,32.936-87C32.807-87,30.724-85.03,28.285-82.624Z" fill="#0081e0"/>
    <path id="Path_3340" data-name="Path 3340" d="M74.7-82.624c-4.667,4.651-4.57,4.586-5.232,3.795a.727.727,0,0,0-.5-.258.663.663,0,0,0-.517.856,7.06,7.06,0,0,0,1.825,1.566c.307,0,9.689-9.382,9.689-9.689A.68.68,0,0,0,79.33-87C79.2-87,77.118-85.03,74.7-82.624Z" transform="translate(-40.92)" fill="#0081e0"/>
  </g>
</svg>
