<svg id="list-6247" xmlns="http://www.w3.org/2000/svg" width="21.578" height="21.578" viewBox="0 0 21.578 21.578">
  <path id="Path_4581" data-name="Path 4581" d="M18.933,0H2.645A2.645,2.645,0,0,0,0,2.645V18.933a2.645,2.645,0,0,0,2.645,2.645H18.933a2.645,2.645,0,0,0,2.645-2.645V2.645A2.645,2.645,0,0,0,18.933,0ZM16.66,16.44H4.918a.959.959,0,1,1,0-1.918H16.66a.959.959,0,1,1,0,1.918Zm0-4.692H4.918a.959.959,0,1,1,0-1.918H16.66a.959.959,0,1,1,0,1.918Zm0-4.692H4.918a.959.959,0,1,1,0-1.918H16.66a.959.959,0,1,1,0,1.918Z" fill="#c00"/>
</svg>
