<svg xmlns="http://www.w3.org/2000/svg" width="47.001" height="47.002" viewBox="0 0 47.001 47.002">
  <g id="Group_8767" data-name="Group 8767" transform="translate(-164 -1109.499)">
    <path id="Subtraction_10" data-name="Subtraction 10" d="M13558.5,16138c-.185,0-.373,0-.592-.009a15.5,15.5,0,0,0-.2-21.2c.192-.157.395-.345.5-.452l6.294-6.29,3.795,3.791a.993.993,0,0,0,.705.291,1.01,1.01,0,0,0,.708-.291,1,1,0,0,0,0-1.414l-4.5-4.5-4.5-4.5a.986.986,0,0,0-.705-.295,1,1,0,0,0-.708,1.709l3.795,3.79-6.294,6.294c-.087.089-.212.2-.345.309l-.226.194a15.321,15.321,0,0,0-4.548-2.546,15.5,15.5,0,0,0-16.546,4.085,24.275,24.275,0,0,1-.13-2.467,23.513,23.513,0,1,1,23.5,23.5Z" transform="translate(-13370.998 -14981.5)" fill="#c00"/>
    <circle id="Ellipse_750" data-name="Ellipse 750" cx="3" cy="3" r="3" transform="translate(170 1135)" fill="#c00"/>
    <circle id="Ellipse_751" data-name="Ellipse 751" cx="3" cy="3" r="3" transform="translate(179 1145)" fill="#c00"/>
  </g>
</svg>
