<svg xmlns="http://www.w3.org/2000/svg" width="20.511" height="20.507" viewBox="0 0 20.511 20.507">
  <g id="TikTok_Logo" transform="translate(-46.5 829.696)">
    <path id="Path_3049" data-name="Path 3049" d="M56.117-829.688a11.342,11.342,0,0,0-2.142.366,10.13,10.13,0,0,0-4.478,2.629,10.213,10.213,0,0,0-2.95,6.107,13.854,13.854,0,0,0,0,2.289,10.3,10.3,0,0,0,4.913,7.649,10.335,10.335,0,0,0,4.092,1.408,14.133,14.133,0,0,0,2.408,0,10.215,10.215,0,0,0,1.252-.229,10.221,10.221,0,0,0,6.7-5.334,10.167,10.167,0,0,0,1.1-4.626A10.178,10.178,0,0,0,64-826.691a10.2,10.2,0,0,0-6.081-2.947A17.844,17.844,0,0,0,56.117-829.688Zm2.815,3.955a4.061,4.061,0,0,0,.263.932,3.214,3.214,0,0,0,.721,1.034,3.331,3.331,0,0,0,2.05,1l.124.016v2.123l-.166.018a3.683,3.683,0,0,1-1-.1,3.418,3.418,0,0,1-1.779-1.108,2.656,2.656,0,0,1-.208-.268c-.008-.018-.024-.034-.037-.034s-.026,1.308-.032,2.926a19.839,19.839,0,0,1-.063,3.152,3.985,3.985,0,0,1-.308.858,3.9,3.9,0,0,1-2.844,2.158,5.06,5.06,0,0,1-1.26.013,4.254,4.254,0,0,1-1.729-.724,3.989,3.989,0,0,1-1.5-2.35,3.093,3.093,0,0,1-.058-.784,3.047,3.047,0,0,1,.061-.8A3.918,3.918,0,0,1,53.81-820.6a3.562,3.562,0,0,1,1.071-.171l.329,0,.008.96.005.96L55-818.858a1.974,1.974,0,0,0-1.545.718,2.234,2.234,0,0,0-.389.774,2.3,2.3,0,0,0,0,.984,2.024,2.024,0,0,0,1.429,1.431,2.771,2.771,0,0,0,1.021,0,2.059,2.059,0,0,0,1.524-1.626c.018-.11.029-1.437.029-3.907,0-2.055.008-4.094.018-4.531l.016-.795h1.834Z"/>
  </g>
</svg>
