<svg xmlns="http://www.w3.org/2000/svg" width="15.707" height="19.58" viewBox="0 0 15.707 19.58">
  <g id="Delete_me" transform="translate(-24.8 578.719)">
    <path id="Path_3238" data-name="Path 3238" d="M145.367-578.692a.616.616,0,0,0-.184.1c-.161.142-.184.279-.184,1.026v.708h6.506v-.72c0-.788-.027-.9-.241-1.056-.107-.08-.142-.08-2.947-.088C146.757-578.722,145.429-578.711,145.367-578.692Z" transform="translate(-115.6)" fill="#c00"/>
    <path id="Path_3239" data-name="Path 3239" d="M25.868-500.6a1.236,1.236,0,0,0-.712.4c-.283.314-.318.444-.337,1.328l-.019.758H40.507l-.019-.758c-.019-.926-.05-1.033-.387-1.37-.421-.421.371-.379-7.333-.383C29.075-500.622,25.971-500.611,25.868-500.6Z" transform="translate(0 -75.111)" fill="#c00"/>
    <path id="Path_3240" data-name="Path 3240" d="M59-405.9c0,.314.811,12.044.846,12.216a.835.835,0,0,0,.612.616c.153.031,1.5.038,5.186.031l4.979-.012.188-.115a.71.71,0,0,0,.291-.325l.1-.211.444-6.1c.241-3.357.44-6.127.44-6.154S70.753-406,65.544-406H59Zm4.822,1.741c.329.172.306-.172.306,4.355s.023,4.183-.306,4.355a.425.425,0,0,1-.5,0c-.329-.172-.306.172-.306-4.355,0-3.8,0-4.007.069-4.133a.728.728,0,0,1,.486-.306A.815.815,0,0,1,63.822-404.155Zm3.923-.008a.573.573,0,0,1,.241.226l.084.149v7.976l-.084.149a.666.666,0,0,1-.475.3.75.75,0,0,1-.475-.276c-.077-.126-.077-.184-.077-4.164s0-4.038.077-4.164a.75.75,0,0,1,.475-.276A.766.766,0,0,1,67.745-404.163Z" transform="translate(-32.891 -166.109)" fill="#c00"/>
  </g>
</svg>
