<svg xmlns="http://www.w3.org/2000/svg" xmlns:xlink="http://www.w3.org/1999/xlink" width="87.49" height="127.192" viewBox="0 0 87.49 127.192">
  <defs>
    <filter id="Path_2005" x="23.462" y="0" width="61.053" height="50.864" filterUnits="userSpaceOnUse">
      <feOffset dy="3" input="SourceAlpha"/>
      <feGaussianBlur stdDeviation="3" result="blur"/>
      <feFlood flood-opacity="0.161"/>
      <feComposite operator="in" in2="blur"/>
      <feComposite in="SourceGraphic"/>
    </filter>
  </defs>
  <g id="Group_2882" data-name="Group 2882" transform="translate(-101.854 6)">
    <g id="rotated-right-arrow-with-broken-line" transform="matrix(-0.545, 0.839, -0.839, -0.545, 208.28, 52.371)">
      <g id="Group_2875" data-name="Group 2875" transform="translate(10.682 -3.008)">
        <path id="Path_2011" data-name="Path 2011" d="M.329.8C2.663,1.143,5.3.585,7.612.443c.579,0,.668-.555-.031-.623A42.115,42.115,0,0,0,.3.176C-.159.315-.138.731.329.8Z" transform="translate(54.935 75.042)" fill="#fff"/>
        <path id="Path_3323" data-name="Path 3323" d="M.358,1.178c2.219.594,4.672-.065,6.841-.154.546.026.6-.748-.064-.878A26.4,26.4,0,0,0,.294.3.46.46,0,0,0,.358,1.178Z" transform="matrix(0.951, -0.309, 0.309, 0.951, 68.343, 72.879)" fill="#fff"/>
        <path id="Path_3324" data-name="Path 3324" d="M.342,1.308c2.149.6,4.547-.135,6.658-.26.531.02.593-.8-.049-.932A23.587,23.587,0,0,0,.293.375.5.5,0,0,0,.342,1.308Z" transform="matrix(0.883, -0.469, 0.469, 0.883, 83.541, 66.117)" fill="#fff"/>
        <path id="Path_3325" data-name="Path 3325" d="M.342,1.308c2.149.6,4.547-.135,6.658-.26.531.02.593-.8-.049-.932A23.587,23.587,0,0,0,.293.375.5.5,0,0,0,.342,1.308Z" transform="matrix(0.883, -0.469, 0.469, 0.883, 93.435, 50.536)" fill="#fff"/>
        <path id="Path_2012" data-name="Path 2012" d="M.133.56C1.759,1.812,4.26,2.088,6.3,2.006c.453,0,.436-.532-.017-.534A18.1,18.1,0,0,1,3.091.927C2.176.657,1.371.3.456.028A.312.312,0,0,0,.133.56Z" transform="translate(41.611 72.518)" fill="#fff"/>
        <path id="Path_2013" data-name="Path 2013" d="M.02.759A6.959,6.959,0,0,0,2.172,3.216,15.063,15.063,0,0,0,4.737,5.15c.32.215.629-.2.309-.419A14.758,14.758,0,0,1,2.793,2.59C2.042,1.84,1.5.882.746.133.422-.293-.2.227.02.759Z" transform="translate(29.863 63.099)" fill="#fff"/>
        <path id="Path_2014" data-name="Path 2014" d="M1.132,4.749c.282.569.922.133.64-.436C1.582,3.746,1.3,3.065,1.11,2.5A16.17,16.17,0,0,0,.719.238.332.332,0,0,0,.075.224C-.373,1.453.568,3.5,1.132,4.749Z" transform="translate(26.316 40.321)" fill="#fff"/>
        <path id="Path_2015" data-name="Path 2015" d="M.028,3.1A27.432,27.432,0,0,0,.165,6.474c.068.584.471.6.47.021C.7,5.453.7,4.524.7,3.479A16.363,16.363,0,0,0,.631.34C.563-.127.093-.148.026.314A12.877,12.877,0,0,0,.028,3.1Z" transform="translate(24.352 24.916)" fill="#fff"/>
        <path id="Path_2016" data-name="Path 2016" d="M.454,6.869A24,24,0,0,1,1.733,3.537,9.415,9.415,0,0,0,2.92.427c.088-.558-.573-.683-.852-.464A8.607,8.607,0,0,0,.6,3.179,14.59,14.59,0,0,0-.3,6.518C-.39,7.188.366,7.427.454,6.869Z" transform="translate(26.558 1.742)" fill="#fff"/>
        <path id="Path_2017" data-name="Path 2017" d="M.337,4.346c.618-.733,1.235-1.572,1.855-2.2a4.478,4.478,0,0,1,1.143-.832c.417-.206.628-.2.936-.623A.6.6,0,0,0,3.94-.16c-.952-.224-1.777.719-2.4,1.346A12.56,12.56,0,0,0-.2,4.021C-.295,4.338.132,4.661.337,4.346Z" transform="translate(31.752 0.194)" fill="#fff"/>
        <path id="Path_2018" data-name="Path 2018" d="M.443,1.791a3.367,3.367,0,0,1,1.879-.655c.558,0,1.229.1,1.665-.275A.417.417,0,0,0,3.97.194C2.83-.767.634.553-.016,1.311A.339.339,0,0,0,.443,1.791Z" transform="translate(40.272 0.166)" fill="#fff"/>
        <path id="Path_2019" data-name="Path 2019" d="M.235.705A13.942,13.942,0,0,1,3,1.321a4.526,4.526,0,0,1,2.026,1.9.609.609,0,0,0,1.094-.288C6.168.258,2.414-.268.219.012-.109.108-.1.7.235.705Z" transform="translate(47.771 0.279)" fill="#fff"/>
        <path id="Path_2020" data-name="Path 2020" d="M0,.489c.691,1.73.533,3.437.8,5.269.088.458.6.472.679.018A9.765,9.765,0,0,0,.422.158C.25-.189-.089.03,0,.489Z" transform="translate(53.82 14.17)" fill="#fff"/>
        <path id="Path_2021" data-name="Path 2021" d="M.32,7.578C1.878,5.685,2.2,2.854,2.093.24A.308.308,0,1,0,1.481.226,14.01,14.01,0,0,1-.211,6.884C-.557,7.33-.026,8.024.32,7.578Z" transform="translate(53.226 29.769)" fill="#fff"/>
        <path id="Path_2022" data-name="Path 2022" d="M.375,4.849A11.932,11.932,0,0,0,4.83.364c.309-.419-.438-.85-.641-.43A39.053,39.053,0,0,1-.061,4.1.433.433,0,0,0,.375,4.849Z" transform="translate(46.7 42.665)" fill="#fff"/>
        <path id="Path_2023" data-name="Path 2023" d="M.361,2.653A6.786,6.786,0,0,0,4.6.512c.431-.392-.243-.991-.674-.6A6.981,6.981,0,0,1,2.085,1.085a18.307,18.307,0,0,0-2.071.873C-.312,2.153.03,2.65.361,2.653Z" transform="translate(40.063 53.084)" fill="#fff"/>
        <path id="Path_2024" data-name="Path 2024" d="M.526,1.22c.919,0,1.828-.234,2.744-.312A21.359,21.359,0,0,0,6.58.36C7.148.2,6.9-.351,6.326-.272c-1.027.156-2.173.234-3.2.311A8.438,8.438,0,0,0,.269.508C-.3.666-.048,1.219.526,1.22Z" transform="translate(24.586 68.483)" fill="#fff"/>
        <path id="Path_2025" data-name="Path 2025" d="M.428.671A28.953,28.953,0,0,0,5.4.592c.579,0,.555-.5-.024-.5A28.906,28.906,0,0,0,.4.025C-.178.1-.154.6.428.671Z" transform="translate(11.008 70.388)" fill="#fff"/>
        <path id="Path_2026" data-name="Path 2026" d="M.348.594A14.233,14.233,0,0,0,2.786.658c.811,0,1.739,0,2.547-.076.58,0,.552-.56-.028-.559-.811,0-1.739,0-2.554-.064A14.118,14.118,0,0,0,.32.035C-.143.036-.122.455.348.594Z" transform="translate(0.016 69.893)" fill="#fff"/>
      </g>
    </g>
    <g id="Group_2851" data-name="Group 2851" transform="translate(134.316 0)">
      <path id="Path_2006" data-name="Path 2006" d="M-9759.705,2582.337l21.63-28.1-21.63,13.027Z" transform="translate(9772.747 -2548.156)" fill="#d8d8d8"/>
      <g transform="matrix(1, 0, 0, 1, -32.46, -6)" filter="url(#Path_2005)">
        <path id="Path_2005-2" data-name="Path 2005" d="M-9727.045,2546.695l-43.053,11.856,12.655,7.8,19.608-11.763-14.609,16.134,12.045,8.832Z" transform="translate(9802.56 -2540.69)" fill="#909090"/>
      </g>
    </g>
  </g>
</svg>
